SplineFontDB: 3.2
FontName: Pretension-LightItalic
FullName: Pretension Light Italic
FamilyName: Pretension Light
Weight: Light
Copyright: Copyright 2016 The Inter Project Authors
Version: 4.000;git-a52131595
ItalicAngle: -9.39999
UnderlinePosition: -363
UnderlineWidth: 109
Ascent: 1638
Descent: 410
InvalidEm: 0
sfntRevision: 0x00040000
LayerCount: 2
Layer: 0 1 "Back" 1
Layer: 1 1 "Fore" 0
XUID: [1021 89 -1234937351 7275194]
StyleMap: 0x0001
FSType: 0
OS2Version: 4
OS2_WeightWidthSlopeOnly: 0
OS2_UseTypoMetrics: 1
CreationTime: 1700438797
ModificationTime: 1707706668
PfmFamily: 17
TTFWeight: 300
TTFWidth: 5
LineGap: 0
VLineGap: 0
Panose: 2 0 5 3 0 0 0 2 0 4
OS2TypoAscent: 1984
OS2TypoAOffset: 0
OS2TypoDescent: -494
OS2TypoDOffset: 0
OS2TypoLinegap: 0
OS2WinAscent: 1984
OS2WinAOffset: 0
OS2WinDescent: 494
OS2WinDOffset: 0
HheadAscent: 1984
HheadAOffset: 0
HheadDescent: -494
HheadDOffset: 0
OS2SubXSize: 1331
OS2SubYSize: 1229
OS2SubXOff: -25
OS2SubYOff: 154
OS2SupXSize: 1331
OS2SupYSize: 1229
OS2SupXOff: 119
OS2SupYOff: 717
OS2StrikeYSize: 109
OS2StrikeYPos: 653
OS2CapHeight: 1490
OS2XHeight: 1087
OS2Vendor: 'RSMS'
OS2CodePages: 0000019f.00000000
OS2UnicodeRanges: e0000aff.5200a1ff.00000021.00000000
Lookup: 1 0 0 "'aalt' Access All Alternates in Latin lookup 0" { "'aalt' Access All Alternates in Latin lookup 0 subtable"  } ['aalt' ('DFLT' <'dflt' > 'latn' <'CAT ' 'MOL ' 'ROM ' 'dflt' > ) ]
Lookup: 3 0 0 "'aalt' Access All Alternates in Latin lookup 1" { "'aalt' Access All Alternates in Latin lookup 1 subtable"  } ['aalt' ('DFLT' <'dflt' > 'latn' <'CAT ' 'MOL ' 'ROM ' 'dflt' > ) ]
Lookup: 1 0 0 "Single Substitution lookup 2" { "Single Substitution lookup 2 subtable"  } []
Lookup: 4 0 0 "'ccmp' Glyph Composition/Decomposition in Latin lookup 3" { "'ccmp' Glyph Composition/Decomposition in Latin lookup 3 subtable"  } ['ccmp' ('DFLT' <'dflt' > 'latn' <'CAT ' 'MOL ' 'ROM ' 'dflt' > ) ]

StartChar: .notdef
Encoding: 1114112 -1 0
Width: 1342
Flags: W
LayerCount: 2
Fore
SplineSet
857 -416 m 1,0,-1
 169 -416 l 1,1,-1
 545 1856 l 1,2,-1
 1233 1856 l 1,3,-1
 857 -416 l 1,0,-1
390 -192 m 1,4,-1
 380 -256 l 1,5,-1
 700 -256 l 1,6,-1
 710 -192 l 1,7,-1
 495 -192 l 1,8,-1
 731 -65 l 1,9,-1
 742 0 l 1,10,-1
 422 0 l 1,11,-1
 411 -64 l 1,12,-1
 627 -64 l 1,13,-1
 390 -192 l 1,4,-1
475 320 m 1,14,-1
 433 64 l 1,15,-1
 753 64 l 1,16,-1
 795 320 l 1,17,-1
 475 320 l 1,14,-1
699 128 m 1,18,-1
 507 128 l 1,19,-1
 528 256 l 1,20,-1
 720 256 l 1,21,-1
 699 128 l 1,18,-1
539 704 m 1,22,-1
 496 448 l 1,23,-1
 816 448 l 1,24,-1
 859 704 l 1,25,-1
 667 704 l 1,26,-1
 645 576 l 1,27,-1
 709 576 l 1,28,-1
 720 640 l 1,29,-1
 784 640 l 1,30,-1
 763 512 l 1,31,-1
 571 512 l 1,32,-1
 603 704 l 1,33,-1
 539 704 l 1,22,-1
560 832 m 1,34,-1
 549 768 l 1,35,-1
 869 768 l 1,36,-1
 906 992 l 1,37,-1
 842 992 l 1,38,-1
 816 832 l 1,39,-1
 560 832 l 1,34,-1
581 960 m 1,40,-1
 570 896 l 1,41,-1
 762 896 l 1,42,-1
 789 1056 l 1,43,-1
 917 1056 l 1,44,-1
 927 1120 l 1,45,-1
 607 1120 l 1,46,-1
 597 1056 l 1,47,-1
 725 1056 l 1,48,-1
 709 960 l 1,49,-1
 581 960 l 1,40,-1
757 1248 m 1,50,-1
 693 1248 l 1,51,-1
 708 1344 l 1,52,-1
 772 1344 l 1,53,-1
 757 1248 l 1,50,-1
655 1408 m 1,54,-1
 618 1184 l 1,55,-1
 938 1184 l 1,56,-1
 949 1248 l 1,57,-1
 821 1248 l 1,58,-1
 847 1408 l 1,59,-1
 655 1408 l 1,54,-1
676 1536 m 1,60,-1
 666 1472 l 1,61,-1
 986 1472 l 1,62,-1
 996 1536 l 1,63,-1
 852 1536 l 1,64,-1
 868 1632 l 1,65,-1
 1012 1632 l 1,66,-1
 1023 1696 l 1,67,-1
 703 1696 l 1,68,-1
 692 1632 l 1,69,-1
 804 1632 l 1,70,-1
 788 1536 l 1,71,-1
 676 1536 l 1,60,-1
EndSplineSet
EndChar

StartChar: A
Encoding: 65 65 2
Width: 1339
GlyphClass: 2
Flags: W
AnchorPoint: "Anchor-4" 1211 0 basechar 0
AnchorPoint: "Anchor-1" 827 1490 basechar 0
AnchorPoint: "Anchor-0" 580 0 basechar 0
LayerCount: 2
Fore
SplineSet
-52 0 m 1,0,-1
 745 1490 l 1,1,-1
 908 1490 l 1,2,-1
 1211 0 l 1,3,-1
 1070 0 l 1,4,-1
 878 979 l 2,5,6
 864 1059 864 1059 845 1166.5 c 128,-1,7
 826 1274 826 1274 803 1426 c 1,8,-1
 838 1426 l 1,9,10
 768 1277 768 1277 714.5 1170 c 128,-1,11
 661 1063 661 1063 617 979 c 2,12,-1
 101 0 l 1,13,-1
 -52 0 l 1,0,-1
280 443 m 1,14,-1
 301 567 l 1,15,-1
 1046 567 l 1,16,-1
 1025 443 l 1,17,-1
 280 443 l 1,14,-1
EndSplineSet
Substitution2: "'c2sc' Capitals to Small Capitals in Latin lookup 67 subtable" a.sc
Substitution2: "'ss06' Style Set 6 in Latin lookup 52 subtable" A.squared
Substitution2: "'ss05' Style Set 5 in Latin lookup 51 subtable" uni24B6
Substitution2: "Single Substitution lookup 44 subtable" ordfeminine
AlternateSubs2: "'aalt' Access All Alternates in Latin lookup 1 subtable" ordfeminine a.sc
Position2: "'cpsp' Capital Spacing in Latin lookup 0 subtable" dx=0 dy=0 dh=0 dv=0
EndChar

StartChar: uni023A
Encoding: 570 570 46
Width: 1339
GlyphClass: 2
Flags: W
AnchorPoint: "Anchor-4" 1211 0 basechar 0
AnchorPoint: "Anchor-1" 827 1490 basechar 0
AnchorPoint: "Anchor-0" 580 0 basechar 0
LayerCount: 2
Fore
SplineSet
1262 1678 m 1,0,-1
 289 -190 l 1,1,-1
 162 -190 l 1,2,-1
 1135 1678 l 1,3,-1
 1262 1678 l 1,0,-1
-52 0 m 1,4,-1
 745 1490 l 1,5,-1
 908 1490 l 1,6,-1
 1211 0 l 1,7,-1
 1070 0 l 1,8,-1
 878 979 l 2,9,10
 864 1059 864 1059 845 1166.5 c 128,-1,11
 826 1274 826 1274 803 1426 c 1,12,-1
 838 1426 l 1,13,14
 768 1277 768 1277 714.5 1170 c 128,-1,15
 661 1063 661 1063 617 979 c 2,16,-1
 101 0 l 1,17,-1
 -52 0 l 1,4,-1
280 443 m 1,18,-1
 301 567 l 1,19,-1
 1046 567 l 1,20,-1
 1025 443 l 1,21,-1
 280 443 l 1,18,-1
EndSplineSet
Position2: "'cpsp' Capital Spacing in Latin lookup 0 subtable" dx=0 dy=0 dh=0 dv=0
EndChar

StartChar: Lambda
Encoding: 923 923 60
Width: 1339
GlyphClass: 2
Flags: W
AnchorPoint: "Anchor-1" 827 1490 basechar 0
AnchorPoint: "Anchor-0" 580 0 basechar 0
LayerCount: 2
Fore
SplineSet
-52 0 m 1,0,-1
 745 1490 l 1,1,-1
 908 1490 l 1,2,-1
 1211 0 l 1,3,-1
 1070 0 l 1,4,-1
 878 979 l 2,5,6
 863 1059 863 1059 844.5 1166.5 c 128,-1,7
 826 1274 826 1274 803 1426 c 1,8,-1
 838 1426 l 1,9,10
 768 1277 768 1277 714.5 1170 c 128,-1,11
 661 1063 661 1063 617 979 c 2,12,-1
 101 0 l 1,13,-1
 -52 0 l 1,0,-1
EndSplineSet
Position2: "'cpsp' Capital Spacing in Latin lookup 0 subtable" dx=0 dy=0 dh=0 dv=0
EndChar

StartChar: AE
Encoding: 198 198 61
Width: 1953
GlyphClass: 2
Flags: W
AnchorPoint: "Anchor-1" 1439 1490 basechar 0
LayerCount: 2
Fore
SplineSet
-52 0 m 1,0,-1
 913 1490 l 1,1,-1
 1991 1490 l 1,2,-1
 1971 1366 l 1,3,-1
 1244 1366 l 1,4,-1
 1151 810 l 1,5,-1
 1834 810 l 1,6,-1
 1812 685 l 1,7,-1
 1131 685 l 1,8,-1
 1038 125 l 1,9,-1
 1780 125 l 1,10,-1
 1759 0 l 1,11,-1
 878 0 l 1,12,-1
 1104 1364 l 1,13,-1
 974 1364 l 1,14,-1
 99 0 l 1,15,-1
 -52 0 l 1,0,-1
346 456 m 1,16,-1
 367 580 l 1,17,-1
 1045 580 l 1,18,-1
 1025 456 l 1,19,-1
 346 456 l 1,16,-1
EndSplineSet
Position2: "'cpsp' Capital Spacing in Latin lookup 0 subtable" dx=0 dy=0 dh=0 dv=0
EndChar

StartChar: B
Encoding: 66 66 65
Width: 1307
GlyphClass: 2
Flags: W
AnchorPoint: "Anchor-1" 780 1488 basechar 0
AnchorPoint: "Anchor-0" 545 0 basechar 0
LayerCount: 2
Fore
SplineSet
86 0 m 1,0,-1
 333 1490 l 1,1,-1
 839 1490 l 2,2,3
 984 1490 984 1490 1077.5 1440 c 128,-1,4
 1171 1390 1171 1390 1211 1300.5 c 128,-1,5
 1251 1211 1251 1211 1231 1093 c 0,6,7
 1217 1006 1217 1006 1174.5 941.5 c 128,-1,8
 1132 877 1132 877 1069.5 834 c 128,-1,9
 1007 791 1007 791 932 769 c 1,10,-1
 932 765 l 1,11,12
 1008 756 1008 756 1069.5 709.5 c 128,-1,13
 1131 663 1131 663 1161.5 583.5 c 128,-1,14
 1192 504 1192 504 1174 394 c 0,15,16
 1155 276 1155 276 1087 187.5 c 128,-1,17
 1019 99 1019 99 904 49.5 c 128,-1,18
 789 0 789 0 626 0 c 2,19,-1
 86 0 l 1,0,-1
245 125 m 1,20,-1
 636 125 l 2,21,22
 811 125 811 125 914.5 204 c 128,-1,23
 1018 283 1018 283 1039 409 c 0,24,25
 1054 496 1054 496 1021.5 560.5 c 128,-1,26
 989 625 989 625 918.5 660.5 c 128,-1,27
 848 696 848 696 746 696 c 2,28,-1
 341 696 l 1,29,-1
 245 125 l 1,20,-1
361 817 m 1,30,-1
 743 817 l 2,31,32
 835 817 835 817 910 854.5 c 128,-1,33
 985 892 985 892 1034 957 c 128,-1,34
 1083 1022 1083 1022 1097 1104 c 0,35,36
 1117 1224 1117 1224 1048 1295 c 128,-1,37
 979 1366 979 1366 828 1366 c 2,38,-1
 451 1366 l 1,39,-1
 361 817 l 1,30,-1
EndSplineSet
Substitution2: "'ss06' Style Set 6 in Latin lookup 52 subtable" B.squared
Substitution2: "'ss05' Style Set 5 in Latin lookup 51 subtable" uni24B7
Position2: "'cpsp' Capital Spacing in Latin lookup 0 subtable" dx=0 dy=0 dh=0 dv=0
EndChar

StartChar: uni0181
Encoding: 385 385 70
Width: 1547
GlyphClass: 2
Flags: W
AnchorPoint: "Anchor-1" 1020 1488 basechar 0
AnchorPoint: "Anchor-0" 785 0 basechar 0
LayerCount: 2
Fore
SplineSet
143 1094 m 1,0,-1
 166 1234 l 2,1,2
 187 1361 187 1361 263.5 1425.5 c 128,-1,3
 340 1490 340 1490 471 1490 c 2,4,-1
 573 1490 l 1,5,-1
 551 1366 l 1,6,-1
 452 1366 l 2,7,8
 382 1366 382 1366 345 1334 c 128,-1,9
 308 1302 308 1302 296 1232 c 2,10,-1
 273 1094 l 1,11,-1
 143 1094 l 1,0,-1
326 0 m 1,12,-1
 573 1490 l 1,13,-1
 1079 1490 l 2,14,15
 1224 1490 1224 1490 1317.5 1440 c 128,-1,16
 1411 1390 1411 1390 1451 1300.5 c 128,-1,17
 1491 1211 1491 1211 1471 1093 c 0,18,19
 1457 1006 1457 1006 1414.5 941.5 c 128,-1,20
 1372 877 1372 877 1309.5 834 c 128,-1,21
 1247 791 1247 791 1172 769 c 1,22,-1
 1172 765 l 1,23,24
 1248 756 1248 756 1309.5 709.5 c 128,-1,25
 1371 663 1371 663 1401.5 583.5 c 128,-1,26
 1432 504 1432 504 1414 394 c 0,27,28
 1395 276 1395 276 1327 187.5 c 128,-1,29
 1259 99 1259 99 1144 49.5 c 128,-1,30
 1029 0 1029 0 866 0 c 2,31,-1
 326 0 l 1,12,-1
485 125 m 1,32,-1
 876 125 l 2,33,34
 1051 125 1051 125 1154.5 204 c 128,-1,35
 1258 283 1258 283 1279 409 c 0,36,37
 1294 496 1294 496 1261.5 560.5 c 128,-1,38
 1229 625 1229 625 1158.5 660.5 c 128,-1,39
 1088 696 1088 696 986 696 c 2,40,-1
 581 696 l 1,41,-1
 485 125 l 1,32,-1
601 817 m 1,42,-1
 983 817 l 2,43,44
 1075 817 1075 817 1150 854.5 c 128,-1,45
 1225 892 1225 892 1274 957 c 128,-1,46
 1323 1022 1323 1022 1337 1104 c 0,47,48
 1357 1224 1357 1224 1288 1295 c 128,-1,49
 1219 1366 1219 1366 1068 1366 c 2,50,-1
 691 1366 l 1,51,-1
 601 817 l 1,42,-1
EndSplineSet
Position2: "'cpsp' Capital Spacing in Latin lookup 0 subtable" dx=0 dy=0 dh=0 dv=0
EndChar

StartChar: C
Encoding: 67 67 73
Width: 1463
GlyphClass: 2
Flags: W
AnchorPoint: "Anchor-3" 667 -3 basechar 0
AnchorPoint: "Anchor-1" 915 1490 basechar 0
LayerCount: 2
Fore
SplineSet
680 -21 m 0,0,1
 511 -21 511 -21 387 53 c 128,-1,2
 263 127 263 127 196 261.5 c 128,-1,3
 129 396 129 396 129 578 c 0,4,5
 129 754 129 754 184.5 921 c 128,-1,6
 240 1088 240 1088 343.5 1221 c 128,-1,7
 447 1354 447 1354 592 1432.5 c 128,-1,8
 737 1511 737 1511 918 1511 c 0,9,10
 1040 1511 1040 1511 1136 1473.5 c 128,-1,11
 1232 1436 1232 1436 1299.5 1369 c 128,-1,12
 1367 1302 1367 1302 1402.5 1212 c 128,-1,13
 1438 1122 1438 1122 1439 1018 c 1,14,-1
 1300 1018 l 1,15,16
 1296 1096 1296 1096 1268.5 1162 c 128,-1,17
 1241 1228 1241 1228 1191.5 1277.5 c 128,-1,18
 1142 1327 1142 1327 1072 1354 c 128,-1,19
 1002 1381 1002 1381 913 1381 c 0,20,21
 765 1381 765 1381 646 1314 c 128,-1,22
 527 1247 527 1247 442 1132.5 c 128,-1,23
 357 1018 357 1018 311 874.5 c 128,-1,24
 265 731 265 731 265 580 c 0,25,26
 265 430 265 430 318 324.5 c 128,-1,27
 371 219 371 219 465.5 164 c 128,-1,28
 560 109 560 109 685 109 c 0,29,30
 777 109 777 109 859 136.5 c 128,-1,31
 941 164 941 164 1009 213.5 c 128,-1,32
 1077 263 1077 263 1128 328.5 c 128,-1,33
 1179 394 1179 394 1209 472 c 1,34,-1
 1349 472 l 1,35,36
 1314 369 1314 369 1250.5 280 c 128,-1,37
 1187 191 1187 191 1099 123 c 128,-1,38
 1011 55 1011 55 905.5 17 c 128,-1,39
 800 -21 800 -21 680 -21 c 0,0,1
EndSplineSet
Substitution2: "'ss06' Style Set 6 in Latin lookup 52 subtable" C.squared
Substitution2: "'ss05' Style Set 5 in Latin lookup 51 subtable" uni24B8
Position2: "'cpsp' Capital Spacing in Latin lookup 0 subtable" dx=0 dy=0 dh=0 dv=0
EndChar

StartChar: uni0187
Encoding: 391 391 74
Width: 1463
GlyphClass: 2
Flags: W
AnchorPoint: "Anchor-3" 667 -3 basechar 0
AnchorPoint: "Anchor-1" 915 1490 basechar 0
LayerCount: 2
Fore
SplineSet
1311 1018 m 1,0,-1
 1381 1445 l 2,1,2
 1401 1563 1401 1563 1475.5 1621.5 c 128,-1,3
 1550 1680 1550 1680 1672 1680 c 0,4,5
 1699 1680 1699 1680 1722.5 1678.5 c 128,-1,6
 1746 1677 1746 1677 1764 1676 c 1,7,-1
 1745 1562 l 1,8,9
 1728 1563 1728 1563 1705 1563.5 c 128,-1,10
 1682 1564 1682 1564 1669 1564 c 0,11,12
 1594 1564 1594 1564 1556.5 1536 c 128,-1,13
 1519 1508 1519 1508 1510 1445 c 2,14,-1
 1439 1018 l 1,15,-1
 1311 1018 l 1,0,-1
680 -21 m 0,16,17
 511 -21 511 -21 387 53 c 128,-1,18
 263 127 263 127 196 261.5 c 128,-1,19
 129 396 129 396 129 578 c 0,20,21
 129 754 129 754 184.5 921 c 128,-1,22
 240 1088 240 1088 343.5 1221 c 128,-1,23
 447 1354 447 1354 592 1432.5 c 128,-1,24
 737 1511 737 1511 918 1511 c 0,25,26
 1040 1511 1040 1511 1136 1473.5 c 128,-1,27
 1232 1436 1232 1436 1299.5 1369 c 128,-1,28
 1367 1302 1367 1302 1402.5 1212 c 128,-1,29
 1438 1122 1438 1122 1439 1018 c 1,30,-1
 1300 1018 l 1,31,32
 1296 1096 1296 1096 1268.5 1162 c 128,-1,33
 1241 1228 1241 1228 1191.5 1277.5 c 128,-1,34
 1142 1327 1142 1327 1072 1354 c 128,-1,35
 1002 1381 1002 1381 913 1381 c 0,36,37
 765 1381 765 1381 646 1314 c 128,-1,38
 527 1247 527 1247 442 1132.5 c 128,-1,39
 357 1018 357 1018 311 874.5 c 128,-1,40
 265 731 265 731 265 580 c 0,41,42
 265 430 265 430 318 324.5 c 128,-1,43
 371 219 371 219 465.5 164 c 128,-1,44
 560 109 560 109 685 109 c 0,45,46
 777 109 777 109 859 136.5 c 128,-1,47
 941 164 941 164 1009 213.5 c 128,-1,48
 1077 263 1077 263 1128 328.5 c 128,-1,49
 1179 394 1179 394 1209 472 c 1,50,-1
 1349 472 l 1,51,52
 1314 369 1314 369 1250.5 280 c 128,-1,53
 1187 191 1187 191 1099 123 c 128,-1,54
 1011 55 1011 55 905.5 17 c 128,-1,55
 800 -21 800 -21 680 -21 c 0,16,17
EndSplineSet
Position2: "'cpsp' Capital Spacing in Latin lookup 0 subtable" dx=0 dy=0 dh=0 dv=0
EndChar

StartChar: uni023B
Encoding: 571 571 81
Width: 1463
GlyphClass: 2
Flags: W
AnchorPoint: "Anchor-3" 667 -3 basechar 0
AnchorPoint: "Anchor-1" 915 1490 basechar 0
LayerCount: 2
Fore
SplineSet
205 -190 m 1,0,-1
 1197 1678 l 1,1,-1
 1324 1678 l 1,2,-1
 332 -190 l 1,3,-1
 205 -190 l 1,0,-1
680 -21 m 0,4,5
 511 -21 511 -21 387 53 c 128,-1,6
 263 127 263 127 196 261.5 c 128,-1,7
 129 396 129 396 129 578 c 0,8,9
 129 754 129 754 184.5 921 c 128,-1,10
 240 1088 240 1088 343.5 1221 c 128,-1,11
 447 1354 447 1354 592 1432.5 c 128,-1,12
 737 1511 737 1511 918 1511 c 0,13,14
 1040 1511 1040 1511 1136 1473.5 c 128,-1,15
 1232 1436 1232 1436 1299.5 1369 c 128,-1,16
 1367 1302 1367 1302 1402.5 1212 c 128,-1,17
 1438 1122 1438 1122 1439 1018 c 1,18,-1
 1300 1018 l 1,19,20
 1296 1096 1296 1096 1268.5 1162 c 128,-1,21
 1241 1228 1241 1228 1191.5 1277.5 c 128,-1,22
 1142 1327 1142 1327 1072 1354 c 128,-1,23
 1002 1381 1002 1381 913 1381 c 0,24,25
 765 1381 765 1381 646 1314 c 128,-1,26
 527 1247 527 1247 442 1132.5 c 128,-1,27
 357 1018 357 1018 311 874.5 c 128,-1,28
 265 731 265 731 265 580 c 0,29,30
 265 430 265 430 318 324.5 c 128,-1,31
 371 219 371 219 465.5 164 c 128,-1,32
 560 109 560 109 685 109 c 0,33,34
 777 109 777 109 859 136.5 c 128,-1,35
 941 164 941 164 1009 213.5 c 128,-1,36
 1077 263 1077 263 1128 328.5 c 128,-1,37
 1179 394 1179 394 1209 472 c 1,38,-1
 1349 472 l 1,39,40
 1314 369 1314 369 1250.5 280 c 128,-1,41
 1187 191 1187 191 1099 123 c 128,-1,42
 1011 55 1011 55 905.5 17 c 128,-1,43
 800 -21 800 -21 680 -21 c 0,4,5
EndSplineSet
Ligature2: "'ccmp' Glyph Composition/Decomposition in Latin lookup 6 subtable" C uni0338
Position2: "'cpsp' Capital Spacing in Latin lookup 0 subtable" dx=0 dy=0 dh=0 dv=0
EndChar

StartChar: uni0186
Encoding: 390 390 82
Width: 1463
GlyphClass: 2
Flags: W
AnchorPoint: "Anchor-3" 863 1494 basechar 0
AnchorPoint: "Anchor-1" 616 0 basechar 0
LayerCount: 2
Fore
SplineSet
851 1511 m 0,0,1
 1021 1511 1021 1511 1144.5 1437.5 c 128,-1,2
 1268 1364 1268 1364 1335 1229.5 c 128,-1,3
 1402 1095 1402 1095 1402 913 c 0,4,5
 1402 737 1402 737 1346.5 570 c 128,-1,6
 1291 403 1291 403 1188 269.5 c 128,-1,7
 1085 136 1085 136 939 57.5 c 128,-1,8
 793 -21 793 -21 614 -21 c 0,9,10
 492 -21 492 -21 395.5 16.5 c 128,-1,11
 299 54 299 54 232 122 c 128,-1,12
 165 190 165 190 129.5 279.5 c 128,-1,13
 94 369 94 369 92 473 c 1,14,-1
 231 473 l 1,15,16
 235 395 235 395 262.5 328.5 c 128,-1,17
 290 262 290 262 339.5 213 c 128,-1,18
 389 164 389 164 459.5 136.5 c 128,-1,19
 530 109 530 109 619 109 c 0,20,21
 766 109 766 109 885.5 176.5 c 128,-1,22
 1005 244 1005 244 1090 359 c 128,-1,23
 1175 474 1175 474 1220.5 617 c 128,-1,24
 1266 760 1266 760 1266 910 c 0,25,26
 1266 1061 1266 1061 1213 1166 c 128,-1,27
 1160 1271 1160 1271 1065.5 1326 c 128,-1,28
 971 1381 971 1381 845 1381 c 0,29,30
 754 1381 754 1381 672 1354 c 128,-1,31
 590 1327 590 1327 522 1278 c 128,-1,32
 454 1229 454 1229 403 1162.5 c 128,-1,33
 352 1096 352 1096 322 1019 c 1,34,-1
 182 1019 l 1,35,36
 217 1122 217 1122 281 1211.5 c 128,-1,37
 345 1301 345 1301 432 1368.5 c 128,-1,38
 519 1436 519 1436 625.5 1473.5 c 128,-1,39
 732 1511 732 1511 851 1511 c 0,0,1
EndSplineSet
Position2: "'cpsp' Capital Spacing in Latin lookup 0 subtable" dx=0 dy=0 dh=0 dv=0
EndChar

StartChar: D
Encoding: 68 68 84
Width: 1429
GlyphClass: 2
Flags: W
AnchorPoint: "Anchor-1" 759 1490 basechar 0
AnchorPoint: "Anchor-0" 502 0 basechar 0
LayerCount: 2
Fore
SplineSet
545 0 m 2,0,-1
 164 0 l 1,1,-1
 183 125 l 1,2,-1
 535 125 l 2,3,4
 727 125 727 125 868.5 200 c 128,-1,5
 1010 275 1010 275 1098 415.5 c 128,-1,6
 1186 556 1186 556 1217 749 c 0,7,8
 1249 941 1249 941 1213 1079 c 128,-1,9
 1177 1217 1177 1217 1071 1291 c 128,-1,10
 965 1365 965 1365 784 1365 c 2,11,-1
 384 1365 l 1,12,-1
 405 1490 l 1,13,-1
 786 1490 l 2,14,15
 1001 1490 1001 1490 1140.5 1401.5 c 128,-1,16
 1280 1313 1280 1313 1336.5 1146.5 c 128,-1,17
 1393 980 1393 980 1354 748 c 0,18,19
 1316 513 1316 513 1209.5 345.5 c 128,-1,20
 1103 178 1103 178 935.5 89 c 128,-1,21
 768 0 768 0 545 0 c 2,0,-1
472 1490 m 1,22,-1
 225 0 l 1,23,-1
 86 0 l 1,24,-1
 333 1490 l 1,25,-1
 472 1490 l 1,22,-1
EndSplineSet
Substitution2: "'ss06' Style Set 6 in Latin lookup 52 subtable" D.squared
Substitution2: "'ss05' Style Set 5 in Latin lookup 51 subtable" uni24B9
Position2: "'cpsp' Capital Spacing in Latin lookup 0 subtable" dx=0 dy=0 dh=0 dv=0
EndChar

StartChar: uni018A
Encoding: 394 394 85
Width: 1669
GlyphClass: 2
Flags: W
AnchorPoint: "Anchor-1" 999 1490 basechar 0
AnchorPoint: "Anchor-0" 742 0 basechar 0
LayerCount: 2
Fore
SplineSet
144 1094 m 1,0,-1
 167 1234 l 2,1,2
 188 1361 188 1361 264 1425.5 c 128,-1,3
 340 1490 340 1490 473 1490 c 2,4,-1
 573 1490 l 1,5,-1
 553 1366 l 1,6,-1
 453 1366 l 2,7,8
 383 1366 383 1366 345.5 1334 c 128,-1,9
 308 1302 308 1302 297 1232 c 2,10,-1
 274 1094 l 1,11,-1
 144 1094 l 1,0,-1
785 0 m 2,12,-1
 404 0 l 1,13,-1
 423 125 l 1,14,-1
 775 125 l 2,15,16
 967 125 967 125 1108.5 200 c 128,-1,17
 1250 275 1250 275 1338 415.5 c 128,-1,18
 1426 556 1426 556 1457 749 c 0,19,20
 1489 941 1489 941 1453 1079 c 128,-1,21
 1417 1217 1417 1217 1311 1291 c 128,-1,22
 1205 1365 1205 1365 1024 1365 c 2,23,-1
 624 1365 l 1,24,-1
 645 1490 l 1,25,-1
 1026 1490 l 2,26,27
 1241 1490 1241 1490 1380.5 1401.5 c 128,-1,28
 1520 1313 1520 1313 1576.5 1146.5 c 128,-1,29
 1633 980 1633 980 1594 748 c 0,30,31
 1556 513 1556 513 1449.5 345.5 c 128,-1,32
 1343 178 1343 178 1175.5 89 c 128,-1,33
 1008 0 1008 0 785 0 c 2,12,-1
712 1490 m 1,34,-1
 465 0 l 1,35,-1
 326 0 l 1,36,-1
 573 1490 l 1,37,-1
 712 1490 l 1,34,-1
EndSplineSet
Position2: "'cpsp' Capital Spacing in Latin lookup 0 subtable" dx=0 dy=0 dh=0 dv=0
EndChar

StartChar: E
Encoding: 69 69 95
Width: 1196
GlyphClass: 2
Flags: W
AnchorPoint: "Anchor-4" 1001 0 basechar 0
AnchorPoint: "Anchor-3" 547 0 basechar 0
AnchorPoint: "Anchor-1" 791 1490 basechar 0
AnchorPoint: "Anchor-0" 544 0 basechar 0
LayerCount: 2
Fore
SplineSet
86 0 m 1,0,-1
 333 1490 l 1,1,-1
 1242 1490 l 1,2,-1
 1220 1366 l 1,3,-1
 452 1366 l 1,4,-1
 362 819 l 1,5,-1
 1075 819 l 1,6,-1
 1054 694 l 1,7,-1
 341 694 l 1,8,-1
 246 125 l 1,9,-1
 1022 125 l 1,10,-1
 1001 0 l 1,11,-1
 86 0 l 1,0,-1
EndSplineSet
Substitution2: "'ss06' Style Set 6 in Latin lookup 52 subtable" E.squared
Substitution2: "'ss05' Style Set 5 in Latin lookup 51 subtable" uni24BA
Position2: "'cpsp' Capital Spacing in Latin lookup 0 subtable" dx=0 dy=0 dh=0 dv=0
EndChar

StartChar: uni0246
Encoding: 582 582 121
Width: 1196
GlyphClass: 2
Flags: W
AnchorPoint: "Anchor-4" 1001 0 basechar 0
AnchorPoint: "Anchor-3" 547 0 basechar 0
AnchorPoint: "Anchor-1" 791 1490 basechar 0
AnchorPoint: "Anchor-0" 544 0 basechar 0
LayerCount: 2
Fore
SplineSet
194 -190 m 1,0,-1
 1044 1678 l 1,1,-1
 1169 1678 l 1,2,-1
 320 -190 l 1,3,-1
 194 -190 l 1,0,-1
86 0 m 1,4,-1
 333 1490 l 1,5,-1
 1242 1490 l 1,6,-1
 1220 1366 l 1,7,-1
 452 1366 l 1,8,-1
 362 819 l 1,9,-1
 1075 819 l 1,10,-1
 1054 694 l 1,11,-1
 341 694 l 1,12,-1
 246 125 l 1,13,-1
 1022 125 l 1,14,-1
 1001 0 l 1,15,-1
 86 0 l 1,4,-1
EndSplineSet
Position2: "'cpsp' Capital Spacing in Latin lookup 0 subtable" dx=0 dy=0 dh=0 dv=0
EndChar

StartChar: Eturn
Encoding: 398 398 122
Width: 1196
GlyphClass: 2
Flags: W
AnchorPoint: "Anchor-4" 262 1490 basechar 0
AnchorPoint: "Anchor-3" 449 0 basechar 0
AnchorPoint: "Anchor-1" 710 1490 basechar 0
AnchorPoint: "Anchor-0" 447 0 basechar 0
LayerCount: 2
Fore
SplineSet
1177 1490 m 1,0,-1
 930 0 l 1,1,-1
 21 0 l 1,2,-1
 43 126 l 1,3,-1
 811 126 l 1,4,-1
 901 672 l 1,5,-1
 188 672 l 1,6,-1
 209 796 l 1,7,-1
 922 796 l 1,8,-1
 1017 1366 l 1,9,-1
 241 1366 l 1,10,-1
 262 1490 l 1,11,-1
 1177 1490 l 1,0,-1
EndSplineSet
Position2: "'cpsp' Capital Spacing in Latin lookup 0 subtable" dx=0 dy=0 dh=0 dv=0
EndChar

StartChar: F
Encoding: 70 70 137
Width: 1163
GlyphClass: 2
Flags: W
AnchorPoint: "Anchor-1" 778 1490 basechar 0
AnchorPoint: "Anchor-0" 156 0 basechar 0
LayerCount: 2
Fore
SplineSet
86 0 m 1,0,-1
 333 1490 l 1,1,-1
 1222 1490 l 1,2,-1
 1202 1366 l 1,3,-1
 451 1366 l 1,4,-1
 359 810 l 1,5,-1
 1040 810 l 1,6,-1
 1019 686 l 1,7,-1
 338 686 l 1,8,-1
 225 0 l 1,9,-1
 86 0 l 1,0,-1
EndSplineSet
Substitution2: "'ss06' Style Set 6 in Latin lookup 52 subtable" F.squared
Substitution2: "'ss05' Style Set 5 in Latin lookup 51 subtable" uni24BB
Position2: "'cpsp' Capital Spacing in Latin lookup 0 subtable" dx=0 dy=0 dh=0 dv=0
EndChar

StartChar: uni0191
Encoding: 401 401 138
Width: 1163
GlyphClass: 2
Flags: W
AnchorPoint: "Anchor-1" 778 1490 basechar 0
AnchorPoint: "Anchor-0" 156 0 basechar 0
LayerCount: 2
Fore
SplineSet
-192 -418 m 1,0,-1
 -172 -297 l 1,1,2
 -155 -299 -155 -299 -132 -299 c 128,-1,3
 -109 -299 -109 -299 -96 -299 c 0,4,5
 -22 -299 -22 -299 12.5 -271 c 128,-1,6
 47 -243 47 -243 56 -181 c 2,7,-1
 107 128 l 1,8,-1
 246 128 l 1,9,-1
 194 -186 l 2,10,11
 174 -302 174 -302 100.5 -361 c 128,-1,12
 27 -420 27 -420 -97 -420 c 0,13,14
 -125 -420 -125 -420 -150 -419.5 c 128,-1,15
 -175 -419 -175 -419 -192 -418 c 1,0,-1
86 0 m 1,16,-1
 333 1490 l 1,17,-1
 1222 1490 l 1,18,-1
 1202 1366 l 1,19,-1
 451 1366 l 1,20,-1
 359 810 l 1,21,-1
 1040 810 l 1,22,-1
 1019 686 l 1,23,-1
 338 686 l 1,24,-1
 225 0 l 1,25,-1
 86 0 l 1,16,-1
EndSplineSet
Position2: "'cpsp' Capital Spacing in Latin lookup 0 subtable" dx=0 dy=0 dh=0 dv=0
EndChar

StartChar: Fturn
Encoding: 8498 8498 140
Width: 1163
GlyphClass: 2
Flags: W
AnchorPoint: "Anchor-1" 1075 1490 basechar 0
AnchorPoint: "Anchor-0" 453 0 basechar 0
LayerCount: 2
Fore
SplineSet
1144 1490 m 1,0,-1
 897 0 l 1,1,-1
 8 0 l 1,2,-1
 29 125 l 1,3,-1
 779 125 l 1,4,-1
 872 680 l 1,5,-1
 191 680 l 1,6,-1
 211 805 l 1,7,-1
 892 805 l 1,8,-1
 1006 1490 l 1,9,-1
 1144 1490 l 1,0,-1
EndSplineSet
Position2: "'cpsp' Capital Spacing in Latin lookup 0 subtable" dx=0 dy=0 dh=0 dv=0
EndChar

StartChar: G
Encoding: 1114113 -1 141
Width: 1491
GlyphClass: 2
Flags: W
AnchorPoint: "Anchor-1" 910 1490 basechar 0
AnchorPoint: "Anchor-0" 662 0 basechar 0
LayerCount: 2
Fore
SplineSet
681 -21 m 0,0,1
 510 -21 510 -21 386.5 53 c 128,-1,2
 263 127 263 127 196 261 c 128,-1,3
 129 395 129 395 129 577 c 0,4,5
 129 753 129 753 184 919.5 c 128,-1,6
 239 1086 239 1086 342 1220 c 128,-1,7
 445 1354 445 1354 589.5 1432.5 c 128,-1,8
 734 1511 734 1511 913 1511 c 0,9,10
 1037 1511 1037 1511 1134.5 1472.5 c 128,-1,11
 1232 1434 1232 1434 1299.5 1365.5 c 128,-1,12
 1367 1297 1367 1297 1403.5 1208 c 128,-1,13
 1440 1119 1440 1119 1440 1019 c 1,14,-1
 1299 1019 l 1,15,16
 1295 1093 1295 1093 1267.5 1158.5 c 128,-1,17
 1240 1224 1240 1224 1191 1274 c 128,-1,18
 1142 1324 1142 1324 1071 1352.5 c 128,-1,19
 1000 1381 1000 1381 908 1381 c 0,20,21
 759 1381 759 1381 640.5 1312.5 c 128,-1,22
 522 1244 522 1244 438 1128.5 c 128,-1,23
 354 1013 354 1013 309.5 870.5 c 128,-1,24
 265 728 265 728 265 582 c 0,25,26
 265 362 265 362 377.5 235.5 c 128,-1,27
 490 109 490 109 686 109 c 0,28,29
 826 109 826 109 944 171.5 c 128,-1,30
 1062 234 1062 234 1141.5 347 c 128,-1,31
 1221 460 1221 460 1246 611 c 1,32,-1
 1289 598 l 1,33,-1
 813 598 l 1,34,-1
 834 722 l 1,35,-1
 1402 722 l 1,36,-1
 1380 595 l 2,37,38
 1356 456 1356 456 1294 343.5 c 128,-1,39
 1232 231 1232 231 1139 149 c 128,-1,40
 1046 67 1046 67 929.5 23 c 128,-1,41
 813 -21 813 -21 681 -21 c 0,0,1
EndSplineSet
Substitution2: "'c2sc' Capitals to Small Capitals in Latin lookup 67 subtable" g.sc
Substitution2: "'cv10' Character Variants 10 in Latin lookup 64 subtable" G.1
Substitution2: "'ss06' Style Set 6 in Latin lookup 52 subtable" G.squared
Substitution2: "'ss05' Style Set 5 in Latin lookup 51 subtable" uni24BC
Substitution2: "'salt' Stylistic Alternatives in Latin lookup 46 subtable" G.1
Substitution2: "'aalt' Access All Alternates in Latin lookup 0 subtable" g.sc
Position2: "'cpsp' Capital Spacing in Latin lookup 0 subtable" dx=0 dy=0 dh=0 dv=0
EndChar

StartChar: uni0193
Encoding: 1114115 -1 143
Width: 1491
GlyphClass: 2
Flags: W
AnchorPoint: "Anchor-1" 910 1490 basechar 0
AnchorPoint: "Anchor-0" 662 0 basechar 0
LayerCount: 2
Fore
SplineSet
1333 1034 m 1,0,-1
 1383 1446 l 2,1,2
 1392 1526 1392 1526 1430.5 1577.5 c 128,-1,3
 1469 1629 1469 1629 1531.5 1654 c 128,-1,4
 1594 1679 1594 1679 1673 1679 c 0,5,6
 1701 1679 1701 1679 1724.5 1678.5 c 128,-1,7
 1748 1678 1748 1678 1764 1676 c 1,8,-1
 1746 1561 l 1,9,10
 1730 1562 1730 1562 1706 1562.5 c 128,-1,11
 1682 1563 1682 1563 1669 1563 c 0,12,13
 1596 1563 1596 1563 1558.5 1535.5 c 128,-1,14
 1521 1508 1521 1508 1510 1446 c 2,15,-1
 1441 1019 l 1,16,-1
 1333 1034 l 1,0,-1
681 -21 m 0,17,18
 510 -21 510 -21 386.5 53 c 128,-1,19
 263 127 263 127 196 261 c 128,-1,20
 129 395 129 395 129 577 c 0,21,22
 129 753 129 753 184 919.5 c 128,-1,23
 239 1086 239 1086 342 1220 c 128,-1,24
 445 1354 445 1354 589.5 1432.5 c 128,-1,25
 734 1511 734 1511 913 1511 c 0,26,27
 1037 1511 1037 1511 1134.5 1472.5 c 128,-1,28
 1232 1434 1232 1434 1299.5 1365.5 c 128,-1,29
 1367 1297 1367 1297 1403.5 1208 c 128,-1,30
 1440 1119 1440 1119 1440 1019 c 1,31,-1
 1299 1019 l 1,32,33
 1295 1093 1295 1093 1267.5 1158.5 c 128,-1,34
 1240 1224 1240 1224 1191 1274 c 128,-1,35
 1142 1324 1142 1324 1071 1352.5 c 128,-1,36
 1000 1381 1000 1381 908 1381 c 0,37,38
 759 1381 759 1381 640.5 1312.5 c 128,-1,39
 522 1244 522 1244 438 1128.5 c 128,-1,40
 354 1013 354 1013 309.5 870.5 c 128,-1,41
 265 728 265 728 265 582 c 0,42,43
 265 362 265 362 377.5 235.5 c 128,-1,44
 490 109 490 109 686 109 c 0,45,46
 826 109 826 109 944 171.5 c 128,-1,47
 1062 234 1062 234 1141.5 347 c 128,-1,48
 1221 460 1221 460 1246 611 c 1,49,-1
 1289 598 l 1,50,-1
 813 598 l 1,51,-1
 834 722 l 1,52,-1
 1402 722 l 1,53,-1
 1380 595 l 2,54,55
 1356 456 1356 456 1294 343.5 c 128,-1,56
 1232 231 1232 231 1139 149 c 128,-1,57
 1046 67 1046 67 929.5 23 c 128,-1,58
 813 -21 813 -21 681 -21 c 0,17,18
EndSplineSet
Substitution2: "'c2sc' Capitals to Small Capitals in Latin lookup 67 subtable" uni0260.sc
Substitution2: "'cv10' Character Variants 10 in Latin lookup 64 subtable" uni0193.1
Substitution2: "'salt' Stylistic Alternatives in Latin lookup 46 subtable" uni0193.1
Substitution2: "'aalt' Access All Alternates in Latin lookup 0 subtable" uni0260.sc
Position2: "'cpsp' Capital Spacing in Latin lookup 0 subtable" dx=0 dy=0 dh=0 dv=0
EndChar

StartChar: G.1
Encoding: 57346 57346 151
AltUni2: 000047.ffffffff.0
Width: 1491
GlyphClass: 2
Flags: W
AnchorPoint: "Anchor-1" 917 1490 basechar 0
AnchorPoint: "Anchor-0" 655 0 basechar 0
LayerCount: 2
Fore
SplineSet
667 -21 m 0,0,1
 476 -21 476 -21 345 75 c 128,-1,2
 214 171 214 171 159.5 343.5 c 128,-1,3
 105 516 105 516 142 744 c 0,4,5
 171 917 171 917 242 1058.5 c 128,-1,6
 313 1200 313 1200 416.5 1301.5 c 128,-1,7
 520 1403 520 1403 648.5 1457 c 128,-1,8
 777 1511 777 1511 921 1511 c 0,9,10
 1044 1511 1044 1511 1139.5 1472.5 c 128,-1,11
 1235 1434 1235 1434 1302 1365 c 128,-1,12
 1369 1296 1369 1296 1404 1207 c 128,-1,13
 1439 1118 1439 1118 1441 1019 c 1,14,-1
 1299 1019 l 1,15,16
 1293 1093 1293 1093 1264.5 1158.5 c 128,-1,17
 1236 1224 1236 1224 1185.5 1274 c 128,-1,18
 1135 1324 1135 1324 1063 1352.5 c 128,-1,19
 991 1381 991 1381 899 1381 c 0,20,21
 750 1381 750 1381 620.5 1303.5 c 128,-1,22
 491 1226 491 1226 401.5 1083 c 128,-1,23
 312 940 312 940 280 745 c 0,24,25
 247 551 247 551 289.5 408 c 128,-1,26
 332 265 332 265 436.5 187 c 128,-1,27
 541 109 541 109 695 109 c 0,28,29
 834 109 834 109 950.5 171.5 c 128,-1,30
 1067 234 1067 234 1146 349 c 128,-1,31
 1225 464 1225 464 1251 622 c 1,32,-1
 1322 622 l 1,33,-1
 1308 535 l 2,34,35
 1292 423 1292 423 1240 322.5 c 128,-1,36
 1188 222 1188 222 1104.5 145 c 128,-1,37
 1021 68 1021 68 911 23.5 c 128,-1,38
 801 -21 801 -21 667 -21 c 0,0,1
1169 0 m 1,39,-1
 1195 281 l 1,40,-1
 1252 598 l 1,41,-1
 813 598 l 1,42,-1
 833 722 l 1,43,-1
 1401 722 l 1,44,-1
 1282 0 l 1,45,-1
 1169 0 l 1,39,-1
EndSplineSet
Substitution2: "'ss06' Style Set 6 in Latin lookup 52 subtable" G.1.squared
EndChar

StartChar: uni0193.1
Encoding: 57348 57348 153
AltUni2: 000193.ffffffff.0
Width: 1491
GlyphClass: 2
Flags: W
AnchorPoint: "Anchor-1" 917 1490 basechar 0
AnchorPoint: "Anchor-0" 655 0 basechar 0
LayerCount: 2
Fore
SplineSet
1332 1034 m 1,0,-1
 1383 1446 l 2,1,2
 1392 1526 1392 1526 1430.5 1577.5 c 128,-1,3
 1469 1629 1469 1629 1531.5 1654 c 128,-1,4
 1594 1679 1594 1679 1673 1679 c 0,5,6
 1700 1679 1700 1679 1723.5 1678.5 c 128,-1,7
 1747 1678 1747 1678 1764 1676 c 1,8,-1
 1746 1561 l 1,9,10
 1729 1562 1729 1562 1705.5 1562.5 c 128,-1,11
 1682 1563 1682 1563 1669 1563 c 0,12,13
 1596 1563 1596 1563 1558 1535.5 c 128,-1,14
 1520 1508 1520 1508 1510 1446 c 2,15,-1
 1440 1019 l 1,16,-1
 1332 1034 l 1,0,-1
667 -21 m 0,17,18
 476 -21 476 -21 345 75 c 128,-1,19
 214 171 214 171 159.5 343.5 c 128,-1,20
 105 516 105 516 142 744 c 0,21,22
 171 917 171 917 242 1058.5 c 128,-1,23
 313 1200 313 1200 416.5 1301.5 c 128,-1,24
 520 1403 520 1403 648.5 1457 c 128,-1,25
 777 1511 777 1511 921 1511 c 0,26,27
 1044 1511 1044 1511 1139.5 1472.5 c 128,-1,28
 1235 1434 1235 1434 1302 1365 c 128,-1,29
 1369 1296 1369 1296 1404 1207 c 128,-1,30
 1439 1118 1439 1118 1441 1019 c 1,31,-1
 1299 1019 l 1,32,33
 1293 1093 1293 1093 1264.5 1158.5 c 128,-1,34
 1236 1224 1236 1224 1185.5 1274 c 128,-1,35
 1135 1324 1135 1324 1063 1352.5 c 128,-1,36
 991 1381 991 1381 899 1381 c 0,37,38
 750 1381 750 1381 620.5 1303.5 c 128,-1,39
 491 1226 491 1226 401.5 1083 c 128,-1,40
 312 940 312 940 280 745 c 0,41,42
 247 551 247 551 289.5 408 c 128,-1,43
 332 265 332 265 436.5 187 c 128,-1,44
 541 109 541 109 695 109 c 0,45,46
 834 109 834 109 950.5 171.5 c 128,-1,47
 1067 234 1067 234 1146 349 c 128,-1,48
 1225 464 1225 464 1251 622 c 1,49,-1
 1322 622 l 1,50,-1
 1308 535 l 2,51,52
 1292 423 1292 423 1240 322.5 c 128,-1,53
 1188 222 1188 222 1104.5 145 c 128,-1,54
 1021 68 1021 68 911 23.5 c 128,-1,55
 801 -21 801 -21 667 -21 c 0,17,18
1169 0 m 1,56,-1
 1195 281 l 1,57,-1
 1252 598 l 1,58,-1
 813 598 l 1,59,-1
 833 722 l 1,60,-1
 1401 722 l 1,61,-1
 1282 0 l 1,62,-1
 1169 0 l 1,56,-1
EndSplineSet
EndChar

StartChar: H
Encoding: 72 72 161
Width: 1472
GlyphClass: 2
Flags: W
AnchorPoint: "Anchor-3" 158 0 basechar 0
AnchorPoint: "Anchor-1" 893 1490 basechar 0
AnchorPoint: "Anchor-0" 646 0 basechar 0
LayerCount: 2
Fore
SplineSet
86 0 m 1,0,-1
 333 1490 l 1,1,-1
 472 1490 l 1,2,-1
 362 825 l 1,3,-1
 1203 825 l 1,4,-1
 1314 1490 l 1,5,-1
 1452 1490 l 1,6,-1
 1205 0 l 1,7,-1
 1067 0 l 1,8,-1
 1183 700 l 1,9,-1
 342 700 l 1,10,-1
 225 0 l 1,11,-1
 86 0 l 1,0,-1
EndSplineSet
Substitution2: "'c2sc' Capitals to Small Capitals in Latin lookup 67 subtable" h.sc
Substitution2: "'ss06' Style Set 6 in Latin lookup 52 subtable" H.squared
Substitution2: "'ss05' Style Set 5 in Latin lookup 51 subtable" uni24BD
Substitution2: "'aalt' Access All Alternates in Latin lookup 0 subtable" h.sc
Position2: "'cpsp' Capital Spacing in Latin lookup 0 subtable" dx=0 dy=0 dh=0 dv=0
EndChar

StartChar: Hbar
Encoding: 294 294 169
Width: 1517
GlyphClass: 2
Flags: W
AnchorPoint: "Anchor-3" 182 0 basechar 0
AnchorPoint: "Anchor-1" 918 1490 basechar 0
AnchorPoint: "Anchor-0" 671 0 basechar 0
LayerCount: 2
Fore
SplineSet
1535 1144 m 1,0,-1
 1516 1027 l 1,1,-1
 162 1027 l 1,2,-1
 181 1144 l 1,3,-1
 1535 1144 l 1,0,-1
110 0 m 1,4,-1
 357 1490 l 1,5,-1
 497 1490 l 1,6,-1
 386 825 l 1,7,-1
 1228 825 l 1,8,-1
 1338 1490 l 1,9,-1
 1477 1490 l 1,10,-1
 1230 0 l 1,11,-1
 1091 0 l 1,12,-1
 1207 700 l 1,13,-1
 366 700 l 1,14,-1
 250 0 l 1,15,-1
 110 0 l 1,4,-1
EndSplineSet
Position2: "'cpsp' Capital Spacing in Latin lookup 0 subtable" dx=0 dy=0 dh=0 dv=0
EndChar

StartChar: uni04C7
Encoding: 1223 1223 170
Width: 1472
GlyphClass: 2
Flags: W
AnchorPoint: "Anchor-3" 158 0 basechar 0
AnchorPoint: "Anchor-1" 893 1490 basechar 0
AnchorPoint: "Anchor-0" 646 0 basechar 0
LayerCount: 2
Fore
SplineSet
789 -418 m 1,0,-1
 808 -297 l 1,1,2
 825 -299 825 -299 848.5 -299 c 128,-1,3
 872 -299 872 -299 885 -299 c 0,4,5
 959 -299 959 -299 993 -271 c 128,-1,6
 1027 -243 1027 -243 1037 -181 c 2,7,-1
 1088 128 l 1,8,-1
 1226 128 l 1,9,-1
 1175 -186 l 2,10,11
 1155 -302 1155 -302 1081 -361 c 128,-1,12
 1007 -420 1007 -420 883 -420 c 0,13,14
 856 -420 856 -420 830.5 -419.5 c 128,-1,15
 805 -419 805 -419 789 -418 c 1,0,-1
86 0 m 1,16,-1
 333 1490 l 1,17,-1
 472 1490 l 1,18,-1
 362 825 l 1,19,-1
 1203 825 l 1,20,-1
 1314 1490 l 1,21,-1
 1452 1490 l 1,22,-1
 1205 0 l 1,23,-1
 1067 0 l 1,24,-1
 1183 700 l 1,25,-1
 342 700 l 1,26,-1
 225 0 l 1,27,-1
 86 0 l 1,16,-1
EndSplineSet
Position2: "'cpsp' Capital Spacing in Latin lookup 0 subtable" dx=0 dy=0 dh=0 dv=0
EndChar

StartChar: uni04A4
Encoding: 1188 1188 173
Width: 1958
GlyphClass: 2
Flags: W
AnchorPoint: "Anchor-3" 158 0 basechar 0
AnchorPoint: "Anchor-1" 893 1490 basechar 0
AnchorPoint: "Anchor-0" 646 0 basechar 0
LayerCount: 2
Fore
SplineSet
2034 1490 m 1,0,-1
 2014 1367 l 1,1,-1
 1383 1367 l 1,2,-1
 1318 1490 l 1,3,-1
 2034 1490 l 1,0,-1
86 0 m 1,4,-1
 333 1490 l 1,5,-1
 472 1490 l 1,6,-1
 362 825 l 1,7,-1
 1203 825 l 1,8,-1
 1314 1490 l 1,9,-1
 1452 1490 l 1,10,-1
 1205 0 l 1,11,-1
 1067 0 l 1,12,-1
 1183 700 l 1,13,-1
 342 700 l 1,14,-1
 225 0 l 1,15,-1
 86 0 l 1,4,-1
EndSplineSet
Position2: "'cpsp' Capital Spacing in Latin lookup 0 subtable" dx=0 dy=0 dh=0 dv=0
EndChar

StartChar: uni01F6
Encoding: 502 502 174
Width: 2198
Flags: W
LayerCount: 2
Fore
SplineSet
1521 -20 m 0,0,1
 1385 -20 1385 -20 1290.5 33.5 c 128,-1,2
 1196 87 1196 87 1155.5 188 c 128,-1,3
 1115 289 1115 289 1138 431 c 2,4,-1
 1182 692 l 1,5,-1
 340 692 l 1,6,-1
 225 0 l 1,7,-1
 86 0 l 1,8,-1
 333 1490 l 1,9,-1
 472 1490 l 1,10,-1
 361 817 l 1,11,-1
 1202 817 l 1,12,-1
 1313 1490 l 1,13,-1
 1453 1490 l 1,14,-1
 1276 424 l 2,15,16
 1249 265 1249 265 1315.5 185.5 c 128,-1,17
 1382 106 1382 106 1525 106 c 0,18,19
 1625 106 1625 106 1701.5 143.5 c 128,-1,20
 1778 181 1778 181 1827.5 254.5 c 128,-1,21
 1877 328 1877 328 1895 434 c 2,22,-1
 2004 1091 l 1,23,-1
 2139 1091 l 1,24,-1
 2029 422 l 2,25,26
 2005 277 2005 277 1933.5 179 c 128,-1,27
 1862 81 1862 81 1755.5 30.5 c 128,-1,28
 1649 -20 1649 -20 1521 -20 c 0,0,1
EndSplineSet
Position2: "'cpsp' Capital Spacing in Latin lookup 0 subtable" dx=0 dy=0 dh=0 dv=0
EndChar

StartChar: I
Encoding: 73 73 197
Width: 492
GlyphClass: 2
Flags: W
AnchorPoint: "Anchor-4" 225 0 basechar 0
AnchorPoint: "Anchor-1" 403 1490 basechar 0
AnchorPoint: "Anchor-0" 156 0 basechar 0
LayerCount: 2
Fore
SplineSet
472 1490 m 1,0,-1
 225 0 l 1,1,-1
 86 0 l 1,2,-1
 333 1490 l 1,3,-1
 472 1490 l 1,0,-1
EndSplineSet
Substitution2: "'c2sc' Capitals to Small Capitals in Latin lookup 67 subtable" i.sc
Substitution2: "'cv08' Character Variants 08 in Latin lookup 62 subtable" I.1
Substitution2: "'ss06' Style Set 6 in Latin lookup 52 subtable" I.squared
Substitution2: "'ss05' Style Set 5 in Latin lookup 51 subtable" uni24BE
Substitution2: "'ss04' Style Set 4 in Latin lookup 50 subtable" I.1
Substitution2: "'ss02' Style Set 2 in Latin lookup 48 subtable" I.1
Substitution2: "'salt' Stylistic Alternatives in Latin lookup 46 subtable" I.1
Substitution2: "'aalt' Access All Alternates in Latin lookup 0 subtable" i.sc
Position2: "'cpsp' Capital Spacing in Latin lookup 0 subtable" dx=0 dy=0 dh=0 dv=0
EndChar

StartChar: I.1
Encoding: 57356 57356 235
Width: 746
GlyphClass: 2
Flags: W
AnchorPoint: "Anchor-4" 567 0 basechar 0
AnchorPoint: "Anchor-1" 530 1490 basechar 0
AnchorPoint: "Anchor-0" 283 0 basechar 0
LayerCount: 2
Fore
SplineSet
-1 0 m 1,0,-1
 20 125 l 1,1,-1
 234 125 l 1,2,-1
 440 1365 l 1,3,-1
 226 1365 l 1,4,-1
 246 1490 l 1,5,-1
 814 1490 l 1,6,-1
 792 1365 l 1,7,-1
 578 1365 l 1,8,-1
 373 125 l 1,9,-1
 587 125 l 1,10,-1
 567 0 l 1,11,-1
 -1 0 l 1,0,-1
EndSplineSet
EndChar

StartChar: J
Encoding: 74 74 267
Width: 1119
GlyphClass: 2
Flags: W
AnchorPoint: "Anchor-1" 1042 1490 basechar 0
LayerCount: 2
Fore
SplineSet
447 -20 m 0,0,1
 278 -20 278 -20 176.5 70 c 128,-1,2
 75 160 75 160 75 325 c 0,3,4
 75 339 75 339 76 357 c 128,-1,5
 77 375 77 375 81.5 407 c 128,-1,6
 86 439 86 439 95 491 c 1,7,-1
 233 491 l 1,8,9
 225 440 225 440 221 411 c 128,-1,10
 217 382 217 382 216 367 c 128,-1,11
 215 352 215 352 215 340 c 0,12,13
 215 227 215 227 277.5 166 c 128,-1,14
 340 105 340 105 455 105 c 0,15,16
 585 105 585 105 677.5 185 c 128,-1,17
 770 265 770 265 795 415 c 2,18,-1
 973 1490 l 1,19,-1
 1112 1490 l 1,20,-1
 934 415 l 2,21,22
 900 209 900 209 769 94.5 c 128,-1,23
 638 -20 638 -20 447 -20 c 0,0,1
EndSplineSet
Substitution2: "'ss06' Style Set 6 in Latin lookup 52 subtable" J.squared
Substitution2: "'ss05' Style Set 5 in Latin lookup 51 subtable" uni24BF
Position2: "'cpsp' Capital Spacing in Latin lookup 0 subtable" dx=0 dy=0 dh=0 dv=0
EndChar

StartChar: K
Encoding: 75 75 272
Width: 1283
GlyphClass: 2
Flags: W
AnchorPoint: "Anchor-1" 823 1490 basechar 0
AnchorPoint: "Anchor-0" 576 0 basechar 0
LayerCount: 2
Fore
SplineSet
261 463 m 1,0,-1
 277 626 l 1,1,2
 342 690 342 690 405 749.5 c 128,-1,3
 468 809 468 809 530.5 868.5 c 128,-1,4
 593 928 593 928 659 989 c 2,5,-1
 1208 1490 l 1,6,-1
 1396 1490 l 1,7,-1
 656 816 l 1,8,-1
 645 813 l 1,9,-1
 261 463 l 1,0,-1
86 0 m 1,10,-1
 333 1490 l 1,11,-1
 473 1490 l 1,12,-1
 386 971 l 1,13,-1
 329 635 l 1,14,-1
 318 565 l 1,15,-1
 226 0 l 1,16,-1
 86 0 l 1,10,-1
996 0 m 1,17,-1
 568 784 l 1,18,-1
 662 889 l 1,19,-1
 1150 0 l 1,20,-1
 996 0 l 1,17,-1
EndSplineSet
Substitution2: "'ss06' Style Set 6 in Latin lookup 52 subtable" K.squared
Substitution2: "'ss05' Style Set 5 in Latin lookup 51 subtable" uni24C0
Position2: "'cpsp' Capital Spacing in Latin lookup 0 subtable" dx=0 dy=0 dh=0 dv=0
EndChar

StartChar: uni04A0
Encoding: 1184 1184 278
Width: 1647
GlyphClass: 2
Flags: W
AnchorPoint: "Anchor-1" 1153 1490 basechar 0
LayerCount: 2
Fore
SplineSet
746 1490 m 1,0,-1
 725 1368 l 1,1,-1
 219 1368 l 1,2,-1
 239 1490 l 1,3,-1
 746 1490 l 1,0,-1
430 0 m 1,4,-1
 677 1490 l 1,5,-1
 815 1490 l 1,6,-1
 705 822 l 1,7,-1
 938 822 l 1,8,-1
 1567 1490 l 1,9,-1
 1738 1490 l 1,10,-1
 1051 766 l 1,11,-1
 1515 0 l 1,12,-1
 1354 0 l 1,13,-1
 933 697 l 1,14,-1
 684 697 l 1,15,-1
 568 0 l 1,16,-1
 430 0 l 1,4,-1
EndSplineSet
Position2: "'cpsp' Capital Spacing in Latin lookup 0 subtable" dx=0 dy=0 dh=0 dv=0
EndChar

StartChar: uni0198
Encoding: 408 408 280
Width: 1327
Flags: W
LayerCount: 2
Fore
SplineSet
87 0 m 1,0,-1
 333 1490 l 1,1,-1
 472 1490 l 1,2,-1
 340 690 l 1,3,-1
 353 690 l 1,4,-1
 1126 1410 l 2,5,6
 1186 1465 1186 1465 1249.5 1487.5 c 128,-1,7
 1313 1510 1313 1510 1372.5 1501 c 128,-1,8
 1432 1492 1432 1492 1480 1452 c 1,9,-1
 1405 1350 l 1,10,11
 1360 1382 1360 1382 1310 1374 c 128,-1,12
 1260 1366 1260 1366 1199 1309 c 2,13,-1
 644 801 l 1,14,-1
 1168 0 l 1,15,-1
 999 0 l 1,16,-1
 541 703 l 1,17,-1
 306 482 l 1,18,-1
 226 0 l 1,19,-1
 87 0 l 1,0,-1
EndSplineSet
Position2: "'cpsp' Capital Spacing in Latin lookup 0 subtable" dx=0 dy=0 dh=0 dv=0
EndChar

StartChar: L
Encoding: 76 76 282
Width: 1118
GlyphClass: 2
Flags: W
AnchorPoint: "Anchor-1" 403 1490 basechar 0
AnchorPoint: "Anchor-0" 510 0 basechar 0
LayerCount: 2
Fore
SplineSet
86 0 m 1,0,-1
 333 1490 l 1,1,-1
 472 1490 l 1,2,-1
 246 125 l 1,3,-1
 968 125 l 1,4,-1
 947 0 l 1,5,-1
 86 0 l 1,0,-1
EndSplineSet
Substitution2: "'c2sc' Capitals to Small Capitals in Latin lookup 67 subtable" l.sc
Substitution2: "'ss06' Style Set 6 in Latin lookup 52 subtable" L.squared
Substitution2: "'ss05' Style Set 5 in Latin lookup 51 subtable" uni24C1
Substitution2: "'aalt' Access All Alternates in Latin lookup 0 subtable" l.sc
Position2: "'cpsp' Capital Spacing in Latin lookup 0 subtable" dx=0 dy=0 dh=0 dv=0
EndChar

StartChar: M
Encoding: 77 77 293
Width: 1792
GlyphClass: 2
Flags: W
AnchorPoint: "Anchor-1" 1051 1490 basechar 0
AnchorPoint: "Anchor-0" 805 0 basechar 0
LayerCount: 2
Fore
SplineSet
86 0 m 1,0,-1
 333 1490 l 1,1,-1
 525 1490 l 1,2,-1
 774 460 l 2,3,4
 782 426 782 426 791 382 c 128,-1,5
 800 338 800 338 810 290 c 128,-1,6
 820 242 820 242 828 196 c 128,-1,7
 836 150 836 150 843 113 c 1,8,-1
 808 117 l 1,9,10
 827 156 827 156 851 201.5 c 128,-1,11
 875 247 875 247 900 295 c 128,-1,12
 925 343 925 343 948 386.5 c 128,-1,13
 971 430 971 430 990 463 c 2,14,-1
 1578 1490 l 1,15,-1
 1773 1490 l 1,16,-1
 1525 0 l 1,17,-1
 1389 0 l 1,18,-1
 1546 953 l 2,19,20
 1554 999 1554 999 1563 1051.5 c 128,-1,21
 1572 1104 1572 1104 1582 1159 c 128,-1,22
 1592 1214 1592 1214 1602.5 1268.5 c 128,-1,23
 1613 1323 1613 1323 1622 1373 c 1,24,-1
 1640 1369 l 1,25,26
 1609 1309 1609 1309 1577.5 1249.5 c 128,-1,27
 1546 1190 1546 1190 1516.5 1135 c 128,-1,28
 1487 1080 1487 1080 1461.5 1032.5 c 128,-1,29
 1436 985 1436 985 1414 949 c 2,30,-1
 866 0 l 1,31,-1
 747 0 l 1,32,-1
 511 952 l 2,33,34
 499 1001 499 1001 484.5 1067.5 c 128,-1,35
 470 1134 470 1134 454 1212.5 c 128,-1,36
 438 1291 438 1291 420 1373 c 1,37,-1
 442 1369 l 1,38,39
 434 1317 434 1317 426 1262 c 128,-1,40
 418 1207 418 1207 409.5 1152.5 c 128,-1,41
 401 1098 401 1098 393.5 1046 c 128,-1,42
 386 994 386 994 378 949 c 2,43,-1
 222 0 l 1,44,-1
 86 0 l 1,0,-1
EndSplineSet
Substitution2: "'c2sc' Capitals to Small Capitals in Latin lookup 67 subtable" m.sc
Substitution2: "'ss06' Style Set 6 in Latin lookup 52 subtable" M.squared
Substitution2: "'ss05' Style Set 5 in Latin lookup 51 subtable" uni24C2
Substitution2: "'aalt' Access All Alternates in Latin lookup 0 subtable" m.sc
Position2: "'cpsp' Capital Spacing in Latin lookup 0 subtable" dx=0 dy=0 dh=0 dv=0
EndChar

StartChar: N
Encoding: 78 78 301
Width: 1505
GlyphClass: 2
Flags: W
AnchorPoint: "Anchor-1" 910 1490 basechar 0
AnchorPoint: "Anchor-0" 663 0 basechar 0
LayerCount: 2
Fore
SplineSet
86 0 m 1,0,-1
 333 1490 l 1,1,-1
 485 1490 l 1,2,-1
 999 473 l 2,3,4
 1019 434 1019 434 1044 381.5 c 128,-1,5
 1069 329 1069 329 1096.5 266.5 c 128,-1,6
 1124 204 1124 204 1150 138 c 1,7,-1
 1131 126 l 1,8,9
 1138 189 1138 189 1146.5 256 c 128,-1,10
 1155 323 1155 323 1164.5 384 c 128,-1,11
 1174 445 1174 445 1180 488 c 2,12,-1
 1347 1490 l 1,13,-1
 1486 1490 l 1,14,-1
 1239 0 l 1,15,-1
 1088 0 l 1,16,-1
 606 946 l 2,17,18
 583 994 583 994 555 1052 c 128,-1,19
 527 1110 527 1110 494 1184 c 128,-1,20
 461 1258 461 1258 420 1352 c 1,21,-1
 441 1368 l 1,22,23
 428 1271 428 1271 417.5 1192.5 c 128,-1,24
 407 1114 407 1114 398 1052.5 c 128,-1,25
 389 991 389 991 382 948 c 2,26,-1
 226 0 l 1,27,-1
 86 0 l 1,0,-1
EndSplineSet
Substitution2: "'c2sc' Capitals to Small Capitals in Latin lookup 67 subtable" n.sc
Substitution2: "'ss06' Style Set 6 in Latin lookup 52 subtable" N.squared
Substitution2: "'ss05' Style Set 5 in Latin lookup 51 subtable" uni24C3
Substitution2: "'aalt' Access All Alternates in Latin lookup 0 subtable" n.sc
Position2: "'cpsp' Capital Spacing in Latin lookup 0 subtable" dx=0 dy=0 dh=0 dv=0
EndChar

StartChar: Nhook
Encoding: 413 413 311
Width: 1505
GlyphClass: 2
Flags: W
AnchorPoint: "Anchor-1" 910 1490 basechar 0
AnchorPoint: "Anchor-0" 663 0 basechar 0
LayerCount: 2
Fore
SplineSet
-192 -418 m 1,0,-1
 -172 -297 l 1,1,2
 -155 -299 -155 -299 -132 -299 c 128,-1,3
 -109 -299 -109 -299 -96 -299 c 0,4,5
 -22 -299 -22 -299 12.5 -271 c 128,-1,6
 47 -243 47 -243 56 -181 c 2,7,-1
 107 128 l 1,8,-1
 246 128 l 1,9,-1
 194 -186 l 2,10,11
 174 -302 174 -302 100.5 -361 c 128,-1,12
 27 -420 27 -420 -97 -420 c 0,13,14
 -125 -420 -125 -420 -150 -419.5 c 128,-1,15
 -175 -419 -175 -419 -192 -418 c 1,0,-1
86 0 m 1,16,-1
 333 1490 l 1,17,-1
 485 1490 l 1,18,-1
 999 473 l 2,19,20
 1019 434 1019 434 1044 381.5 c 128,-1,21
 1069 329 1069 329 1096.5 266.5 c 128,-1,22
 1124 204 1124 204 1150 138 c 1,23,-1
 1131 126 l 1,24,25
 1138 189 1138 189 1146.5 256 c 128,-1,26
 1155 323 1155 323 1164.5 384 c 128,-1,27
 1174 445 1174 445 1180 488 c 2,28,-1
 1347 1490 l 1,29,-1
 1486 1490 l 1,30,-1
 1239 0 l 1,31,-1
 1088 0 l 1,32,-1
 606 946 l 2,33,34
 583 994 583 994 555 1052 c 128,-1,35
 527 1110 527 1110 494 1184 c 128,-1,36
 461 1258 461 1258 420 1352 c 1,37,-1
 441 1368 l 1,38,39
 428 1271 428 1271 417.5 1192.5 c 128,-1,40
 407 1114 407 1114 398 1052.5 c 128,-1,41
 389 991 389 991 382 948 c 2,42,-1
 226 0 l 1,43,-1
 86 0 l 1,16,-1
EndSplineSet
Position2: "'cpsp' Capital Spacing in Latin lookup 0 subtable" dx=0 dy=0 dh=0 dv=0
EndChar

StartChar: Eng
Encoding: 330 330 312
Width: 1505
GlyphClass: 2
Flags: W
AnchorPoint: "Anchor-1" 910 1490 basechar 0
AnchorPoint: "Anchor-0" 663 0 basechar 0
LayerCount: 2
Fore
SplineSet
825 -418 m 1,0,-1
 845 -297 l 1,1,2
 862 -299 862 -299 885.5 -299 c 128,-1,3
 909 -299 909 -299 922 -299 c 0,4,5
 996 -299 996 -299 1030 -271 c 128,-1,6
 1064 -243 1064 -243 1073 -181 c 2,7,-1
 1124 128 l 1,8,-1
 1263 128 l 1,9,-1
 1212 -186 l 2,10,11
 1192 -302 1192 -302 1118 -361 c 128,-1,12
 1044 -420 1044 -420 920 -420 c 0,13,14
 893 -420 893 -420 867.5 -419.5 c 128,-1,15
 842 -419 842 -419 825 -418 c 1,0,-1
86 0 m 1,16,-1
 333 1490 l 1,17,-1
 485 1490 l 1,18,-1
 999 473 l 2,19,20
 1019 434 1019 434 1044 381.5 c 128,-1,21
 1069 329 1069 329 1096.5 266.5 c 128,-1,22
 1124 204 1124 204 1150 138 c 1,23,-1
 1131 126 l 1,24,25
 1138 189 1138 189 1146.5 256 c 128,-1,26
 1155 323 1155 323 1164.5 384 c 128,-1,27
 1174 445 1174 445 1180 488 c 2,28,-1
 1347 1490 l 1,29,-1
 1486 1490 l 1,30,-1
 1239 0 l 1,31,-1
 1088 0 l 1,32,-1
 606 946 l 2,33,34
 583 994 583 994 555 1052 c 128,-1,35
 527 1110 527 1110 494 1184 c 128,-1,36
 461 1258 461 1258 420 1352 c 1,37,-1
 441 1368 l 1,38,39
 428 1271 428 1271 417.5 1192.5 c 128,-1,40
 407 1114 407 1114 398 1052.5 c 128,-1,41
 389 991 389 991 382 948 c 2,42,-1
 226 0 l 1,43,-1
 86 0 l 1,16,-1
EndSplineSet
Position2: "'cpsp' Capital Spacing in Latin lookup 0 subtable" dx=0 dy=0 dh=0 dv=0
EndChar

StartChar: uni0418
Encoding: 1048 1048 313
Width: 1505
GlyphClass: 2
Flags: W
AnchorPoint: "Anchor-1" 913 1490 basechar 0
AnchorPoint: "Anchor-0" 663 0 basechar 0
LayerCount: 2
Fore
SplineSet
1239 0 m 1,0,-1
 1100 0 l 1,1,-1
 1257 948 l 2,2,3
 1265 991 1265 991 1276.5 1053 c 128,-1,4
 1288 1115 1288 1115 1303 1194 c 128,-1,5
 1318 1273 1318 1273 1337 1368 c 1,6,-1
 1359 1347 l 1,7,8
 1288 1253 1288 1253 1230.5 1179 c 128,-1,9
 1173 1105 1173 1105 1126 1046.5 c 128,-1,10
 1079 988 1079 988 1040 941 c 2,11,-1
 247 0 l 1,12,-1
 86 0 l 1,13,-1
 333 1490 l 1,14,-1
 473 1490 l 1,15,-1
 306 488 l 2,16,17
 298 443 298 443 287.5 382.5 c 128,-1,18
 277 322 277 322 263.5 256 c 128,-1,19
 250 190 250 190 236 126 c 1,20,-1
 217 146 l 1,21,22
 264 210 264 210 311 271.5 c 128,-1,23
 358 333 358 333 400.5 386 c 128,-1,24
 443 439 443 439 477 478 c 2,25,-1
 1326 1490 l 1,26,-1
 1486 1490 l 1,27,-1
 1239 0 l 1,0,-1
EndSplineSet
Position2: "'cpsp' Capital Spacing in Latin lookup 0 subtable" dx=0 dy=0 dh=0 dv=0
EndChar

StartChar: O
Encoding: 79 79 322
Width: 1523
GlyphClass: 2
Flags: W
AnchorPoint: "Anchor-4" 1460 911 basechar 0
AnchorPoint: "Anchor-1" 918 1490 basechar 0
AnchorPoint: "Anchor-0" 672 0 basechar 0
LayerCount: 2
Fore
SplineSet
677 -21 m 0,0,1
 509 -21 509 -21 386 53 c 128,-1,2
 263 127 263 127 196 262 c 128,-1,3
 129 397 129 397 129 579 c 0,4,5
 129 754 129 754 184.5 920.5 c 128,-1,6
 240 1087 240 1087 343.5 1220 c 128,-1,7
 447 1353 447 1353 591.5 1432 c 128,-1,8
 736 1511 736 1511 914 1511 c 0,9,10
 1081 1511 1081 1511 1203.5 1437 c 128,-1,11
 1326 1363 1326 1363 1393 1229 c 128,-1,12
 1460 1095 1460 1095 1460 911 c 0,13,14
 1460 736 1460 736 1404.5 569.5 c 128,-1,15
 1349 403 1349 403 1246 269.5 c 128,-1,16
 1143 136 1143 136 999 57.5 c 128,-1,17
 855 -21 855 -21 677 -21 c 0,0,1
682 109 m 0,18,19
 830 109 830 109 948.5 177.5 c 128,-1,20
 1067 246 1067 246 1151 361 c 128,-1,21
 1235 476 1235 476 1279.5 618.5 c 128,-1,22
 1324 761 1324 761 1324 909 c 0,23,24
 1324 1059 1324 1059 1271.5 1164.5 c 128,-1,25
 1219 1270 1219 1270 1126 1325.5 c 128,-1,26
 1033 1381 1033 1381 909 1381 c 0,27,28
 760 1381 760 1381 641 1312.5 c 128,-1,29
 522 1244 522 1244 438.5 1128.5 c 128,-1,30
 355 1013 355 1013 310 870.5 c 128,-1,31
 265 728 265 728 265 581 c 0,32,33
 265 432 265 432 317.5 326.5 c 128,-1,34
 370 221 370 221 463.5 165 c 128,-1,35
 557 109 557 109 682 109 c 0,18,19
EndSplineSet
Substitution2: "'ss06' Style Set 6 in Latin lookup 52 subtable" O.squared
Substitution2: "'ss05' Style Set 5 in Latin lookup 51 subtable" uni24C4
Substitution2: "Single Substitution lookup 44 subtable" ordmasculine
Substitution2: "'aalt' Access All Alternates in Latin lookup 0 subtable" ordmasculine
Position2: "'cpsp' Capital Spacing in Latin lookup 0 subtable" dx=0 dy=0 dh=0 dv=0
EndChar

StartChar: Ohorn
Encoding: 416 416 326
Width: 1520
GlyphClass: 2
Flags: W
AnchorPoint: "Anchor-4" 1460 911 basechar 0
AnchorPoint: "Anchor-1" 918 1490 basechar 0
AnchorPoint: "Anchor-0" 672 0 basechar 0
LayerCount: 2
Fore
SplineSet
903 1408 m 1,0,-1
 920 1511 l 1,1,2
 969 1511 969 1511 1002.5 1509.5 c 128,-1,3
 1036 1508 1036 1508 1067.5 1504.5 c 128,-1,4
 1099 1501 1099 1501 1140 1498 c 128,-1,5
 1181 1495 1181 1495 1243.5 1492.5 c 128,-1,6
 1306 1490 1306 1490 1401 1490 c 0,7,8
 1439 1490 1439 1490 1445 1528 c 2,9,-1
 1475 1714 l 1,10,-1
 1604 1714 l 1,11,-1
 1574 1534 l 2,12,13
 1562 1458 1562 1458 1517 1419 c 128,-1,14
 1472 1380 1472 1380 1395 1380 c 0,15,16
 1340 1380 1340 1380 1296.5 1384.5 c 128,-1,17
 1253 1389 1253 1389 1202.5 1394.5 c 128,-1,18
 1152 1400 1152 1400 1081.5 1403.5 c 128,-1,19
 1011 1407 1011 1407 903 1408 c 1,0,-1
677 -21 m 0,20,21
 509 -21 509 -21 386 53 c 128,-1,22
 263 127 263 127 196 262 c 128,-1,23
 129 397 129 397 129 579 c 0,24,25
 129 754 129 754 184.5 920.5 c 128,-1,26
 240 1087 240 1087 343.5 1220 c 128,-1,27
 447 1353 447 1353 591.5 1432 c 128,-1,28
 736 1511 736 1511 914 1511 c 0,29,30
 1081 1511 1081 1511 1203.5 1437 c 128,-1,31
 1326 1363 1326 1363 1393 1229 c 128,-1,32
 1460 1095 1460 1095 1460 911 c 0,33,34
 1460 736 1460 736 1404.5 569.5 c 128,-1,35
 1349 403 1349 403 1246 269.5 c 128,-1,36
 1143 136 1143 136 999 57.5 c 128,-1,37
 855 -21 855 -21 677 -21 c 0,20,21
682 109 m 0,38,39
 830 109 830 109 948.5 177.5 c 128,-1,40
 1067 246 1067 246 1151 361 c 128,-1,41
 1235 476 1235 476 1279.5 618.5 c 128,-1,42
 1324 761 1324 761 1324 909 c 0,43,44
 1324 1059 1324 1059 1271.5 1164.5 c 128,-1,45
 1219 1270 1219 1270 1126 1325.5 c 128,-1,46
 1033 1381 1033 1381 909 1381 c 0,47,48
 760 1381 760 1381 641 1312.5 c 128,-1,49
 522 1244 522 1244 438.5 1128.5 c 128,-1,50
 355 1013 355 1013 310 870.5 c 128,-1,51
 265 728 265 728 265 581 c 0,52,53
 265 432 265 432 317.5 326.5 c 128,-1,54
 370 221 370 221 463.5 165 c 128,-1,55
 557 109 557 109 682 109 c 0,38,39
EndSplineSet
Position2: "'cpsp' Capital Spacing in Latin lookup 0 subtable" dx=0 dy=0 dh=0 dv=0
EndChar

StartChar: uni03F4
Encoding: 1012 1012 368
Width: 1523
GlyphClass: 2
Flags: W
AnchorPoint: "Anchor-4" 1460 911 basechar 0
AnchorPoint: "Anchor-1" 918 1490 basechar 0
AnchorPoint: "Anchor-0" 672 0 basechar 0
LayerCount: 2
Fore
SplineSet
1330 805 m 1,0,-1
 1318 683 l 1,1,-1
 244 683 l 1,2,-1
 256 805 l 1,3,-1
 1330 805 l 1,0,-1
677 -21 m 0,4,5
 509 -21 509 -21 386 53 c 128,-1,6
 263 127 263 127 196 262 c 128,-1,7
 129 397 129 397 129 579 c 0,8,9
 129 754 129 754 184.5 920.5 c 128,-1,10
 240 1087 240 1087 343.5 1220 c 128,-1,11
 447 1353 447 1353 591.5 1432 c 128,-1,12
 736 1511 736 1511 914 1511 c 0,13,14
 1081 1511 1081 1511 1203.5 1437 c 128,-1,15
 1326 1363 1326 1363 1393 1229 c 128,-1,16
 1460 1095 1460 1095 1460 911 c 0,17,18
 1460 736 1460 736 1404.5 569.5 c 128,-1,19
 1349 403 1349 403 1246 269.5 c 128,-1,20
 1143 136 1143 136 999 57.5 c 128,-1,21
 855 -21 855 -21 677 -21 c 0,4,5
682 109 m 0,22,23
 830 109 830 109 948.5 177.5 c 128,-1,24
 1067 246 1067 246 1151 361 c 128,-1,25
 1235 476 1235 476 1279.5 618.5 c 128,-1,26
 1324 761 1324 761 1324 909 c 0,27,28
 1324 1059 1324 1059 1271.5 1164.5 c 128,-1,29
 1219 1270 1219 1270 1126 1325.5 c 128,-1,30
 1033 1381 1033 1381 909 1381 c 0,31,32
 760 1381 760 1381 641 1312.5 c 128,-1,33
 522 1244 522 1244 438.5 1128.5 c 128,-1,34
 355 1013 355 1013 310 870.5 c 128,-1,35
 265 728 265 728 265 581 c 0,36,37
 265 432 265 432 317.5 326.5 c 128,-1,38
 370 221 370 221 463.5 165 c 128,-1,39
 557 109 557 109 682 109 c 0,22,23
EndSplineSet
Position2: "'cpsp' Capital Spacing in Latin lookup 0 subtable" dx=0 dy=0 dh=0 dv=0
EndChar

StartChar: OE
Encoding: 338 338 375
Width: 1946
GlyphClass: 2
Flags: W
AnchorPoint: "Anchor-4" 1751 0 basechar 0
AnchorPoint: "Anchor-3" 1297 0 basechar 0
AnchorPoint: "Anchor-1" 1541 1490 basechar 0
AnchorPoint: "Anchor-0" 1294 0 basechar 0
LayerCount: 2
Fore
SplineSet
680 0 m 2,0,1
 477 0 477 0 344 93 c 128,-1,2
 211 186 211 186 158.5 353.5 c 128,-1,3
 106 521 106 521 142 745 c 0,4,5
 180 972 180 972 288.5 1139 c 128,-1,6
 397 1306 397 1306 559 1398 c 128,-1,7
 721 1490 721 1490 920 1490 c 2,8,-1
 1145 1490 l 1,9,-1
 1124 1367 l 1,10,-1
 904 1367 l 2,11,12
 742 1368 742 1368 611 1291 c 128,-1,13
 480 1214 480 1214 392.5 1074.5 c 128,-1,14
 305 935 305 935 274 745 c 0,15,16
 243 557 243 557 283.5 417.5 c 128,-1,17
 324 278 324 278 430.5 200 c 128,-1,18
 537 122 537 122 705 122 c 2,19,-1
 916 122 l 1,20,-1
 895 0 l 1,21,-1
 680 0 l 2,0,1
836 0 m 1,22,-1
 1083 1490 l 1,23,-1
 1992 1490 l 1,24,-1
 1971 1366 l 1,25,-1
 1202 1366 l 1,26,-1
 1112 819 l 1,27,-1
 1825 819 l 1,28,-1
 1804 694 l 1,29,-1
 1091 694 l 1,30,-1
 996 125 l 1,31,-1
 1772 125 l 1,32,-1
 1751 0 l 1,33,-1
 836 0 l 1,22,-1
EndSplineSet
Substitution2: "'c2sc' Capitals to Small Capitals in Latin lookup 67 subtable" oe.sc
Substitution2: "'aalt' Access All Alternates in Latin lookup 0 subtable" oe.sc
Position2: "'cpsp' Capital Spacing in Latin lookup 0 subtable" dx=0 dy=0 dh=0 dv=0
EndChar

StartChar: P
Encoding: 80 80 376
Width: 1248
GlyphClass: 2
Flags: W
AnchorPoint: "Anchor-1" 782 1490 basechar 0
LayerCount: 2
Fore
SplineSet
86 0 m 1,0,-1
 333 1490 l 1,1,-1
 832 1490 l 2,2,3
 984 1490 984 1490 1082.5 1432.5 c 128,-1,4
 1181 1375 1181 1375 1221.5 1272 c 128,-1,5
 1262 1169 1262 1169 1241 1036 c 0,6,7
 1219 903 1219 903 1144.5 801.5 c 128,-1,8
 1070 700 1070 700 952.5 642.5 c 128,-1,9
 835 585 835 585 683 585 c 2,10,-1
 272 585 l 1,11,-1
 292 710 l 1,12,-1
 701 710 l 2,13,14
 813 710 813 710 897.5 751.5 c 128,-1,15
 982 793 982 793 1034.5 867.5 c 128,-1,16
 1087 942 1087 942 1102 1039 c 0,17,18
 1119 1136 1119 1136 1090.5 1209.5 c 128,-1,19
 1062 1283 1062 1283 991.5 1324.5 c 128,-1,20
 921 1366 921 1366 809 1366 c 2,21,-1
 451 1366 l 1,22,-1
 225 0 l 1,23,-1
 86 0 l 1,0,-1
EndSplineSet
Substitution2: "'ss06' Style Set 6 in Latin lookup 52 subtable" P.squared
Substitution2: "'ss05' Style Set 5 in Latin lookup 51 subtable" uni24C5
Position2: "'cpsp' Capital Spacing in Latin lookup 0 subtable" dx=0 dy=0 dh=0 dv=0
EndChar

StartChar: uni048E
Encoding: 1166 1166 379
Width: 1239
GlyphClass: 2
Flags: W
AnchorPoint: "Anchor-1" 779 1490 basechar 0
LayerCount: 2
Fore
SplineSet
862 943 m 1,0,-1
 1087 515 l 1,1,-1
 978 449 l 1,2,-1
 752 878 l 1,3,-1
 862 943 l 1,0,-1
84 0 m 1,4,-1
 331 1490 l 1,5,-1
 830 1490 l 2,6,7
 982 1490 982 1490 1080 1432.5 c 128,-1,8
 1178 1375 1178 1375 1219 1272 c 128,-1,9
 1260 1169 1260 1169 1238 1036 c 0,10,11
 1217 903 1217 903 1142.5 801.5 c 128,-1,12
 1068 700 1068 700 950 642.5 c 128,-1,13
 832 585 832 585 681 585 c 2,14,-1
 269 585 l 1,15,-1
 290 710 l 1,16,-1
 698 710 l 2,17,18
 811 710 811 710 895.5 751.5 c 128,-1,19
 980 793 980 793 1032.5 867.5 c 128,-1,20
 1085 942 1085 942 1100 1039 c 0,21,22
 1117 1136 1117 1136 1088.5 1209.5 c 128,-1,23
 1060 1283 1060 1283 989.5 1324.5 c 128,-1,24
 919 1366 919 1366 807 1366 c 2,25,-1
 449 1366 l 1,26,-1
 222 0 l 1,27,-1
 84 0 l 1,4,-1
EndSplineSet
Position2: "'cpsp' Capital Spacing in Latin lookup 0 subtable" dx=0 dy=0 dh=0 dv=0
EndChar

StartChar: uni01A4
Encoding: 420 420 380
Width: 1488
GlyphClass: 2
Flags: W
AnchorPoint: "Anchor-1" 1022 1490 basechar 0
LayerCount: 2
Fore
SplineSet
144 1094 m 1,0,-1
 167 1234 l 2,1,2
 188 1361 188 1361 264 1425.5 c 128,-1,3
 340 1490 340 1490 473 1490 c 2,4,-1
 573 1490 l 1,5,-1
 553 1366 l 1,6,-1
 453 1366 l 2,7,8
 383 1366 383 1366 345.5 1334 c 128,-1,9
 308 1302 308 1302 297 1232 c 2,10,-1
 274 1094 l 1,11,-1
 144 1094 l 1,0,-1
326 0 m 1,12,-1
 573 1490 l 1,13,-1
 1072 1490 l 2,14,15
 1224 1490 1224 1490 1322.5 1432.5 c 128,-1,16
 1421 1375 1421 1375 1461.5 1272 c 128,-1,17
 1502 1169 1502 1169 1481 1036 c 0,18,19
 1459 903 1459 903 1384.5 801.5 c 128,-1,20
 1310 700 1310 700 1192.5 642.5 c 128,-1,21
 1075 585 1075 585 923 585 c 2,22,-1
 512 585 l 1,23,-1
 532 710 l 1,24,-1
 941 710 l 2,25,26
 1053 710 1053 710 1137.5 751.5 c 128,-1,27
 1222 793 1222 793 1274.5 867.5 c 128,-1,28
 1327 942 1327 942 1342 1039 c 0,29,30
 1359 1136 1359 1136 1330.5 1209.5 c 128,-1,31
 1302 1283 1302 1283 1231.5 1324.5 c 128,-1,32
 1161 1366 1161 1366 1049 1366 c 2,33,-1
 691 1366 l 1,34,-1
 465 0 l 1,35,-1
 326 0 l 1,12,-1
EndSplineSet
Position2: "'cpsp' Capital Spacing in Latin lookup 0 subtable" dx=0 dy=0 dh=0 dv=0
EndChar

StartChar: Q
Encoding: 81 81 383
Width: 1523
GlyphClass: 2
Flags: W
AnchorPoint: "Anchor-4" 1460 911 basechar 0
AnchorPoint: "Anchor-1" 918 1490 basechar 0
AnchorPoint: "Anchor-0" 672 0 basechar 0
LayerCount: 2
Fore
SplineSet
750 466 m 1,0,-1
 889 466 l 1,1,-1
 1038 214 l 1,2,-1
 1062 171 l 1,3,-1
 1245 -140 l 1,4,-1
 1106 -140 l 1,5,-1
 973 89 l 1,6,-1
 948 130 l 1,7,-1
 750 466 l 1,0,-1
677 -21 m 0,8,9
 509 -21 509 -21 386 53 c 128,-1,10
 263 127 263 127 196 262 c 128,-1,11
 129 397 129 397 129 579 c 0,12,13
 129 754 129 754 184.5 920.5 c 128,-1,14
 240 1087 240 1087 343.5 1220 c 128,-1,15
 447 1353 447 1353 591.5 1432 c 128,-1,16
 736 1511 736 1511 914 1511 c 0,17,18
 1081 1511 1081 1511 1203.5 1437 c 128,-1,19
 1326 1363 1326 1363 1393 1229 c 128,-1,20
 1460 1095 1460 1095 1460 911 c 0,21,22
 1460 736 1460 736 1404.5 569.5 c 128,-1,23
 1349 403 1349 403 1246 269.5 c 128,-1,24
 1143 136 1143 136 999 57.5 c 128,-1,25
 855 -21 855 -21 677 -21 c 0,8,9
682 109 m 0,26,27
 830 109 830 109 948.5 177.5 c 128,-1,28
 1067 246 1067 246 1151 361 c 128,-1,29
 1235 476 1235 476 1279.5 618.5 c 128,-1,30
 1324 761 1324 761 1324 909 c 0,31,32
 1324 1059 1324 1059 1271.5 1164.5 c 128,-1,33
 1219 1270 1219 1270 1126 1325.5 c 128,-1,34
 1033 1381 1033 1381 909 1381 c 0,35,36
 760 1381 760 1381 641 1312.5 c 128,-1,37
 522 1244 522 1244 438.5 1128.5 c 128,-1,38
 355 1013 355 1013 310 870.5 c 128,-1,39
 265 728 265 728 265 581 c 0,40,41
 265 432 265 432 317.5 326.5 c 128,-1,42
 370 221 370 221 463.5 165 c 128,-1,43
 557 109 557 109 682 109 c 0,26,27
EndSplineSet
Substitution2: "'ss06' Style Set 6 in Latin lookup 52 subtable" Q.squared
Substitution2: "'ss05' Style Set 5 in Latin lookup 51 subtable" uni24C6
Position2: "'cpsp' Capital Spacing in Latin lookup 0 subtable" dx=0 dy=0 dh=0 dv=0
EndChar

StartChar: Q_rthook
Encoding: 586 586 384
Width: 1521
GlyphClass: 2
Flags: W
LayerCount: 2
Fore
SplineSet
1501 1490 m 1,0,-1
 1254 0 l 1,1,-1
 1122 0 l 1,2,-1
 1169 285 l 1,3,-1
 1163 285 l 1,4,5
 1080 137 1080 137 944.5 57 c 128,-1,6
 809 -23 809 -23 649 -23 c 0,7,8
 511 -23 511 -23 404.5 33.5 c 128,-1,9
 298 90 298 90 230 192 c 128,-1,10
 162 294 162 294 138.5 434 c 128,-1,11
 115 574 115 574 142 742 c 0,12,13
 170 910 170 910 239 1051 c 128,-1,14
 308 1192 308 1192 410 1295.5 c 128,-1,15
 512 1399 512 1399 638.5 1455 c 128,-1,16
 765 1511 765 1511 906 1511 c 0,17,18
 1066 1511 1066 1511 1174 1432 c 128,-1,19
 1282 1353 1282 1353 1316 1210 c 1,20,-1
 1322 1210 l 1,21,-1
 1369 1490 l 1,22,-1
 1501 1490 l 1,0,-1
675 109 m 0,23,24
 826 109 826 109 943 188.5 c 128,-1,25
 1060 268 1060 268 1138 411.5 c 128,-1,26
 1216 555 1216 555 1248 746 c 0,27,28
 1279 934 1279 934 1248 1078 c 128,-1,29
 1217 1222 1217 1222 1126.5 1302.5 c 128,-1,30
 1036 1383 1036 1383 887 1383 c 0,31,32
 739 1383 739 1383 612 1301.5 c 128,-1,33
 485 1220 485 1220 398 1076.5 c 128,-1,34
 311 933 311 933 280 745 c 0,35,36
 249 554 249 554 288.5 411 c 128,-1,37
 328 268 328 268 427.5 188.5 c 128,-1,38
 527 109 527 109 675 109 c 0,23,24
1305 -420 m 0,39,40
 1182 -420 1182 -420 1127 -362 c 128,-1,41
 1072 -304 1072 -304 1091 -186 c 2,42,-1
 1122 0 l 1,43,-1
 1254 0 l 1,44,-1
 1223 -186 l 2,45,46
 1213 -249 1213 -249 1240 -277 c 128,-1,47
 1267 -305 1267 -305 1339 -305 c 0,48,49
 1353 -305 1353 -305 1376.5 -304.5 c 128,-1,50
 1400 -304 1400 -304 1417 -303 c 1,51,-1
 1398 -418 l 1,52,53
 1380 -419 1380 -419 1356 -419.5 c 128,-1,54
 1332 -420 1332 -420 1305 -420 c 0,39,40
EndSplineSet
Position2: "'cpsp' Capital Spacing in Latin lookup 0 subtable" dx=0 dy=0 dh=0 dv=0
EndChar

StartChar: R
Encoding: 82 82 385
Width: 1279
GlyphClass: 2
Flags: W
AnchorPoint: "Anchor-1" 790 1490 basechar 0
AnchorPoint: "Anchor-0" 560 0 basechar 0
LayerCount: 2
Fore
SplineSet
86 0 m 1,0,-1
 333 1490 l 1,1,-1
 839 1490 l 2,2,3
 991 1490 991 1490 1089.5 1434 c 128,-1,4
 1188 1378 1188 1378 1229 1278 c 128,-1,5
 1270 1178 1270 1178 1247 1044 c 0,6,7
 1226 912 1226 912 1151.5 812.5 c 128,-1,8
 1077 713 1077 713 959 657.5 c 128,-1,9
 841 602 841 602 690 602 c 2,10,-1
 263 602 l 1,11,-1
 284 727 l 1,12,-1
 708 727 l 2,13,14
 819 727 819 727 903.5 766.5 c 128,-1,15
 988 806 988 806 1041 878 c 128,-1,16
 1094 950 1094 950 1110 1047 c 0,17,18
 1135 1196 1135 1196 1059 1281 c 128,-1,19
 983 1366 983 1366 818 1366 c 2,20,-1
 451 1366 l 1,21,-1
 225 0 l 1,22,-1
 86 0 l 1,0,-1
961 0 m 1,23,-1
 712 674 l 1,24,-1
 861 674 l 1,25,-1
 1114 0 l 1,26,-1
 961 0 l 1,23,-1
EndSplineSet
Substitution2: "'c2sc' Capitals to Small Capitals in Latin lookup 67 subtable" r.sc
Substitution2: "'ss06' Style Set 6 in Latin lookup 52 subtable" R.squared
Substitution2: "'ss05' Style Set 5 in Latin lookup 51 subtable" uni24C7
Substitution2: "'aalt' Access All Alternates in Latin lookup 0 subtable" r.sc
Position2: "'cpsp' Capital Spacing in Latin lookup 0 subtable" dx=0 dy=0 dh=0 dv=0
EndChar

StartChar: uni211F
Encoding: 8479 8479 395
Width: 1242
GlyphClass: 2
Flags: W
AnchorPoint: "Anchor-1" 788 1490 basechar 0
AnchorPoint: "Anchor-0" 558 0 basechar 0
LayerCount: 2
Fore
SplineSet
1158 1674 m 1,0,-1
 206 -344 l 1,1,-1
 119 -325 l 1,2,-1
 1036 1618 l 1,3,-1
 731 1723 l 1,4,-1
 779 1809 l 1,5,-1
 1158 1674 l 1,0,-1
84 0 m 1,6,-1
 331 1490 l 1,7,-1
 837 1490 l 2,8,9
 989 1490 989 1490 1087.5 1434 c 128,-1,10
 1186 1378 1186 1378 1227 1278 c 128,-1,11
 1268 1178 1268 1178 1245 1044 c 0,12,13
 1224 912 1224 912 1149.5 812.5 c 128,-1,14
 1075 713 1075 713 957 657.5 c 128,-1,15
 839 602 839 602 688 602 c 2,16,-1
 261 602 l 1,17,-1
 282 727 l 1,18,-1
 706 727 l 2,19,20
 817 727 817 727 901.5 766.5 c 128,-1,21
 986 806 986 806 1039 878 c 128,-1,22
 1092 950 1092 950 1108 1047 c 0,23,24
 1133 1196 1133 1196 1057 1281 c 128,-1,25
 981 1366 981 1366 816 1366 c 2,26,-1
 449 1366 l 1,27,-1
 223 0 l 1,28,-1
 84 0 l 1,6,-1
959 0 m 1,29,-1
 710 674 l 1,30,-1
 859 674 l 1,31,-1
 1112 0 l 1,32,-1
 959 0 l 1,29,-1
EndSplineSet
EndChar

StartChar: Rx
Encoding: 8478 8478 396
Width: 1294
Flags: W
LayerCount: 2
Fore
SplineSet
333 1490 m 1,0,-1
 813 1490 l 2,1,2
 973 1490 973 1490 1068.5 1431 c 128,-1,3
 1164 1372 1164 1372 1200 1270.5 c 128,-1,4
 1236 1169 1236 1169 1215 1042 c 0,5,6
 1195 924 1195 924 1135 833.5 c 128,-1,7
 1075 743 1075 743 982.5 686.5 c 128,-1,8
 890 630 890 630 772 610 c 1,9,-1
 728 599 l 1,10,-1
 288 599 l 1,11,-1
 310 728 l 1,12,-1
 674 728 l 2,13,14
 797 728 797 728 881.5 768 c 128,-1,15
 966 808 966 808 1014.5 879.5 c 128,-1,16
 1063 951 1063 951 1078 1043 c 0,17,18
 1089 1104 1089 1104 1081 1161 c 128,-1,19
 1073 1218 1073 1218 1041.5 1264 c 128,-1,20
 1010 1310 1010 1310 949 1337.5 c 128,-1,21
 888 1365 888 1365 792 1365 c 2,22,-1
 451 1366 l 1,23,-1
 226 0 l 1,24,-1
 87 0 l 1,25,-1
 333 1490 l 1,0,-1
1008 0 m 1,26,-1
 636 663 l 1,27,-1
 791 663 l 1,28,-1
 1168 0 l 1,29,-1
 1008 0 l 1,26,-1
686 0 m 1,30,-1
 525 0 l 1,31,-1
 1121 664 l 1,32,-1
 1277 664 l 1,33,-1
 686 0 l 1,30,-1
EndSplineSet
EndChar

StartChar: uni024C
Encoding: 588 588 397
Width: 1256
GlyphClass: 2
Flags: W
AnchorPoint: "Anchor-1" 802 1490 basechar 0
AnchorPoint: "Anchor-0" 572 0 basechar 0
LayerCount: 2
Fore
SplineSet
273 602 m 1,0,-1
 16 602 l 1,1,-1
 36 726 l 1,2,-1
 293 726 l 1,3,-1
 273 602 l 1,0,-1
99 0 m 1,4,-1
 346 1490 l 1,5,-1
 852 1490 l 2,6,7
 1004 1490 1004 1490 1102.5 1434 c 128,-1,8
 1201 1378 1201 1378 1242 1278 c 128,-1,9
 1283 1178 1283 1178 1260 1044 c 0,10,11
 1239 912 1239 912 1164.5 812.5 c 128,-1,12
 1090 713 1090 713 972 657.5 c 128,-1,13
 854 602 854 602 703 602 c 2,14,-1
 276 602 l 1,15,-1
 296 727 l 1,16,-1
 721 727 l 2,17,18
 832 727 832 727 916.5 766.5 c 128,-1,19
 1001 806 1001 806 1054 878 c 128,-1,20
 1107 950 1107 950 1123 1047 c 0,21,22
 1148 1196 1148 1196 1072 1281 c 128,-1,23
 996 1366 996 1366 830 1366 c 2,24,-1
 464 1366 l 1,25,-1
 237 0 l 1,26,-1
 99 0 l 1,4,-1
974 0 m 1,27,-1
 725 674 l 1,28,-1
 874 674 l 1,29,-1
 1127 0 l 1,30,-1
 974 0 l 1,27,-1
EndSplineSet
Position2: "'cpsp' Capital Spacing in Latin lookup 0 subtable" dx=0 dy=0 dh=0 dv=0
EndChar

StartChar: S
Encoding: 83 83 398
Width: 1254
GlyphClass: 2
Flags: W
AnchorPoint: "Anchor-3" 539 0 basechar 0
AnchorPoint: "Anchor-1" 782 1490 basechar 0
AnchorPoint: "Anchor-0" 538 0 basechar 0
LayerCount: 2
Fore
SplineSet
544 -24 m 0,0,1
 387 -24 387 -24 278.5 29.5 c 128,-1,2
 170 83 170 83 119.5 180 c 128,-1,3
 69 277 69 277 84 407 c 1,4,-1
 225 407 l 1,5,6
 214 310 214 310 251 242 c 128,-1,7
 288 174 288 174 364.5 138.5 c 128,-1,8
 441 103 441 103 550 103 c 0,9,10
 665 103 665 103 758 140 c 128,-1,11
 851 177 851 177 911.5 244 c 128,-1,12
 972 311 972 311 986 401 c 0,13,14
 998 471 998 471 972.5 521 c 128,-1,15
 947 571 947 571 885 607 c 128,-1,16
 823 643 823 643 724 673 c 2,17,-1
 559 722 l 2,18,19
 378 775 378 775 294 867 c 128,-1,20
 210 959 210 959 235 1106 c 0,21,22
 254 1227 254 1227 330.5 1318.5 c 128,-1,23
 407 1410 407 1410 524 1461 c 128,-1,24
 641 1512 641 1512 782 1512 c 0,25,26
 926 1512 926 1512 1027.5 1459 c 128,-1,27
 1129 1406 1129 1406 1177.5 1312.5 c 128,-1,28
 1226 1219 1226 1219 1210 1094 c 1,29,-1
 1075 1094 l 1,30,31
 1086 1228 1086 1228 1004.5 1307 c 128,-1,32
 923 1386 923 1386 771 1386 c 0,33,34
 668 1386 668 1386 582.5 1350 c 128,-1,35
 497 1314 497 1314 440.5 1250 c 128,-1,36
 384 1186 384 1186 371 1105 c 0,37,38
 360 1036 360 1036 388 986.5 c 128,-1,39
 416 937 416 937 477.5 902.5 c 128,-1,40
 539 868 539 868 625 842 c 2,41,-1
 779 796 l 2,42,43
 863 772 863 772 932 737.5 c 128,-1,44
 1001 703 1001 703 1048.5 655 c 128,-1,45
 1096 607 1096 607 1116 543 c 128,-1,46
 1136 479 1136 479 1122 394 c 0,47,48
 1103 272 1103 272 1026 178 c 128,-1,49
 949 84 949 84 826.5 30 c 128,-1,50
 704 -24 704 -24 544 -24 c 0,0,1
EndSplineSet
Substitution2: "'ss06' Style Set 6 in Latin lookup 52 subtable" S.squared
Substitution2: "'ss05' Style Set 5 in Latin lookup 51 subtable" uni24C8
Position2: "'cpsp' Capital Spacing in Latin lookup 0 subtable" dx=0 dy=0 dh=0 dv=0
EndChar

StartChar: uni01A7
Encoding: 423 423 410
Width: 1255
GlyphClass: 2
Flags: W
AnchorPoint: "Anchor-3" 535 0 basechar 0
AnchorPoint: "Anchor-1" 786 1490 basechar 0
AnchorPoint: "Anchor-0" 535 0 basechar 0
LayerCount: 2
Fore
SplineSet
534 -24 m 0,0,1
 375 -24 375 -24 267 31 c 128,-1,2
 159 86 159 86 111 181.5 c 128,-1,3
 63 277 63 277 83 398 c 0,4,5
 97 482 97 482 137.5 545.5 c 128,-1,6
 178 609 178 609 240.5 656.5 c 128,-1,7
 303 704 303 704 383 738.5 c 128,-1,8
 463 773 463 773 556 797 c 2,9,-1
 726 843 l 2,10,11
 821 868 821 868 894 903 c 128,-1,12
 967 938 967 938 1012.5 988.5 c 128,-1,13
 1058 1039 1058 1039 1070 1109 c 0,14,15
 1082 1191 1082 1191 1050 1253.5 c 128,-1,16
 1018 1316 1018 1316 947 1351 c 128,-1,17
 876 1386 876 1386 775 1386 c 0,18,19
 673 1386 673 1386 587 1350 c 128,-1,20
 501 1314 501 1314 442.5 1248.5 c 128,-1,21
 384 1183 384 1183 362 1094 c 1,22,-1
 225 1094 l 1,23,24
 251 1218 251 1218 328 1312 c 128,-1,25
 405 1406 405 1406 521.5 1459 c 128,-1,26
 638 1512 638 1512 780 1512 c 0,27,28
 923 1512 923 1512 1025.5 1460.5 c 128,-1,29
 1128 1409 1128 1409 1176.5 1316.5 c 128,-1,30
 1225 1224 1225 1224 1204 1102 c 0,31,32
 1180 958 1180 958 1068 865.5 c 128,-1,33
 956 773 956 773 755 719 c 2,34,-1
 575 671 l 2,35,36
 468 643 468 643 392.5 606 c 128,-1,37
 317 569 317 569 274 518.5 c 128,-1,38
 231 468 231 468 220 396 c 0,39,40
 198 264 198 264 286.5 183.5 c 128,-1,41
 375 103 375 103 543 103 c 0,42,43
 654 103 654 103 746 139 c 128,-1,44
 838 175 838 175 900.5 243 c 128,-1,45
 963 311 963 311 983 407 c 1,46,-1
 1125 407 l 1,47,48
 1098 278 1098 278 1018 180.5 c 128,-1,49
 938 83 938 83 814.5 29.5 c 128,-1,50
 691 -24 691 -24 534 -24 c 0,0,1
EndSplineSet
Position2: "'cpsp' Capital Spacing in Latin lookup 0 subtable" dx=0 dy=0 dh=0 dv=0
EndChar

StartChar: uni1E9E
Encoding: 7838 7838 411
Width: 1307
Flags: W
LayerCount: 2
Fore
SplineSet
86 0 m 1,0,-1
 258 1034 l 2,1,2
 284 1189 284 1189 350.5 1295 c 128,-1,3
 417 1401 417 1401 523 1455.5 c 128,-1,4
 629 1510 629 1510 769 1510 c 0,5,6
 865 1510 865 1510 945 1482.5 c 128,-1,7
 1025 1455 1025 1455 1088.5 1408 c 128,-1,8
 1152 1361 1152 1361 1203 1302 c 1,9,-1
 781 835 l 1,10,11
 930 829 930 829 1026 778 c 128,-1,12
 1122 727 1122 727 1161 636 c 128,-1,13
 1200 545 1200 545 1179 418 c 0,14,15
 1156 280 1156 280 1080 184 c 128,-1,16
 1004 88 1004 88 888 37.5 c 128,-1,17
 772 -13 772 -13 629 -13 c 0,18,19
 566 -13 566 -13 506 -2 c 128,-1,20
 446 9 446 9 389 32 c 1,21,-1
 452 154 l 1,22,23
 490 138 490 138 540 125 c 128,-1,24
 590 112 590 112 655 112 c 0,25,26
 806 112 806 112 905 194 c 128,-1,27
 1004 276 1004 276 1028 418 c 0,28,29
 1041 495 1041 495 1026 548.5 c 128,-1,30
 1011 602 1011 602 977 635 c 128,-1,31
 943 668 943 668 898 686 c 128,-1,32
 853 704 853 704 804 710.5 c 128,-1,33
 755 717 755 717 711 717 c 2,34,-1
 607 717 l 1,35,-1
 627 838 l 1,36,-1
 1020 1280 l 1,37,38
 972 1324 972 1324 906 1355 c 128,-1,39
 840 1386 840 1386 751 1386 c 0,40,41
 643 1386 643 1386 569.5 1337.5 c 128,-1,42
 496 1289 496 1289 454 1208 c 128,-1,43
 412 1127 412 1127 396 1030 c 2,44,-1
 225 0 l 1,45,-1
 86 0 l 1,0,-1
EndSplineSet
Position2: "'cpsp' Capital Spacing in Latin lookup 0 subtable" dx=0 dy=0 dh=0 dv=0
EndChar

StartChar: T
Encoding: 84 84 412
Width: 1271
GlyphClass: 2
Flags: W
AnchorPoint: "Anchor-3" 547 0 basechar 0
AnchorPoint: "Anchor-1" 793 1490 basechar 0
AnchorPoint: "Anchor-0" 546 0 basechar 0
LayerCount: 2
Fore
SplineSet
218 1366 m 1,0,-1
 239 1490 l 1,1,-1
 1346 1490 l 1,2,-1
 1325 1366 l 1,3,-1
 841 1366 l 1,4,-1
 616 0 l 1,5,-1
 477 0 l 1,6,-1
 703 1366 l 1,7,-1
 218 1366 l 1,0,-1
EndSplineSet
Substitution2: "'c2sc' Capitals to Small Capitals in Latin lookup 67 subtable" t.sc
Substitution2: "'ss06' Style Set 6 in Latin lookup 52 subtable" T.squared
Substitution2: "'ss05' Style Set 5 in Latin lookup 51 subtable" uni24C9
Substitution2: "'aalt' Access All Alternates in Latin lookup 0 subtable" t.sc
Position2: "'cpsp' Capital Spacing in Latin lookup 0 subtable" dx=0 dy=0 dh=0 dv=0
EndChar

StartChar: uni01AC
Encoding: 428 428 420
Width: 1256
GlyphClass: 2
Flags: W
LayerCount: 2
Fore
SplineSet
162 1094 m 1,0,-1
 185 1234 l 2,1,2
 206 1361 206 1361 282 1425.5 c 128,-1,3
 358 1490 358 1490 490 1490 c 2,4,-1
 591 1490 l 1,5,-1
 570 1366 l 1,6,-1
 470 1366 l 2,7,8
 401 1366 401 1366 363.5 1334 c 128,-1,9
 326 1302 326 1302 315 1232 c 2,10,-1
 292 1094 l 1,11,-1
 162 1094 l 1,0,-1
570 1366 m 1,12,-1
 591 1490 l 1,13,-1
 1331 1490 l 1,14,-1
 1310 1366 l 1,15,-1
 838 1366 l 1,16,-1
 613 0 l 1,17,-1
 474 0 l 1,18,-1
 700 1366 l 1,19,-1
 570 1366 l 1,12,-1
EndSplineSet
Position2: "'cpsp' Capital Spacing in Latin lookup 0 subtable" dx=0 dy=0 dh=0 dv=0
EndChar

StartChar: uni01AC.base
Encoding: 60940 60940 421
Width: 1251
GlyphClass: 2
Flags: W
LayerCount: 2
Fore
SplineSet
565 1366 m 1,0,-1
 587 1490 l 1,1,-1
 1326 1490 l 1,2,-1
 1306 1366 l 1,3,-1
 834 1366 l 1,4,-1
 608 0 l 1,5,-1
 470 0 l 1,6,-1
 695 1366 l 1,7,-1
 565 1366 l 1,0,-1
EndSplineSet
EndChar

StartChar: Trthook
Encoding: 430 430 422
Width: 1271
GlyphClass: 2
Flags: W
AnchorPoint: "Anchor-3" 547 0 basechar 0
AnchorPoint: "Anchor-1" 793 1490 basechar 0
AnchorPoint: "Anchor-0" 546 0 basechar 0
LayerCount: 2
Fore
SplineSet
605 0 m 1,0,-1
 582 -136 l 2,1,2
 566 -228 566 -228 608.5 -262 c 128,-1,3
 651 -296 651 -296 724 -295 c 2,4,-1
 776 -295 l 1,5,-1
 757 -417 l 1,6,-1
 673 -417 l 2,7,8
 616 -417 616 -417 569 -399 c 128,-1,9
 522 -381 522 -381 490.5 -345.5 c 128,-1,10
 459 -310 459 -310 446.5 -257.5 c 128,-1,11
 434 -205 434 -205 446 -137 c 2,12,-1
 469 0 l 1,13,-1
 605 0 l 1,0,-1
218 1366 m 1,14,-1
 239 1490 l 1,15,-1
 1346 1490 l 1,16,-1
 1325 1366 l 1,17,-1
 841 1366 l 1,18,-1
 616 0 l 1,19,-1
 477 0 l 1,20,-1
 703 1366 l 1,21,-1
 218 1366 l 1,14,-1
EndSplineSet
Position2: "'cpsp' Capital Spacing in Latin lookup 0 subtable" dx=0 dy=0 dh=0 dv=0
EndChar

StartChar: uni023E
Encoding: 574 574 423
Width: 1271
GlyphClass: 2
Flags: W
AnchorPoint: "Anchor-3" 547 0 basechar 0
AnchorPoint: "Anchor-1" 793 1490 basechar 0
AnchorPoint: "Anchor-0" 546 0 basechar 0
LayerCount: 2
Fore
SplineSet
117 -190 m 1,0,-1
 1110 1678 l 1,1,-1
 1235 1678 l 1,2,-1
 243 -190 l 1,3,-1
 117 -190 l 1,0,-1
218 1366 m 1,4,-1
 239 1490 l 1,5,-1
 1346 1490 l 1,6,-1
 1325 1366 l 1,7,-1
 841 1366 l 1,8,-1
 616 0 l 1,9,-1
 477 0 l 1,10,-1
 703 1366 l 1,11,-1
 218 1366 l 1,4,-1
EndSplineSet
Position2: "'cpsp' Capital Spacing in Latin lookup 0 subtable" dx=0 dy=0 dh=0 dv=0
EndChar

StartChar: U
Encoding: 85 85 425
Width: 1459
GlyphClass: 2
Flags: W
AnchorPoint: "Anchor-4" 1289 503 basechar 0
AnchorPoint: "Anchor-1" 886 1490 basechar 0
AnchorPoint: "Anchor-0" 639 0 basechar 0
LayerCount: 2
Fore
SplineSet
644 -22 m 0,0,1
 474 -22 474 -22 356 48 c 128,-1,2
 238 118 238 118 185.5 238.5 c 128,-1,3
 133 359 133 359 158 512 c 2,4,-1
 320 1490 l 1,5,-1
 459 1490 l 1,6,-1
 298 512 l 2,7,8
 278 393 278 393 314.5 302 c 128,-1,9
 351 211 351 211 437.5 159.5 c 128,-1,10
 524 108 524 108 649 108 c 0,11,12
 780 108 780 108 887 162 c 128,-1,13
 994 216 994 216 1063.5 309.5 c 128,-1,14
 1133 403 1133 403 1153 522 c 2,15,-1
 1313 1490 l 1,16,-1
 1452 1490 l 1,17,-1
 1289 503 l 2,18,19
 1264 349 1264 349 1173.5 230.5 c 128,-1,20
 1083 112 1083 112 946.5 45 c 128,-1,21
 810 -22 810 -22 644 -22 c 0,0,1
EndSplineSet
Substitution2: "'ss06' Style Set 6 in Latin lookup 52 subtable" U.squared
Substitution2: "'ss05' Style Set 5 in Latin lookup 51 subtable" uni24CA
Position2: "'cpsp' Capital Spacing in Latin lookup 0 subtable" dx=0 dy=0 dh=0 dv=0
EndChar

StartChar: Uhorn
Encoding: 431 431 426
Width: 1467
GlyphClass: 2
Flags: W
AnchorPoint: "Anchor-4" 1289 503 basechar 0
AnchorPoint: "Anchor-1" 886 1490 basechar 0
AnchorPoint: "Anchor-0" 639 0 basechar 0
LayerCount: 2
Fore
SplineSet
1302 1380 m 1,0,-1
 1320 1490 l 1,1,-1
 1476 1490 l 2,2,3
 1513 1490 1513 1490 1520 1528 c 2,4,-1
 1550 1714 l 1,5,-1
 1678 1714 l 1,6,-1
 1649 1534 l 2,7,8
 1636 1458 1636 1458 1591 1419 c 128,-1,9
 1546 1380 1546 1380 1469 1380 c 2,10,-1
 1302 1380 l 1,0,-1
644 -22 m 0,11,12
 474 -22 474 -22 356 48 c 128,-1,13
 238 118 238 118 185.5 238.5 c 128,-1,14
 133 359 133 359 158 512 c 2,15,-1
 320 1490 l 1,16,-1
 459 1490 l 1,17,-1
 298 512 l 2,18,19
 278 393 278 393 314.5 302 c 128,-1,20
 351 211 351 211 437.5 159.5 c 128,-1,21
 524 108 524 108 649 108 c 0,22,23
 780 108 780 108 887 162 c 128,-1,24
 994 216 994 216 1063.5 309.5 c 128,-1,25
 1133 403 1133 403 1153 522 c 2,26,-1
 1313 1490 l 1,27,-1
 1452 1490 l 1,28,-1
 1289 503 l 2,29,30
 1264 349 1264 349 1173.5 230.5 c 128,-1,31
 1083 112 1083 112 946.5 45 c 128,-1,32
 810 -22 810 -22 644 -22 c 0,11,12
EndSplineSet
Position2: "'cpsp' Capital Spacing in Latin lookup 0 subtable" dx=0 dy=0 dh=0 dv=0
EndChar

StartChar: uni0244
Encoding: 580 580 456
Width: 1463
GlyphClass: 2
Flags: W
AnchorPoint: "Anchor-4" 1276 503 basechar 0
AnchorPoint: "Anchor-1" 874 1490 basechar 0
AnchorPoint: "Anchor-0" 627 0 basechar 0
LayerCount: 2
Fore
SplineSet
1543 868 m 1,0,-1
 1528 773 l 1,1,-1
 12 773 l 1,2,-1
 28 868 l 1,3,-1
 1543 868 l 1,0,-1
631 -22 m 0,4,5
 462 -22 462 -22 343.5 48 c 128,-1,6
 225 118 225 118 173 238.5 c 128,-1,7
 121 359 121 359 146 512 c 2,8,-1
 308 1490 l 1,9,-1
 446 1490 l 1,10,-1
 285 512 l 2,11,12
 265 393 265 393 302 302 c 128,-1,13
 339 211 339 211 425 159.5 c 128,-1,14
 511 108 511 108 636 108 c 0,15,16
 767 108 767 108 874 162 c 128,-1,17
 981 216 981 216 1050.5 309.5 c 128,-1,18
 1120 403 1120 403 1140 522 c 2,19,-1
 1300 1490 l 1,20,-1
 1439 1490 l 1,21,-1
 1276 503 l 2,22,23
 1251 349 1251 349 1161 230.5 c 128,-1,24
 1071 112 1071 112 934 45 c 128,-1,25
 797 -22 797 -22 631 -22 c 0,4,5
EndSplineSet
Position2: "'cpsp' Capital Spacing in Latin lookup 0 subtable" dx=0 dy=0 dh=0 dv=0
EndChar

StartChar: V
Encoding: 86 86 457
Width: 1339
GlyphClass: 2
Flags: W
AnchorPoint: "Anchor-1" 826 1490 basechar 0
AnchorPoint: "Anchor-0" 579 0 basechar 0
LayerCount: 2
Fore
SplineSet
500 0 m 1,0,-1
 195 1490 l 1,1,-1
 337 1490 l 1,2,-1
 532 511 l 2,3,4
 547 431 547 431 565.5 323.5 c 128,-1,5
 584 216 584 216 607 65 c 1,6,-1
 572 65 l 1,7,8
 643 214 643 214 698 324 c 128,-1,9
 753 434 753 434 794 511 c 2,10,-1
 1306 1490 l 1,11,-1
 1457 1490 l 1,12,-1
 662 0 l 1,13,-1
 500 0 l 1,0,-1
EndSplineSet
Substitution2: "'ss06' Style Set 6 in Latin lookup 52 subtable" V.squared
Substitution2: "'ss05' Style Set 5 in Latin lookup 51 subtable" uni24CB
Position2: "'cpsp' Capital Spacing in Latin lookup 0 subtable" dx=0 dy=0 dh=0 dv=0
EndChar

StartChar: W
Encoding: 87 87 460
Width: 1939
GlyphClass: 2
Flags: W
AnchorPoint: "Anchor-1" 1126 1490 basechar 0
AnchorPoint: "Anchor-0" 879 0 basechar 0
LayerCount: 2
Fore
SplineSet
360 0 m 1,0,-1
 195 1490 l 1,1,-1
 334 1490 l 1,2,-1
 435 496 l 2,3,4
 442 430 442 430 447.5 361.5 c 128,-1,5
 453 293 453 293 457 225 c 128,-1,6
 461 157 461 157 465 87 c 1,7,-1
 445 87 l 1,8,9
 472 157 472 157 499 225 c 128,-1,10
 526 293 526 293 554 361.5 c 128,-1,11
 582 430 582 430 611 496 c 2,12,-1
 1041 1490 l 1,13,-1
 1206 1490 l 1,14,-1
 1305 496 l 2,15,16
 1312 430 1312 430 1318 361.5 c 128,-1,17
 1324 293 1324 293 1328.5 225 c 128,-1,18
 1333 157 1333 157 1337 87 c 1,19,-1
 1315 87 l 1,20,21
 1342 157 1342 157 1369 225 c 128,-1,22
 1396 293 1396 293 1424.5 361.5 c 128,-1,23
 1453 430 1453 430 1482 496 c 2,24,-1
 1912 1490 l 1,25,-1
 2058 1490 l 1,26,-1
 1398 0 l 1,27,-1
 1231 0 l 1,28,-1
 1125 1003 l 2,29,30
 1115 1098 1115 1098 1108 1197.5 c 128,-1,31
 1101 1297 1101 1297 1097 1410 c 1,32,-1
 1127 1410 l 1,33,34
 1087 1299 1087 1299 1047.5 1200 c 128,-1,35
 1008 1101 1008 1101 965 1003 c 2,36,-1
 528 0 l 1,37,-1
 360 0 l 1,0,-1
EndSplineSet
Substitution2: "'ss06' Style Set 6 in Latin lookup 52 subtable" W.squared
Substitution2: "'ss05' Style Set 5 in Latin lookup 51 subtable" uni24CC
Position2: "'cpsp' Capital Spacing in Latin lookup 0 subtable" dx=0 dy=0 dh=0 dv=0
EndChar

StartChar: X
Encoding: 88 88 467
Width: 1317
GlyphClass: 2
Flags: W
AnchorPoint: "Anchor-1" 815 1490 basechar 0
AnchorPoint: "Anchor-0" 568 0 basechar 0
LayerCount: 2
Fore
SplineSet
-47 0 m 1,0,-1
 659 812 l 1,1,-1
 642 709 l 1,2,-1
 227 1490 l 1,3,-1
 384 1490 l 1,4,-1
 577 1122 l 2,5,6
 604 1070 604 1070 627 1024.5 c 128,-1,7
 650 979 650 979 671.5 934 c 128,-1,8
 693 889 693 889 715 836 c 1,9,-1
 687 836 l 1,10,11
 727 888 727 888 763.5 933.5 c 128,-1,12
 800 979 800 979 838.5 1025 c 128,-1,13
 877 1071 877 1071 923 1122 c 2,14,-1
 1245 1490 l 1,15,-1
 1407 1490 l 1,16,-1
 733 715 l 1,17,-1
 750 817 l 1,18,-1
 1184 0 l 1,19,-1
 1029 0 l 1,20,-1
 806 419 l 2,21,22
 780 469 780 469 758 512 c 128,-1,23
 736 555 736 555 715.5 598.5 c 128,-1,24
 695 642 695 642 673 691 c 1,25,-1
 706 691 l 1,26,27
 668 642 668 642 633 598.5 c 128,-1,28
 598 555 598 555 561 512 c 128,-1,29
 524 469 524 469 482 419 c 2,30,-1
 118 0 l 1,31,-1
 -47 0 l 1,0,-1
EndSplineSet
Substitution2: "'ss06' Style Set 6 in Latin lookup 52 subtable" X.squared
Substitution2: "'ss05' Style Set 5 in Latin lookup 51 subtable" uni24CD
Position2: "'cpsp' Capital Spacing in Latin lookup 0 subtable" dx=0 dy=0 dh=0 dv=0
EndChar

StartChar: Y
Encoding: 89 89 473
Width: 1324
GlyphClass: 2
Flags: W
AnchorPoint: "Anchor-4" 642 0 basechar 0
AnchorPoint: "Anchor-1" 819 1490 basechar 0
AnchorPoint: "Anchor-0" 572 0 basechar 0
LayerCount: 2
Fore
SplineSet
503 0 m 1,0,-1
 609 643 l 1,1,-1
 195 1490 l 1,2,-1
 346 1490 l 1,3,-1
 583 1004 l 2,4,5
 619 931 619 931 649 861.5 c 128,-1,6
 679 792 679 792 709 709 c 1,7,-1
 652 709 l 1,8,9
 708 792 708 792 762 862 c 128,-1,10
 816 932 816 932 873 1004 c 2,11,-1
 1271 1490 l 1,12,-1
 1443 1490 l 1,13,-1
 748 643 l 1,14,-1
 642 0 l 1,15,-1
 503 0 l 1,0,-1
EndSplineSet
Substitution2: "'c2sc' Capitals to Small Capitals in Latin lookup 67 subtable" y.sc
Substitution2: "'ss06' Style Set 6 in Latin lookup 52 subtable" Y.squared
Substitution2: "'ss05' Style Set 5 in Latin lookup 51 subtable" uni24CE
Substitution2: "'aalt' Access All Alternates in Latin lookup 0 subtable" y.sc
Position2: "'cpsp' Capital Spacing in Latin lookup 0 subtable" dx=0 dy=0 dh=0 dv=0
EndChar

StartChar: uni01B3
Encoding: 435 435 474
Width: 1351
Flags: W
LayerCount: 2
Fore
SplineSet
648 749 m 1,0,-1
 654 784 l 1,1,-1
 688 784 l 1,2,-1
 683 749 l 1,3,-1
 648 749 l 1,0,-1
181 1490 m 1,4,-1
 340 1490 l 1,5,-1
 670 773 l 1,6,-1
 1144 1372 l 2,7,8
 1199 1441 1199 1441 1262.5 1474.5 c 128,-1,9
 1326 1508 1326 1508 1389 1508.5 c 128,-1,10
 1452 1509 1452 1509 1504 1477 c 1,11,-1
 1443 1368 l 1,12,13
 1400 1390 1400 1390 1349 1379 c 128,-1,14
 1298 1368 1298 1368 1250 1308 c 2,15,-1
 717 644 l 1,16,-1
 611 0 l 1,17,-1
 472 0 l 1,18,-1
 579 644 l 1,19,-1
 181 1490 l 1,4,-1
EndSplineSet
Position2: "'cpsp' Capital Spacing in Latin lookup 0 subtable" dx=0 dy=0 dh=0 dv=0
EndChar

StartChar: uni024E
Encoding: 590 590 484
Width: 1285
GlyphClass: 2
Flags: W
AnchorPoint: "Anchor-4" 642 0 basechar 0
AnchorPoint: "Anchor-1" 819 1490 basechar 0
AnchorPoint: "Anchor-0" 572 0 basechar 0
LayerCount: 2
Fore
SplineSet
1412 1181 m 1,0,-1
 1396 1085 l 1,1,-1
 71 1085 l 1,2,-1
 87 1181 l 1,3,-1
 1412 1181 l 1,0,-1
503 0 m 1,4,-1
 609 643 l 1,5,-1
 195 1490 l 1,6,-1
 346 1490 l 1,7,-1
 583 1004 l 2,8,9
 619 931 619 931 649 861.5 c 128,-1,10
 679 792 679 792 709 709 c 1,11,-1
 652 709 l 1,12,13
 708 792 708 792 762 862 c 128,-1,14
 816 932 816 932 873 1004 c 2,15,-1
 1271 1490 l 1,16,-1
 1443 1490 l 1,17,-1
 748 643 l 1,18,-1
 642 0 l 1,19,-1
 503 0 l 1,4,-1
EndSplineSet
Position2: "'cpsp' Capital Spacing in Latin lookup 0 subtable" dx=0 dy=0 dh=0 dv=0
EndChar

StartChar: Z
Encoding: 90 90 497
Width: 1228
GlyphClass: 2
Flags: W
AnchorPoint: "Anchor-1" 771 1490 basechar 0
AnchorPoint: "Anchor-0" 522 0 basechar 0
LayerCount: 2
Fore
SplineSet
28 0 m 1,0,-1
 45 103 l 1,1,-1
 1077 1366 l 1,2,-1
 250 1366 l 1,3,-1
 271 1490 l 1,4,-1
 1268 1490 l 1,5,-1
 1251 1385 l 1,6,-1
 218 125 l 1,7,-1
 1048 125 l 1,8,-1
 1028 0 l 1,9,-1
 28 0 l 1,0,-1
EndSplineSet
Substitution2: "'ss06' Style Set 6 in Latin lookup 52 subtable" Z.squared
Substitution2: "'ss05' Style Set 5 in Latin lookup 51 subtable" uni24CF
Position2: "'cpsp' Capital Spacing in Latin lookup 0 subtable" dx=0 dy=0 dh=0 dv=0
EndChar

StartChar: uni0224
Encoding: 548 548 504
Width: 1228
GlyphClass: 2
Flags: W
AnchorPoint: "Anchor-1" 771 1490 basechar 0
AnchorPoint: "Anchor-0" 522 0 basechar 0
LayerCount: 2
Fore
SplineSet
610 -418 m 1,0,-1
 629 -297 l 1,1,2
 646 -299 646 -299 669.5 -299 c 128,-1,3
 693 -299 693 -299 706 -299 c 0,4,5
 778 -299 778 -299 813.5 -272 c 128,-1,6
 849 -245 849 -245 859 -181 c 2,7,-1
 889 0 l 1,8,-1
 1028 0 l 1,9,-1
 996 -186 l 2,10,11
 976 -304 976 -304 901.5 -362 c 128,-1,12
 827 -420 827 -420 704 -420 c 0,13,14
 678 -420 678 -420 653 -419.5 c 128,-1,15
 628 -419 628 -419 610 -418 c 1,0,-1
28 0 m 1,16,-1
 45 103 l 1,17,-1
 1077 1366 l 1,18,-1
 250 1366 l 1,19,-1
 271 1490 l 1,20,-1
 1268 1490 l 1,21,-1
 1251 1385 l 1,22,-1
 218 125 l 1,23,-1
 1048 125 l 1,24,-1
 1028 0 l 1,25,-1
 28 0 l 1,16,-1
EndSplineSet
Position2: "'cpsp' Capital Spacing in Latin lookup 0 subtable" dx=0 dy=0 dh=0 dv=0
EndChar

StartChar: uni2C7F
Encoding: 11391 11391 507
Width: 1248
Flags: W
LayerCount: 2
Fore
SplineSet
827 -433 m 0,0,1
 755 -433 755 -433 698.5 -401.5 c 128,-1,2
 642 -370 642 -370 593.5 -321 c 128,-1,3
 545 -272 545 -272 496.5 -216 c 128,-1,4
 448 -160 448 -160 393 -111 c 128,-1,5
 338 -62 338 -62 268 -31 c 128,-1,6
 198 0 198 0 106 0 c 2,7,-1
 28 0 l 1,8,-1
 45 104 l 1,9,-1
 1080 1366 l 1,10,-1
 250 1366 l 1,11,-1
 271 1490 l 1,12,-1
 1267 1490 l 1,13,-1
 1250 1386 l 1,14,-1
 209 116 l 1,15,16
 321 103 321 103 399 56 c 128,-1,17
 477 9 477 9 534.5 -52 c 128,-1,18
 592 -113 592 -113 642 -171 c 128,-1,19
 692 -229 692 -229 747 -267.5 c 128,-1,20
 802 -306 802 -306 875 -306 c 0,21,22
 910 -306 910 -306 940 -300.5 c 128,-1,23
 970 -295 970 -295 999 -289 c 1,24,-1
 979 -412 l 1,25,26
 956 -421 956 -421 914 -427 c 128,-1,27
 872 -433 872 -433 827 -433 c 0,0,1
EndSplineSet
Position2: "'cpsp' Capital Spacing in Latin lookup 0 subtable" dx=0 dy=0 dh=0 dv=0
EndChar

StartChar: a
Encoding: 97 97 508
Width: 1191
GlyphClass: 2
Flags: W
AnchorPoint: "Anchor-4" 950 0 basechar 0
AnchorPoint: "Anchor-1" 672 1087 basechar 0
AnchorPoint: "Anchor-0" 492 0 basechar 0
LayerCount: 2
Fore
SplineSet
458 -21 m 0,0,1
 322 -21 322 -21 230 49.5 c 128,-1,2
 138 120 138 120 101 247 c 128,-1,3
 64 374 64 374 92 543 c 0,4,5
 119 711 119 711 198.5 837 c 128,-1,6
 278 963 278 963 394 1033.5 c 128,-1,7
 510 1104 510 1104 645 1104 c 0,8,9
 735 1104 735 1104 799.5 1072.5 c 128,-1,10
 864 1041 864 1041 903 990.5 c 128,-1,11
 942 940 942 940 958 881 c 1,12,-1
 964 881 l 1,13,-1
 999 1087 l 1,14,-1
 1130 1087 l 1,15,-1
 950 0 l 1,16,-1
 821 0 l 1,17,-1
 854 205 l 1,18,-1
 845 205 l 1,19,20
 808 144 808 144 751.5 92.5 c 128,-1,21
 695 41 695 41 621.5 10 c 128,-1,22
 548 -21 548 -21 458 -21 c 0,0,1
495 99 m 0,23,24
 602 99 602 99 688 155 c 128,-1,25
 774 211 774 211 832.5 311 c 128,-1,26
 891 411 891 411 913 544 c 0,27,28
 935 676 935 676 910 775 c 128,-1,29
 885 874 885 874 818 929.5 c 128,-1,30
 751 985 751 985 644 985 c 0,31,32
 539 985 539 985 452 929.5 c 128,-1,33
 365 874 365 874 306 774.5 c 128,-1,34
 247 675 247 675 225 544 c 0,35,36
 203 411 203 411 228.5 311 c 128,-1,37
 254 211 254 211 322 155 c 128,-1,38
 390 99 390 99 495 99 c 0,23,24
EndSplineSet
Substitution2: "'smcp' Lowercase to Small Capitals in Latin lookup 68 subtable" a.sc
Substitution2: "'c2sc' Capitals to Small Capitals in Latin lookup 67 subtable" a.sc
Substitution2: "Single Substitution lookup 44 subtable" ordfeminine
Substitution2: "'sups' Superscript in Latin lookup 39 subtable" a.sups
Substitution2: "'subs' Subscript in Latin lookup 38 subtable" a.subs
Substitution2: "'sinf' Scientific Inferiors in Latin lookup 18 subtable" a.subs
AlternateSubs2: "'aalt' Access All Alternates in Latin lookup 1 subtable" ordfeminine a.sups a.subs a.sc
EndChar

StartChar: aturn
Encoding: 592 592 540
Width: 1191
GlyphClass: 2
Flags: W
AnchorPoint: "Anchor-4" 241 1087 basechar 0
AnchorPoint: "Anchor-1" 709 1087 basechar 0
AnchorPoint: "Anchor-0" 530 0 basechar 0
LayerCount: 2
Fore
SplineSet
733 1108 m 0,0,1
 870 1108 870 1108 961.5 1037.5 c 128,-1,2
 1053 967 1053 967 1090.5 840.5 c 128,-1,3
 1128 714 1128 714 1099 545 c 0,4,5
 1071 377 1071 377 991.5 250.5 c 128,-1,6
 912 124 912 124 797 53.5 c 128,-1,7
 682 -17 682 -17 545 -17 c 0,8,9
 455 -17 455 -17 391 14.5 c 128,-1,10
 327 46 327 46 288 97 c 128,-1,11
 249 148 249 148 233 208 c 1,12,-1
 226 208 l 1,13,-1
 192 0 l 1,14,-1
 61 0 l 1,15,-1
 241 1087 l 1,16,-1
 370 1087 l 1,17,-1
 336 883 l 1,18,-1
 346 883 l 1,19,20
 383 944 383 944 439 995 c 128,-1,21
 495 1046 495 1046 569 1077 c 128,-1,22
 643 1108 643 1108 733 1108 c 0,0,1
695 988 m 256,23,24
 589 988 589 988 502.5 932 c 128,-1,25
 416 876 416 876 358 776.5 c 128,-1,26
 300 677 300 677 278 545 c 0,27,28
 256 412 256 412 280.5 313 c 128,-1,29
 305 214 305 214 372.5 159 c 128,-1,30
 440 104 440 104 547 104 c 0,31,32
 653 104 653 104 739.5 159 c 128,-1,33
 826 214 826 214 885 313 c 128,-1,34
 944 412 944 412 966 545 c 0,35,36
 987 678 987 678 961.5 778 c 128,-1,37
 936 878 936 878 868.5 933 c 128,-1,38
 801 988 801 988 695 988 c 256,23,24
EndSplineSet
EndChar

StartChar: ae
Encoding: 230 230 544
Width: 1804
GlyphClass: 2
Flags: W
AnchorPoint: "Anchor-1" 964 1087 basechar 0
LayerCount: 2
Fore
SplineSet
367 -19 m 0,0,1
 198 -19 198 -19 113 71 c 128,-1,2
 28 161 28 161 54 314 c 0,3,4
 68 405 68 405 120.5 471.5 c 128,-1,5
 173 538 173 538 269 574.5 c 128,-1,6
 365 611 365 611 506 611 c 0,7,8
 561 611 561 611 611 610 c 128,-1,9
 661 609 661 609 717 607.5 c 128,-1,10
 773 606 773 606 843 606 c 1,11,-1
 832 500 l 1,12,13
 755 500 755 500 671.5 501 c 128,-1,14
 588 502 588 502 514 502 c 0,15,16
 376 502 376 502 288.5 457 c 128,-1,17
 201 412 201 412 185 311 c 0,18,19
 168 207 168 207 219.5 153 c 128,-1,20
 271 99 271 99 387 99 c 0,21,22
 501 99 501 99 581 144.5 c 128,-1,23
 661 190 661 190 708.5 265.5 c 128,-1,24
 756 341 756 341 770 430 c 2,25,-1
 828 768 l 2,26,27
 848 878 848 878 789.5 939 c 128,-1,28
 731 1000 731 1000 603 1000 c 0,29,30
 523 1000 523 1000 457 971.5 c 128,-1,31
 391 943 391 943 347 892.5 c 128,-1,32
 303 842 303 842 288 775 c 1,33,-1
 154 776 l 1,34,35
 174 876 174 876 238.5 953 c 128,-1,36
 303 1030 303 1030 401 1074 c 128,-1,37
 499 1118 499 1118 616 1118 c 0,38,39
 735 1118 735 1118 817.5 1073.5 c 128,-1,40
 900 1029 900 1029 937 951 c 128,-1,41
 974 873 974 873 956 770 c 2,42,-1
 880 317 l 1,43,-1
 869 316 l 1,44,45
 834 219 834 219 766.5 144 c 128,-1,46
 699 69 699 69 599 25 c 128,-1,47
 499 -19 499 -19 367 -19 c 0,0,1
1197 -21 m 0,48,49
 1065 -21 1065 -21 974 28.5 c 128,-1,50
 883 78 883 78 836 177 c 128,-1,51
 789 276 789 276 789 424 c 0,52,53
 789 575 789 575 832 702 c 128,-1,54
 875 829 875 829 954 922.5 c 128,-1,55
 1033 1016 1033 1016 1139 1067.5 c 128,-1,56
 1245 1119 1245 1119 1373 1119 c 0,57,58
 1478 1119 1478 1119 1555 1084 c 128,-1,59
 1632 1049 1632 1049 1675 984 c 128,-1,60
 1718 919 1718 919 1718 828 c 0,61,62
 1718 738 1718 738 1669.5 675 c 128,-1,63
 1621 612 1621 612 1518.5 573 c 128,-1,64
 1416 534 1416 534 1256.5 516 c 128,-1,65
 1097 498 1097 498 874 498 c 1,66,-1
 888 603 l 1,67,68
 1088 603 1088 603 1222 615.5 c 128,-1,69
 1356 628 1356 628 1435.5 656 c 128,-1,70
 1515 684 1515 684 1550 729.5 c 128,-1,71
 1585 775 1585 775 1585 841 c 0,72,73
 1585 918 1585 918 1528.5 958.5 c 128,-1,74
 1472 999 1472 999 1371 999 c 0,75,76
 1248 999 1248 999 1151 940.5 c 128,-1,77
 1054 882 1054 882 994 777.5 c 128,-1,78
 934 673 934 673 923 536 c 0,79,80
 919 507 919 507 915 484.5 c 128,-1,81
 911 462 911 462 909 444.5 c 128,-1,82
 907 427 907 427 907 414 c 0,83,84
 907 255 907 255 977 176.5 c 128,-1,85
 1047 98 1047 98 1197 98 c 0,86,87
 1314 98 1314 98 1401 147 c 128,-1,88
 1488 196 1488 196 1544 285 c 1,89,-1
 1671 261 l 1,90,91
 1599 123 1599 123 1478 51 c 128,-1,92
 1357 -21 1357 -21 1197 -21 c 0,48,49
EndSplineSet
EndChar

StartChar: b
Encoding: 98 98 548
Width: 1189
GlyphClass: 2
Flags: W
AnchorPoint: "Anchor-1" 755 1283 basechar 0
AnchorPoint: "Anchor-0" 542 0 basechar 0
LayerCount: 2
Fore
SplineSet
553 -21 m 0,0,1
 462 -21 462 -21 397 10 c 128,-1,2
 332 41 332 41 291.5 93.5 c 128,-1,3
 251 146 251 146 232 208 c 1,4,-1
 224 208 l 1,5,-1
 189 0 l 1,6,-1
 60 0 l 1,7,-1
 307 1490 l 1,8,-1
 439 1490 l 1,9,-1
 338 881 l 1,10,-1
 345 881 l 1,11,12
 380 943 380 943 434.5 993 c 128,-1,13
 489 1043 489 1043 561 1073.5 c 128,-1,14
 633 1104 633 1104 722 1104 c 0,15,16
 842 1104 842 1104 928 1050 c 128,-1,17
 1014 996 1014 996 1061 898.5 c 128,-1,18
 1108 801 1108 801 1108 668 c 0,19,20
 1108 543 1108 543 1070 420 c 128,-1,21
 1032 297 1032 297 960 197.5 c 128,-1,22
 888 98 888 98 785 38.5 c 128,-1,23
 682 -21 682 -21 553 -21 c 0,0,1
538 99 m 0,24,25
 641 99 641 99 722.5 148.5 c 128,-1,26
 804 198 804 198 860.5 280.5 c 128,-1,27
 917 363 917 363 946 463.5 c 128,-1,28
 975 564 975 564 975 666 c 0,29,30
 975 813 975 813 904 899 c 128,-1,31
 833 985 833 985 702 985 c 0,32,33
 597 985 597 985 515.5 935 c 128,-1,34
 434 885 434 885 378.5 802.5 c 128,-1,35
 323 720 323 720 294 620 c 128,-1,36
 265 520 265 520 265 419 c 0,37,38
 265 273 265 273 336 186 c 128,-1,39
 407 99 407 99 538 99 c 0,24,25
EndSplineSet
Substitution2: "'sups' Superscript in Latin lookup 39 subtable" b.sups
Substitution2: "'subs' Subscript in Latin lookup 38 subtable" b.subs
Substitution2: "'sinf' Scientific Inferiors in Latin lookup 18 subtable" b.subs
AlternateSubs2: "'aalt' Access All Alternates in Latin lookup 1 subtable" b.sups b.subs
EndChar

StartChar: uni0183
Encoding: 387 387 550
Width: 1189
GlyphClass: 2
Flags: W
AnchorPoint: "Anchor-1" 755 1283 basechar 0
AnchorPoint: "Anchor-0" 542 0 basechar 0
LayerCount: 2
Fore
SplineSet
356 1374 m 1,0,-1
 307 1490 l 1,1,-1
 1087 1490 l 1,2,-1
 1068 1374 l 1,3,-1
 356 1374 l 1,0,-1
553 -21 m 0,4,5
 462 -21 462 -21 397 10 c 128,-1,6
 332 41 332 41 291.5 93.5 c 128,-1,7
 251 146 251 146 232 208 c 1,8,-1
 224 208 l 1,9,-1
 189 0 l 1,10,-1
 60 0 l 1,11,-1
 307 1490 l 1,12,-1
 439 1490 l 1,13,-1
 338 881 l 1,14,-1
 345 881 l 1,15,16
 380 943 380 943 434.5 993 c 128,-1,17
 489 1043 489 1043 561 1073.5 c 128,-1,18
 633 1104 633 1104 722 1104 c 0,19,20
 842 1104 842 1104 928 1050 c 128,-1,21
 1014 996 1014 996 1061 898.5 c 128,-1,22
 1108 801 1108 801 1108 668 c 0,23,24
 1108 543 1108 543 1070 420 c 128,-1,25
 1032 297 1032 297 960 197.5 c 128,-1,26
 888 98 888 98 785 38.5 c 128,-1,27
 682 -21 682 -21 553 -21 c 0,4,5
538 99 m 0,28,29
 641 99 641 99 722.5 148.5 c 128,-1,30
 804 198 804 198 860.5 280.5 c 128,-1,31
 917 363 917 363 946 463.5 c 128,-1,32
 975 564 975 564 975 666 c 0,33,34
 975 813 975 813 904 899 c 128,-1,35
 833 985 833 985 702 985 c 0,36,37
 597 985 597 985 515.5 935 c 128,-1,38
 434 885 434 885 378.5 802.5 c 128,-1,39
 323 720 323 720 294 620 c 128,-1,40
 265 520 265 520 265 419 c 0,41,42
 265 273 265 273 336 186 c 128,-1,43
 407 99 407 99 538 99 c 0,28,29
EndSplineSet
EndChar

StartChar: uni0253
Encoding: 595 595 551
Width: 1186
GlyphClass: 2
Flags: W
AnchorPoint: "Anchor-1" 522 1490 basechar 0
AnchorPoint: "Anchor-0" 497 38 basechar 0
LayerCount: 2
Fore
SplineSet
547 -21 m 0,0,1
 458 -21 458 -21 393 10 c 128,-1,2
 328 41 328 41 287 93 c 128,-1,3
 246 145 246 145 228 204 c 1,4,-1
 220 204 l 1,5,-1
 186 0 l 1,6,-1
 61 0 l 1,7,-1
 208 888 l 1,8,-1
 337 888 l 1,9,-1
 335 880 l 1,10,-1
 342 880 l 1,11,12
 377 939 377 939 431.5 990.5 c 128,-1,13
 486 1042 486 1042 559 1073 c 128,-1,14
 632 1104 632 1104 722 1104 c 0,15,16
 859 1104 859 1104 952.5 1033.5 c 128,-1,17
 1046 963 1046 963 1084.5 836.5 c 128,-1,18
 1123 710 1123 710 1095 542 c 0,19,20
 1068 375 1068 375 990 248 c 128,-1,21
 912 121 912 121 798 50 c 128,-1,22
 684 -21 684 -21 547 -21 c 0,0,1
546 97 m 0,23,24
 652 97 652 97 738.5 153 c 128,-1,25
 825 209 825 209 884 309 c 128,-1,26
 943 409 943 409 965 543 c 0,27,28
 987 676 987 676 961.5 776 c 128,-1,29
 936 876 936 876 868 931 c 128,-1,30
 800 986 800 986 693 986 c 256,31,32
 586 986 586 986 499 931 c 128,-1,33
 412 876 412 876 354 775.5 c 128,-1,34
 296 675 296 675 273 543 c 0,35,36
 252 411 252 411 277.5 310 c 128,-1,37
 303 209 303 209 371 153 c 128,-1,38
 439 97 439 97 546 97 c 0,23,24
208 888 m 1,39,-1
 243 1098 l 1,40,-1
 270 1262 l 2,41,42
 289 1376 289 1376 364 1435.5 c 128,-1,43
 439 1495 439 1495 565 1495 c 0,44,45
 592 1495 592 1495 615.5 1494.5 c 128,-1,46
 639 1494 639 1494 657 1492 c 1,47,-1
 637 1377 l 1,48,49
 620 1378 620 1378 597 1378.5 c 128,-1,50
 574 1379 574 1379 561 1379 c 0,51,52
 488 1379 488 1379 450.5 1351.5 c 128,-1,53
 413 1324 413 1324 402 1262 c 2,54,-1
 375 1097 l 1,55,-1
 340 888 l 1,56,-1
 208 888 l 1,39,-1
EndSplineSet
EndChar

StartChar: thorn
Encoding: 254 254 555
Width: 1180
Flags: W
LayerCount: 2
Fore
SplineSet
541 -23 m 0,0,1
 453 -23 453 -23 391 8 c 128,-1,2
 329 39 329 39 290.5 91 c 128,-1,3
 252 143 252 143 234 205 c 1,4,-1
 226 205 l 1,5,-1
 123 -418 l 1,6,-1
 -9 -418 l 1,7,-1
 307 1490 l 1,8,-1
 439 1490 l 1,9,-1
 340 891 l 1,10,-1
 347 891 l 1,11,12
 385 952 385 952 440 1002.5 c 128,-1,13
 495 1053 495 1053 567.5 1083.5 c 128,-1,14
 640 1114 640 1114 729 1114 c 0,15,16
 865 1114 865 1114 955 1043 c 128,-1,17
 1045 972 1045 972 1081 844 c 128,-1,18
 1117 716 1117 716 1089 547 c 256,19,20
 1061 378 1061 378 983 249.5 c 128,-1,21
 905 121 905 121 791 49 c 128,-1,22
 677 -23 677 -23 541 -23 c 0,0,1
543 97 m 0,23,24
 648 97 648 97 733 155 c 128,-1,25
 818 213 818 213 876 314 c 128,-1,26
 934 415 934 415 956 548 c 0,27,28
 977 680 977 680 953 781 c 128,-1,29
 929 882 929 882 863.5 938.5 c 128,-1,30
 798 995 798 995 692 995 c 256,31,32
 586 995 586 995 500.5 938 c 128,-1,33
 415 881 415 881 357.5 780.5 c 128,-1,34
 300 680 300 680 278 548 c 0,35,36
 256 417 256 417 280 315 c 128,-1,37
 304 213 304 213 370.5 155 c 128,-1,38
 437 97 437 97 543 97 c 0,23,24
EndSplineSet
EndChar

StartChar: c
Encoding: 99 99 556
Width: 1100
GlyphClass: 2
Flags: W
AnchorPoint: "Anchor-3" 489 0 basechar 0
AnchorPoint: "Anchor-1" 667 1087 basechar 0
AnchorPoint: "Anchor-0" 489 0 basechar 0
LayerCount: 2
Fore
SplineSet
494 -21 m 0,0,1
 364 -21 364 -21 270.5 37.5 c 128,-1,2
 177 96 177 96 128 200.5 c 128,-1,3
 79 305 79 305 83 442 c 0,4,5
 86 570 86 570 129 688.5 c 128,-1,6
 172 807 172 807 248.5 901 c 128,-1,7
 325 995 325 995 430 1050 c 128,-1,8
 535 1105 535 1105 664 1105 c 0,9,10
 751 1105 751 1105 820.5 1079 c 128,-1,11
 890 1053 890 1053 940 1007.5 c 128,-1,12
 990 962 990 962 1018 903 c 128,-1,13
 1046 844 1046 844 1049 778 c 1,14,-1
 919 762 l 1,15,16
 916 806 916 806 898.5 846 c 128,-1,17
 881 886 881 886 849.5 917 c 128,-1,18
 818 948 818 948 771 966.5 c 128,-1,19
 724 985 724 985 661 985 c 0,20,21
 560 985 560 985 479.5 939 c 128,-1,22
 399 893 399 893 340.5 815 c 128,-1,23
 282 737 282 737 250.5 640.5 c 128,-1,24
 219 544 219 544 216 442 c 0,25,26
 212 341 212 341 242.5 263.5 c 128,-1,27
 273 186 273 186 337 143 c 128,-1,28
 401 100 401 100 497 100 c 0,29,30
 562 100 562 100 617.5 119 c 128,-1,31
 673 138 673 138 718 170.5 c 128,-1,32
 763 203 763 203 796 244.5 c 128,-1,33
 829 286 829 286 848 330 c 1,34,-1
 975 306 l 1,35,36
 950 241 950 241 904 182 c 128,-1,37
 858 123 858 123 795 77.5 c 128,-1,38
 732 32 732 32 656 5.5 c 128,-1,39
 580 -21 580 -21 494 -21 c 0,0,1
EndSplineSet
Substitution2: "'sups' Superscript in Latin lookup 39 subtable" c.sups
Substitution2: "'subs' Subscript in Latin lookup 38 subtable" c.subs
Substitution2: "'sinf' Scientific Inferiors in Latin lookup 18 subtable" c.subs
AlternateSubs2: "'aalt' Access All Alternates in Latin lookup 1 subtable" c.sups c.subs
EndChar

StartChar: uni023C
Encoding: 572 572 557
Width: 1100
GlyphClass: 2
Flags: W
AnchorPoint: "Anchor-3" 489 0 basechar 0
AnchorPoint: "Anchor-1" 667 1087 basechar 0
AnchorPoint: "Anchor-0" 489 0 basechar 0
LayerCount: 2
Fore
SplineSet
-11 -418 m 1,0,-1
 1029 1498 l 1,1,-1
 1137 1498 l 1,2,-1
 98 -418 l 1,3,-1
 -11 -418 l 1,0,-1
494 -21 m 0,4,5
 364 -21 364 -21 270.5 37.5 c 128,-1,6
 177 96 177 96 128 200.5 c 128,-1,7
 79 305 79 305 83 442 c 0,8,9
 86 570 86 570 129 688.5 c 128,-1,10
 172 807 172 807 248.5 901 c 128,-1,11
 325 995 325 995 430 1050 c 128,-1,12
 535 1105 535 1105 664 1105 c 0,13,14
 751 1105 751 1105 820.5 1079 c 128,-1,15
 890 1053 890 1053 940 1007.5 c 128,-1,16
 990 962 990 962 1018 903 c 128,-1,17
 1046 844 1046 844 1049 778 c 1,18,-1
 919 762 l 1,19,20
 916 806 916 806 898.5 846 c 128,-1,21
 881 886 881 886 849.5 917 c 128,-1,22
 818 948 818 948 771 966.5 c 128,-1,23
 724 985 724 985 661 985 c 0,24,25
 560 985 560 985 479.5 939 c 128,-1,26
 399 893 399 893 340.5 815 c 128,-1,27
 282 737 282 737 250.5 640.5 c 128,-1,28
 219 544 219 544 216 442 c 0,29,30
 212 341 212 341 242.5 263.5 c 128,-1,31
 273 186 273 186 337 143 c 128,-1,32
 401 100 401 100 497 100 c 0,33,34
 562 100 562 100 617.5 119 c 128,-1,35
 673 138 673 138 718 170.5 c 128,-1,36
 763 203 763 203 796 244.5 c 128,-1,37
 829 286 829 286 848 330 c 1,38,-1
 975 306 l 1,39,40
 950 241 950 241 904 182 c 128,-1,41
 858 123 858 123 795 77.5 c 128,-1,42
 732 32 732 32 656 5.5 c 128,-1,43
 580 -21 580 -21 494 -21 c 0,4,5
EndSplineSet
Ligature2: "'ccmp' Glyph Composition/Decomposition in Latin lookup 6 subtable" c uni0338
EndChar

StartChar: uni0188
Encoding: 392 392 558
Width: 1100
GlyphClass: 2
Flags: W
AnchorPoint: "Anchor-3" 489 0 basechar 0
AnchorPoint: "Anchor-1" 667 1087 basechar 0
AnchorPoint: "Anchor-0" 489 0 basechar 0
LayerCount: 2
Fore
SplineSet
934 768 m 1,0,-1
 924 1009 l 1,1,2
 913 1140 913 1140 982 1205.5 c 128,-1,3
 1051 1271 1051 1271 1179 1271 c 0,4,5
 1206 1271 1206 1271 1228 1270 c 128,-1,6
 1250 1269 1250 1269 1268 1268 c 1,7,-1
 1248 1154 l 1,8,9
 1230 1155 1230 1155 1204 1155.5 c 128,-1,10
 1178 1156 1178 1156 1164 1156 c 0,11,12
 1100 1156 1100 1156 1070.5 1125 c 128,-1,13
 1041 1094 1041 1094 1045 1028 c 2,14,-1
 1049 778 l 1,15,-1
 934 768 l 1,0,-1
494 -21 m 0,16,17
 364 -21 364 -21 270.5 37.5 c 128,-1,18
 177 96 177 96 128 200.5 c 128,-1,19
 79 305 79 305 83 442 c 0,20,21
 86 570 86 570 129 688.5 c 128,-1,22
 172 807 172 807 248.5 901 c 128,-1,23
 325 995 325 995 430 1050 c 128,-1,24
 535 1105 535 1105 664 1105 c 0,25,26
 751 1105 751 1105 820.5 1079 c 128,-1,27
 890 1053 890 1053 940 1007.5 c 128,-1,28
 990 962 990 962 1018 903 c 128,-1,29
 1046 844 1046 844 1049 778 c 1,30,-1
 919 762 l 1,31,32
 916 806 916 806 898.5 846 c 128,-1,33
 881 886 881 886 849.5 917 c 128,-1,34
 818 948 818 948 771 966.5 c 128,-1,35
 724 985 724 985 661 985 c 0,36,37
 560 985 560 985 479.5 939 c 128,-1,38
 399 893 399 893 340.5 815 c 128,-1,39
 282 737 282 737 250.5 640.5 c 128,-1,40
 219 544 219 544 216 442 c 0,41,42
 212 341 212 341 242.5 263.5 c 128,-1,43
 273 186 273 186 337 143 c 128,-1,44
 401 100 401 100 497 100 c 0,45,46
 562 100 562 100 617.5 119 c 128,-1,47
 673 138 673 138 718 170.5 c 128,-1,48
 763 203 763 203 796 244.5 c 128,-1,49
 829 286 829 286 848 330 c 1,50,-1
 975 306 l 1,51,52
 950 241 950 241 904 182 c 128,-1,53
 858 123 858 123 795 77.5 c 128,-1,54
 732 32 732 32 656 5.5 c 128,-1,55
 580 -21 580 -21 494 -21 c 0,16,17
EndSplineSet
EndChar

StartChar: d
Encoding: 100 100 567
Width: 1189
GlyphClass: 2
Flags: W
AnchorPoint: "Anchor-1" 669 1283 basechar 0
AnchorPoint: "Anchor-0" 465 0 basechar 0
LayerCount: 2
Fore
SplineSet
466 -21 m 0,0,1
 288 -21 288 -21 184.5 98 c 128,-1,2
 81 217 81 217 81 414 c 0,3,4
 81 542 81 542 119.5 665 c 128,-1,5
 158 788 158 788 230.5 887 c 128,-1,6
 303 986 303 986 405.5 1045 c 128,-1,7
 508 1104 508 1104 636 1104 c 0,8,9
 728 1104 728 1104 794 1072 c 128,-1,10
 860 1040 860 1040 900.5 988.5 c 128,-1,11
 941 937 941 937 957 877 c 1,12,-1
 962 877 l 1,13,-1
 1063 1490 l 1,14,-1
 1196 1490 l 1,15,-1
 949 0 l 1,16,-1
 820 0 l 1,17,-1
 854 203 l 1,18,-1
 846 203 l 1,19,20
 808 141 808 141 753 90.5 c 128,-1,21
 698 40 698 40 626 9.5 c 128,-1,22
 554 -21 554 -21 466 -21 c 0,0,1
487 99 m 0,23,24
 591 99 591 99 672 148.5 c 128,-1,25
 753 198 753 198 809.5 281 c 128,-1,26
 866 364 866 364 895 464.5 c 128,-1,27
 924 565 924 565 924 666 c 0,28,29
 924 812 924 812 853.5 898.5 c 128,-1,30
 783 985 783 985 650 985 c 0,31,32
 547 985 547 985 466 935.5 c 128,-1,33
 385 886 385 886 328.5 804 c 128,-1,34
 272 722 272 722 243 622 c 128,-1,35
 214 522 214 522 214 420 c 0,36,37
 214 272 214 272 285.5 185.5 c 128,-1,38
 357 99 357 99 487 99 c 0,23,24
EndSplineSet
Substitution2: "'sups' Superscript in Latin lookup 39 subtable" d.sups
Substitution2: "'subs' Subscript in Latin lookup 38 subtable" d.subs
Substitution2: "'sinf' Scientific Inferiors in Latin lookup 18 subtable" d.subs
AlternateSubs2: "'aalt' Access All Alternates in Latin lookup 1 subtable" d.sups d.subs
EndChar

StartChar: drthook
Encoding: 598 598 569
Width: 1189
GlyphClass: 2
Flags: W
AnchorPoint: "Anchor-1" 669 1283 basechar 0
AnchorPoint: "Anchor-0" 465 0 basechar 0
LayerCount: 2
Fore
SplineSet
1000 -420 m 0,0,1
 877 -420 877 -420 823 -361.5 c 128,-1,2
 769 -303 769 -303 788 -186 c 2,3,-1
 855 220 l 1,4,-1
 986 220 l 1,5,-1
 918 -186 l 2,6,7
 908 -250 908 -250 935 -277.5 c 128,-1,8
 962 -305 962 -305 1034 -305 c 0,9,10
 1048 -305 1048 -305 1071.5 -304.5 c 128,-1,11
 1095 -304 1095 -304 1112 -303 c 1,12,-1
 1093 -418 l 1,13,14
 1075 -419 1075 -419 1051 -419.5 c 128,-1,15
 1027 -420 1027 -420 1000 -420 c 0,0,1
466 -21 m 0,16,17
 288 -21 288 -21 184.5 98 c 128,-1,18
 81 217 81 217 81 414 c 0,19,20
 81 542 81 542 119.5 665 c 128,-1,21
 158 788 158 788 230.5 887 c 128,-1,22
 303 986 303 986 405.5 1045 c 128,-1,23
 508 1104 508 1104 636 1104 c 0,24,25
 728 1104 728 1104 794 1072 c 128,-1,26
 860 1040 860 1040 900.5 988.5 c 128,-1,27
 941 937 941 937 957 877 c 1,28,-1
 962 877 l 1,29,-1
 1063 1490 l 1,30,-1
 1196 1490 l 1,31,-1
 949 0 l 1,32,-1
 820 0 l 1,33,-1
 854 203 l 1,34,-1
 846 203 l 1,35,36
 808 141 808 141 753 90.5 c 128,-1,37
 698 40 698 40 626 9.5 c 128,-1,38
 554 -21 554 -21 466 -21 c 0,16,17
487 99 m 0,39,40
 591 99 591 99 672 148.5 c 128,-1,41
 753 198 753 198 809.5 281 c 128,-1,42
 866 364 866 364 895 464.5 c 128,-1,43
 924 565 924 565 924 666 c 0,44,45
 924 812 924 812 853.5 898.5 c 128,-1,46
 783 985 783 985 650 985 c 0,47,48
 547 985 547 985 466 935.5 c 128,-1,49
 385 886 385 886 328.5 804 c 128,-1,50
 272 722 272 722 243 622 c 128,-1,51
 214 522 214 522 214 420 c 0,52,53
 214 272 214 272 285.5 185.5 c 128,-1,54
 357 99 357 99 487 99 c 0,39,40
EndSplineSet
EndChar

StartChar: uni0257
Encoding: 599 599 570
Width: 1191
GlyphClass: 2
Flags: W
AnchorPoint: "Anchor-4" 950 0 basechar 0
AnchorPoint: "Anchor-1" 672 1087 basechar 0
AnchorPoint: "Anchor-0" 492 0 basechar 0
LayerCount: 2
Fore
SplineSet
963 878 m 1,0,-1
 998 1087 l 1,1,-1
 1025 1251 l 2,2,3
 1044 1366 1044 1366 1119 1425 c 128,-1,4
 1194 1484 1194 1484 1320 1484 c 0,5,6
 1347 1484 1347 1484 1370.5 1483.5 c 128,-1,7
 1394 1483 1394 1483 1412 1482 c 1,8,-1
 1392 1367 l 1,9,10
 1375 1368 1375 1368 1352 1368 c 128,-1,11
 1329 1368 1329 1368 1315 1368 c 0,12,13
 1243 1368 1243 1368 1205 1341 c 128,-1,14
 1167 1314 1167 1314 1157 1251 c 2,15,-1
 1130 1087 l 1,16,-1
 1095 878 l 1,17,-1
 963 878 l 1,0,-1
458 -21 m 0,18,19
 322 -21 322 -21 230 49.5 c 128,-1,20
 138 120 138 120 101 247 c 128,-1,21
 64 374 64 374 92 543 c 0,22,23
 119 711 119 711 198.5 837 c 128,-1,24
 278 963 278 963 394 1033.5 c 128,-1,25
 510 1104 510 1104 645 1104 c 0,26,27
 735 1104 735 1104 799.5 1072.5 c 128,-1,28
 864 1041 864 1041 903 990.5 c 128,-1,29
 942 940 942 940 958 881 c 1,30,-1
 964 881 l 1,31,-1
 999 1087 l 1,32,-1
 1130 1087 l 1,33,-1
 950 0 l 1,34,-1
 821 0 l 1,35,-1
 854 205 l 1,36,-1
 845 205 l 1,37,38
 808 144 808 144 751.5 92.5 c 128,-1,39
 695 41 695 41 621.5 10 c 128,-1,40
 548 -21 548 -21 458 -21 c 0,18,19
495 99 m 0,41,42
 602 99 602 99 688 155 c 128,-1,43
 774 211 774 211 832.5 311 c 128,-1,44
 891 411 891 411 913 544 c 0,45,46
 935 676 935 676 910 775 c 128,-1,47
 885 874 885 874 818 929.5 c 128,-1,48
 751 985 751 985 644 985 c 0,49,50
 539 985 539 985 452 929.5 c 128,-1,51
 365 874 365 874 306 774.5 c 128,-1,52
 247 675 247 675 225 544 c 0,53,54
 203 411 203 411 228.5 311 c 128,-1,55
 254 211 254 211 322 155 c 128,-1,56
 390 99 390 99 495 99 c 0,41,42
EndSplineSet
EndChar

StartChar: uni018C
Encoding: 396 396 571
Width: 1189
GlyphClass: 2
Flags: W
AnchorPoint: "Anchor-1" 669 1283 basechar 0
AnchorPoint: "Anchor-0" 465 0 basechar 0
LayerCount: 2
Fore
SplineSet
1108 1374 m 1,0,-1
 396 1374 l 1,1,-1
 415 1490 l 1,2,-1
 1196 1490 l 1,3,-1
 1108 1374 l 1,0,-1
466 -21 m 0,4,5
 288 -21 288 -21 184.5 98 c 128,-1,6
 81 217 81 217 81 414 c 0,7,8
 81 542 81 542 119.5 665 c 128,-1,9
 158 788 158 788 230.5 887 c 128,-1,10
 303 986 303 986 405.5 1045 c 128,-1,11
 508 1104 508 1104 636 1104 c 0,12,13
 728 1104 728 1104 794 1072 c 128,-1,14
 860 1040 860 1040 900.5 988.5 c 128,-1,15
 941 937 941 937 957 877 c 1,16,-1
 962 877 l 1,17,-1
 1063 1490 l 1,18,-1
 1196 1490 l 1,19,-1
 949 0 l 1,20,-1
 820 0 l 1,21,-1
 854 203 l 1,22,-1
 846 203 l 1,23,24
 808 141 808 141 753 90.5 c 128,-1,25
 698 40 698 40 626 9.5 c 128,-1,26
 554 -21 554 -21 466 -21 c 0,4,5
487 99 m 0,27,28
 591 99 591 99 672 148.5 c 128,-1,29
 753 198 753 198 809.5 281 c 128,-1,30
 866 364 866 364 895 464.5 c 128,-1,31
 924 565 924 565 924 666 c 0,32,33
 924 812 924 812 853.5 898.5 c 128,-1,34
 783 985 783 985 650 985 c 0,35,36
 547 985 547 985 466 935.5 c 128,-1,37
 385 886 385 886 328.5 804 c 128,-1,38
 272 722 272 722 243 622 c 128,-1,39
 214 522 214 522 214 420 c 0,40,41
 214 272 214 272 285.5 185.5 c 128,-1,42
 357 99 357 99 487 99 c 0,27,28
EndSplineSet
EndChar

StartChar: uni0221
Encoding: 545 545 572
Width: 1509
GlyphClass: 2
Flags: W
AnchorPoint: "Anchor-1" 669 1283 basechar 0
AnchorPoint: "Anchor-0" 465 0 basechar 0
LayerCount: 2
Fore
SplineSet
1042 -415 m 0,0,1
 942 -415 942 -415 884 -373 c 128,-1,2
 826 -331 826 -331 805.5 -264 c 128,-1,3
 785 -197 785 -197 797 -121 c 2,4,-1
 847 182 l 1,5,-1
 979 182 l 1,6,-1
 927 -133 l 2,7,8
 914 -213 914 -213 954 -256.5 c 128,-1,9
 994 -300 994 -300 1061 -300 c 0,10,11
 1124 -300 1124 -300 1171.5 -262 c 128,-1,12
 1219 -224 1219 -224 1230 -164 c 0,13,14
 1239 -107 1239 -107 1208 -70 c 128,-1,15
 1177 -33 1177 -33 1117 -28 c 0,16,17
 1076 -24 1076 -24 1035.5 -38 c 128,-1,18
 995 -52 995 -52 953.5 -84.5 c 128,-1,19
 912 -117 912 -117 865 -168 c 1,20,-1
 625 -387 l 1,21,-1
 551 -301 l 1,22,-1
 758 -110 l 1,23,24
 858 -7 858 -7 952 41 c 128,-1,25
 1046 89 1046 89 1133 89 c 0,26,27
 1251 89 1251 89 1317.5 19 c 128,-1,28
 1384 -51 1384 -51 1366 -163 c 0,29,30
 1347 -276 1347 -276 1258 -345.5 c 128,-1,31
 1169 -415 1169 -415 1042 -415 c 0,0,1
466 -21 m 0,32,33
 288 -21 288 -21 184.5 98 c 128,-1,34
 81 217 81 217 81 414 c 0,35,36
 81 542 81 542 119.5 665 c 128,-1,37
 158 788 158 788 230.5 887 c 128,-1,38
 303 986 303 986 405.5 1045 c 128,-1,39
 508 1104 508 1104 636 1104 c 0,40,41
 728 1104 728 1104 794 1072 c 128,-1,42
 860 1040 860 1040 900.5 988.5 c 128,-1,43
 941 937 941 937 957 877 c 1,44,-1
 962 877 l 1,45,-1
 1063 1490 l 1,46,-1
 1196 1490 l 1,47,-1
 949 0 l 1,48,-1
 820 0 l 1,49,-1
 854 203 l 1,50,-1
 846 203 l 1,51,52
 808 141 808 141 753 90.5 c 128,-1,53
 698 40 698 40 626 9.5 c 128,-1,54
 554 -21 554 -21 466 -21 c 0,32,33
487 99 m 0,55,56
 591 99 591 99 672 148.5 c 128,-1,57
 753 198 753 198 809.5 281 c 128,-1,58
 866 364 866 364 895 464.5 c 128,-1,59
 924 565 924 565 924 666 c 0,60,61
 924 812 924 812 853.5 898.5 c 128,-1,62
 783 985 783 985 650 985 c 0,63,64
 547 985 547 985 466 935.5 c 128,-1,65
 385 886 385 886 328.5 804 c 128,-1,66
 272 722 272 722 243 622 c 128,-1,67
 214 522 214 522 214 420 c 0,68,69
 214 272 214 272 285.5 185.5 c 128,-1,70
 357 99 357 99 487 99 c 0,55,56
EndSplineSet
EndChar

StartChar: uni02A3
Encoding: 675 675 580
Width: 2093
GlyphClass: 2
Flags: W
AnchorPoint: "Anchor-1" 669 1283 basechar 0
AnchorPoint: "Anchor-0" 465 0 basechar 0
LayerCount: 2
Fore
SplineSet
1053 0 m 1,0,-1
 1071 102 l 1,1,-1
 1862 985 l 1,2,-1
 1864 995 l 1,3,-1
 1060 995 l 1,4,-1
 1080 1118 l 1,5,-1
 2052 1118 l 1,6,-1
 2035 1010 l 1,7,-1
 1255 132 l 1,8,-1
 1253 122 l 1,9,-1
 1910 122 l 1,10,-1
 1890 0 l 1,11,-1
 1053 0 l 1,0,-1
466 -21 m 0,12,13
 288 -21 288 -21 184.5 98 c 128,-1,14
 81 217 81 217 81 414 c 0,15,16
 81 542 81 542 119.5 665 c 128,-1,17
 158 788 158 788 230.5 887 c 128,-1,18
 303 986 303 986 405.5 1045 c 128,-1,19
 508 1104 508 1104 636 1104 c 0,20,21
 728 1104 728 1104 794 1072 c 128,-1,22
 860 1040 860 1040 900.5 988.5 c 128,-1,23
 941 937 941 937 957 877 c 1,24,-1
 962 877 l 1,25,-1
 1063 1490 l 1,26,-1
 1196 1490 l 1,27,-1
 949 0 l 1,28,-1
 820 0 l 1,29,-1
 854 203 l 1,30,-1
 846 203 l 1,31,32
 808 141 808 141 753 90.5 c 128,-1,33
 698 40 698 40 626 9.5 c 128,-1,34
 554 -21 554 -21 466 -21 c 0,12,13
487 99 m 0,35,36
 591 99 591 99 672 148.5 c 128,-1,37
 753 198 753 198 809.5 281 c 128,-1,38
 866 364 866 364 895 464.5 c 128,-1,39
 924 565 924 565 924 666 c 0,40,41
 924 812 924 812 853.5 898.5 c 128,-1,42
 783 985 783 985 650 985 c 0,43,44
 547 985 547 985 466 935.5 c 128,-1,45
 385 886 385 886 328.5 804 c 128,-1,46
 272 722 272 722 243 622 c 128,-1,47
 214 522 214 522 214 420 c 0,48,49
 214 272 214 272 285.5 185.5 c 128,-1,50
 357 99 357 99 487 99 c 0,35,36
EndSplineSet
EndChar

StartChar: dyogh
Encoding: 676 676 582
Width: 1988
GlyphClass: 2
Flags: W
AnchorPoint: "Anchor-1" 669 1283 basechar 0
AnchorPoint: "Anchor-0" 465 0 basechar 0
LayerCount: 2
Fore
SplineSet
942 -88 m 1,0,1
 945 -157 945 -157 986 -207.5 c 128,-1,2
 1027 -258 1027 -258 1096 -285.5 c 128,-1,3
 1165 -313 1165 -313 1251 -313 c 0,4,5
 1359 -313 1359 -313 1445.5 -272 c 128,-1,6
 1532 -231 1532 -231 1588.5 -159 c 128,-1,7
 1645 -87 1645 -87 1661 7 c 0,8,9
 1677 107 1677 107 1641.5 181.5 c 128,-1,10
 1606 256 1606 256 1521 297 c 128,-1,11
 1436 338 1436 338 1304 338 c 2,12,-1
 1207 338 l 1,13,-1
 1225 451 l 1,14,-1
 1721 961 l 1,15,-1
 1722 966 l 1,16,-1
 1038 966 l 1,17,-1
 1058 1088 l 1,18,-1
 1921 1088 l 1,19,-1
 1905 987 l 1,20,-1
 1381 450 l 1,21,-1
 1380 445 l 1,22,23
 1485 442 1485 442 1568.5 409.5 c 128,-1,24
 1652 377 1652 377 1708 319 c 128,-1,25
 1764 261 1764 261 1787 182.5 c 128,-1,26
 1810 104 1810 104 1794 7 c 0,27,28
 1774 -118 1774 -118 1695.5 -218 c 128,-1,29
 1617 -318 1617 -318 1497 -376 c 128,-1,30
 1377 -434 1377 -434 1231 -434 c 0,31,32
 1108 -434 1108 -434 1012 -391.5 c 128,-1,33
 916 -349 916 -349 861.5 -271 c 128,-1,34
 807 -193 807 -193 807 -88 c 1,35,-1
 942 -88 l 1,0,1
466 -21 m 0,36,37
 288 -21 288 -21 184.5 98 c 128,-1,38
 81 217 81 217 81 414 c 0,39,40
 81 542 81 542 119.5 665 c 128,-1,41
 158 788 158 788 230.5 887 c 128,-1,42
 303 986 303 986 405.5 1045 c 128,-1,43
 508 1104 508 1104 636 1104 c 0,44,45
 728 1104 728 1104 794 1072 c 128,-1,46
 860 1040 860 1040 900.5 988.5 c 128,-1,47
 941 937 941 937 957 877 c 1,48,-1
 962 877 l 1,49,-1
 1063 1490 l 1,50,-1
 1196 1490 l 1,51,-1
 949 0 l 1,52,-1
 820 0 l 1,53,-1
 854 203 l 1,54,-1
 846 203 l 1,55,56
 808 141 808 141 753 90.5 c 128,-1,57
 698 40 698 40 626 9.5 c 128,-1,58
 554 -21 554 -21 466 -21 c 0,36,37
487 99 m 0,59,60
 591 99 591 99 672 148.5 c 128,-1,61
 753 198 753 198 809.5 281 c 128,-1,62
 866 364 866 364 895 464.5 c 128,-1,63
 924 565 924 565 924 666 c 0,64,65
 924 812 924 812 853.5 898.5 c 128,-1,66
 783 985 783 985 650 985 c 0,67,68
 547 985 547 985 466 935.5 c 128,-1,69
 385 886 385 886 328.5 804 c 128,-1,70
 272 722 272 722 243 622 c 128,-1,71
 214 522 214 522 214 420 c 0,72,73
 214 272 214 272 285.5 185.5 c 128,-1,74
 357 99 357 99 487 99 c 0,59,60
EndSplineSet
EndChar

StartChar: e
Encoding: 101 101 584
Width: 1109
GlyphClass: 2
Flags: W
AnchorPoint: "Anchor-4" 978 276 basechar 0
AnchorPoint: "Anchor-3" 492 0 basechar 0
AnchorPoint: "Anchor-1" 670 1087 basechar 0
AnchorPoint: "Anchor-0" 491 0 basechar 0
LayerCount: 2
Fore
SplineSet
498 -21 m 0,0,1
 372 -21 372 -21 279 30 c 128,-1,2
 186 81 186 81 134.5 180 c 128,-1,3
 83 279 83 279 83 421 c 0,4,5
 83 566 83 566 127.5 691.5 c 128,-1,6
 172 817 172 817 252.5 910.5 c 128,-1,7
 333 1004 333 1004 441 1056 c 128,-1,8
 549 1108 549 1108 676 1108 c 0,9,10
 784 1108 784 1108 861.5 1072 c 128,-1,11
 939 1036 939 1036 981 969.5 c 128,-1,12
 1023 903 1023 903 1023 813 c 0,13,14
 1023 712 1023 712 969 647 c 128,-1,15
 915 582 915 582 808 545.5 c 128,-1,16
 701 509 701 509 543.5 494 c 128,-1,17
 386 479 386 479 178 479 c 1,18,-1
 194 588 l 1,19,20
 378 588 378 588 510 597.5 c 128,-1,21
 642 607 642 607 726 631 c 128,-1,22
 810 655 810 655 850 699.5 c 128,-1,23
 890 744 890 744 890 813 c 0,24,25
 890 893 890 893 832 940.5 c 128,-1,26
 774 988 774 988 665 988 c 0,27,28
 552 988 552 988 467.5 939 c 128,-1,29
 383 890 383 890 326 808 c 128,-1,30
 269 726 269 726 240.5 624.5 c 128,-1,31
 212 523 212 523 212 419 c 0,32,33
 212 328 212 328 242 255.5 c 128,-1,34
 272 183 272 183 337 140.5 c 128,-1,35
 402 98 402 98 504 98 c 0,36,37
 622 98 622 98 713.5 153.5 c 128,-1,38
 805 209 805 209 852 298 c 1,39,-1
 978 277 l 1,40,41
 918 144 918 144 790 61.5 c 128,-1,42
 662 -21 662 -21 498 -21 c 0,0,1
EndSplineSet
Substitution2: "'sups' Superscript in Latin lookup 39 subtable" e.sups
Substitution2: "'subs' Subscript in Latin lookup 38 subtable" e.subs
Substitution2: "'sinf' Scientific Inferiors in Latin lookup 18 subtable" e.subs
AlternateSubs2: "'aalt' Access All Alternates in Latin lookup 1 subtable" e.sups e.subs
EndChar

StartChar: uni0247
Encoding: 583 583 586
Width: 1126
GlyphClass: 2
Flags: W
AnchorPoint: "Anchor-4" 989 276 basechar 0
AnchorPoint: "Anchor-3" 504 0 basechar 0
AnchorPoint: "Anchor-1" 681 1087 basechar 0
AnchorPoint: "Anchor-0" 502 0 basechar 0
LayerCount: 2
Fore
SplineSet
-48 -418 m 1,0,-1
 1070 1490 l 1,1,-1
 1178 1490 l 1,2,-1
 63 -418 l 1,3,-1
 -48 -418 l 1,0,-1
509 -21 m 0,4,5
 384 -21 384 -21 290.5 30 c 128,-1,6
 197 81 197 81 145.5 180 c 128,-1,7
 94 279 94 279 94 421 c 0,8,9
 94 566 94 566 138.5 691.5 c 128,-1,10
 183 817 183 817 264 910.5 c 128,-1,11
 345 1004 345 1004 453 1056 c 128,-1,12
 561 1108 561 1108 688 1108 c 0,13,14
 795 1108 795 1108 872.5 1072 c 128,-1,15
 950 1036 950 1036 992 969.5 c 128,-1,16
 1034 903 1034 903 1034 813 c 0,17,18
 1034 712 1034 712 980 647 c 128,-1,19
 926 582 926 582 819 545.5 c 128,-1,20
 712 509 712 509 554.5 494 c 128,-1,21
 397 479 397 479 189 479 c 1,22,-1
 205 588 l 1,23,24
 389 588 389 588 521 597.5 c 128,-1,25
 653 607 653 607 737 631 c 128,-1,26
 821 655 821 655 861 699.5 c 128,-1,27
 901 744 901 744 901 813 c 0,28,29
 901 893 901 893 843 940.5 c 128,-1,30
 785 988 785 988 676 988 c 0,31,32
 563 988 563 988 478.5 939 c 128,-1,33
 394 890 394 890 337 808 c 128,-1,34
 280 726 280 726 251.5 624.5 c 128,-1,35
 223 523 223 523 223 419 c 0,36,37
 223 328 223 328 253 255.5 c 128,-1,38
 283 183 283 183 348.5 140.5 c 128,-1,39
 414 98 414 98 516 98 c 0,40,41
 634 98 634 98 725 153.5 c 128,-1,42
 816 209 816 209 863 298 c 1,43,-1
 989 277 l 1,44,45
 929 144 929 144 801.5 61.5 c 128,-1,46
 674 -21 674 -21 509 -21 c 0,4,5
EndSplineSet
EndChar

StartChar: eturn
Encoding: 477 477 615
Width: 1109
GlyphClass: 2
Flags: W
AnchorPoint: "Anchor-4" 131 811 basechar 0
AnchorPoint: "Anchor-3" 617 1087 basechar 0
AnchorPoint: "Anchor-1" 633 1087 basechar 0
AnchorPoint: "Anchor-0" 453 0 basechar 0
LayerCount: 2
Fore
SplineSet
611 1108 m 0,0,1
 737 1108 737 1108 830.5 1057 c 128,-1,2
 924 1006 924 1006 975 907.5 c 128,-1,3
 1026 809 1026 809 1026 666 c 0,4,5
 1026 521 1026 521 981.5 395.5 c 128,-1,6
 937 270 937 270 856.5 177 c 128,-1,7
 776 84 776 84 668 31.5 c 128,-1,8
 560 -21 560 -21 433 -21 c 0,9,10
 325 -21 325 -21 247.5 15.5 c 128,-1,11
 170 52 170 52 128 118.5 c 128,-1,12
 86 185 86 185 86 274 c 0,13,14
 86 375 86 375 140 440 c 128,-1,15
 194 505 194 505 301 541.5 c 128,-1,16
 408 578 408 578 565.5 593 c 128,-1,17
 723 608 723 608 931 608 c 1,18,-1
 915 499 l 1,19,20
 731 499 731 499 599 490 c 128,-1,21
 467 481 467 481 383 456.5 c 128,-1,22
 299 432 299 432 259 388 c 128,-1,23
 219 344 219 344 219 274 c 0,24,25
 219 195 219 195 277 147 c 128,-1,26
 335 99 335 99 444 99 c 0,27,28
 557 99 557 99 641.5 148 c 128,-1,29
 726 197 726 197 783 280 c 128,-1,30
 840 363 840 363 868.5 464 c 128,-1,31
 897 565 897 565 897 670 c 0,32,33
 897 760 897 760 867 832.5 c 128,-1,34
 837 905 837 905 772.5 947 c 128,-1,35
 708 989 708 989 605 989 c 0,36,37
 487 989 487 989 396 934 c 128,-1,38
 305 879 305 879 257 790 c 1,39,-1
 131 810 l 1,40,41
 191 944 191 944 318.5 1026 c 128,-1,42
 446 1108 446 1108 611 1108 c 0,0,1
EndSplineSet
EndChar

StartChar: _part.f_base
Encoding: 1114123 -1 616
Width: 681
GlyphClass: 2
Flags: W
AnchorPoint: "Anchor-1" 579 1520 basechar 0
LayerCount: 2
Fore
SplineSet
-71 -436 m 0,0,1
 -89 -436 -89 -436 -103 -435 c 128,-1,2
 -117 -434 -117 -434 -131 -432 c 128,-1,3
 -145 -430 -145 -430 -166 -427 c 1,4,-1
 -137 -306 l 1,5,6
 -117 -308 -117 -308 -99.5 -310 c 128,-1,7
 -82 -312 -82 -312 -62 -312 c 0,8,9
 15 -312 15 -312 58.5 -273.5 c 128,-1,10
 102 -235 102 -235 116 -152 c 2,11,-1
 348 1245 l 2,12,13
 362 1335 362 1335 406 1397 c 128,-1,14
 450 1459 450 1459 518.5 1491.5 c 128,-1,15
 587 1524 587 1524 674 1524 c 0,16,17
 704 1524 704 1524 731 1521.5 c 128,-1,18
 758 1519 758 1519 786 1515 c 1,19,-1
 755 1401 l 1,20,21
 737 1403 737 1403 711.5 1404 c 128,-1,22
 686 1405 686 1405 662 1405 c 0,23,24
 584 1405 584 1405 538.5 1364 c 128,-1,25
 493 1323 493 1323 478 1237 c 2,26,-1
 249 -151 l 2,27,28
 233 -244 233 -244 192.5 -307 c 128,-1,29
 152 -370 152 -370 85.5 -403 c 128,-1,30
 19 -436 19 -436 -71 -436 c 0,0,1
EndSplineSet
EndChar

StartChar: f
Encoding: 102 102 617
Width: 644
GlyphClass: 2
Flags: W
AnchorPoint: "Anchor-1" 567 1520 basechar 0
AnchorPoint: "Anchor-0" 196 0 basechar 0
LayerCount: 2
Fore
SplineSet
684 1087 m 1,0,-1
 665 974 l 1,1,-1
 85 974 l 1,2,-1
 104 1087 l 1,3,-1
 684 1087 l 1,0,-1
-83 -436 m 0,4,5
 -101 -436 -101 -436 -115 -435 c 128,-1,6
 -129 -434 -129 -434 -143.5 -432 c 128,-1,7
 -158 -430 -158 -430 -178 -427 c 1,8,-1
 -149 -306 l 1,9,10
 -129 -308 -129 -308 -111 -310 c 128,-1,11
 -93 -312 -93 -312 -73 -312 c 0,12,13
 4 -312 4 -312 47.5 -273.5 c 128,-1,14
 91 -235 91 -235 104 -152 c 2,15,-1
 335 1245 l 2,16,17
 351 1335 351 1335 395 1397 c 128,-1,18
 439 1459 439 1459 507 1491.5 c 128,-1,19
 575 1524 575 1524 663 1524 c 0,20,21
 692 1524 692 1524 719.5 1521.5 c 128,-1,22
 747 1519 747 1519 774 1515 c 1,23,-1
 744 1401 l 1,24,25
 724 1403 724 1403 699.5 1404 c 128,-1,26
 675 1405 675 1405 649 1405 c 0,27,28
 573 1405 573 1405 527.5 1364 c 128,-1,29
 482 1323 482 1323 467 1237 c 2,30,-1
 236 -151 l 2,31,32
 222 -244 222 -244 181 -307 c 128,-1,33
 140 -370 140 -370 74 -403 c 128,-1,34
 8 -436 8 -436 -83 -436 c 0,4,5
EndSplineSet
Substitution2: "'cv12' Character Variants 12 in Latin lookup 65 subtable" f.1
Substitution2: "'salt' Stylistic Alternatives in Latin lookup 46 subtable" f.1
Substitution2: "'sups' Superscript in Latin lookup 39 subtable" f.sups
Substitution2: "'subs' Subscript in Latin lookup 38 subtable" f.subs
Substitution2: "Single Substitution lookup 36 subtable" f.1
Substitution2: "Single Substitution lookup 35 subtable" f.i.1
Substitution2: "Single Substitution lookup 34 subtable" f.i
Substitution2: "'sinf' Scientific Inferiors in Latin lookup 18 subtable" f.subs
AlternateSubs2: "'aalt' Access All Alternates in Latin lookup 1 subtable" f.sups f.subs
EndChar

StartChar: f.1
Encoding: 60941 60941 618
Width: 576
GlyphClass: 2
Flags: W
AnchorPoint: "Anchor-1" 498 1520 basechar 0
AnchorPoint: "Anchor-0" 127 0 basechar 0
LayerCount: 2
Fore
SplineSet
615 1087 m 1,0,-1
 597 974 l 1,1,-1
 284 974 l 1,2,-1
 303 1087 l 1,3,-1
 615 1087 l 1,0,-1
-151 -436 m 0,4,5
 -170 -436 -170 -436 -183.5 -435 c 128,-1,6
 -197 -434 -197 -434 -211.5 -432 c 128,-1,7
 -226 -430 -226 -430 -246 -427 c 1,8,-1
 -218 -306 l 1,9,10
 -197 -308 -197 -308 -179.5 -310 c 128,-1,11
 -162 -312 -162 -312 -141 -312 c 0,12,13
 -65 -312 -65 -312 -21.5 -273.5 c 128,-1,14
 22 -235 22 -235 36 -152 c 2,15,-1
 267 1245 l 2,16,17
 283 1335 283 1335 326.5 1397 c 128,-1,18
 370 1459 370 1459 438.5 1491.5 c 128,-1,19
 507 1524 507 1524 594 1524 c 0,20,21
 623 1524 623 1524 650.5 1521.5 c 128,-1,22
 678 1519 678 1519 705 1515 c 1,23,-1
 675 1401 l 1,24,25
 656 1403 656 1403 631.5 1404 c 128,-1,26
 607 1405 607 1405 581 1405 c 0,27,28
 505 1405 505 1405 459 1364 c 128,-1,29
 413 1323 413 1323 399 1237 c 2,30,-1
 168 -151 l 2,31,32
 153 -244 153 -244 112 -307 c 128,-1,33
 71 -370 71 -370 5.5 -403 c 128,-1,34
 -60 -436 -60 -436 -151 -436 c 0,4,5
EndSplineSet
EndChar

StartChar: f.i
Encoding: 60942 60942 619
Width: 565
GlyphClass: 2
Flags: W
AnchorPoint: "Anchor-1" 541 1520 basechar 0
AnchorPoint: "Anchor-0" 171 0 basechar 0
LayerCount: 2
Fore
SplineSet
-110 -436 m 0,0,1
 -127 -436 -127 -436 -141 -435 c 128,-1,2
 -155 -434 -155 -434 -169 -432 c 128,-1,3
 -183 -430 -183 -430 -204 -427 c 1,4,-1
 -175 -306 l 1,5,6
 -156 -308 -156 -308 -138 -310 c 128,-1,7
 -120 -312 -120 -312 -100 -312 c 0,8,9
 -23 -312 -23 -312 20.5 -273.5 c 128,-1,10
 64 -235 64 -235 77 -152 c 2,11,-1
 310 1245 l 2,12,13
 324 1335 324 1335 368 1397 c 128,-1,14
 412 1459 412 1459 480.5 1491.5 c 128,-1,15
 549 1524 549 1524 636 1524 c 0,16,17
 655 1524 655 1524 671 1523.5 c 128,-1,18
 687 1523 687 1523 703 1521 c 1,19,-1
 683 1403 l 1,20,21
 668 1404 668 1404 653.5 1404.5 c 128,-1,22
 639 1405 639 1405 624 1405 c 0,23,24
 546 1405 546 1405 500.5 1364 c 128,-1,25
 455 1323 455 1323 440 1237 c 2,26,-1
 210 -151 l 2,27,28
 195 -244 195 -244 154.5 -307 c 128,-1,29
 114 -370 114 -370 47.5 -403 c 128,-1,30
 -19 -436 -19 -436 -110 -436 c 0,0,1
101 972 m 1,31,-1
 120 1087 l 1,32,-1
 787 1087 l 1,33,-1
 768 972 l 1,34,-1
 101 972 l 1,31,-1
EndSplineSet
Substitution2: "Single Substitution lookup 35 subtable" f.i.1
EndChar

StartChar: f.i.1
Encoding: 60943 60943 620
Width: 523
GlyphClass: 2
Flags: W
AnchorPoint: "Anchor-1" 498 1520 basechar 0
AnchorPoint: "Anchor-0" 129 0 basechar 0
LayerCount: 2
Fore
SplineSet
-151 -436 m 0,0,1
 -170 -436 -170 -436 -183.5 -435 c 128,-1,2
 -197 -434 -197 -434 -211.5 -432 c 128,-1,3
 -226 -430 -226 -430 -246 -427 c 1,4,-1
 -218 -306 l 1,5,6
 -197 -308 -197 -308 -179.5 -310 c 128,-1,7
 -162 -312 -162 -312 -141 -312 c 0,8,9
 -65 -312 -65 -312 -21.5 -273.5 c 128,-1,10
 22 -235 22 -235 36 -152 c 2,11,-1
 267 1245 l 2,12,13
 283 1335 283 1335 326.5 1397 c 128,-1,14
 370 1459 370 1459 438.5 1491.5 c 128,-1,15
 507 1524 507 1524 594 1524 c 0,16,17
 612 1524 612 1524 628.5 1523.5 c 128,-1,18
 645 1523 645 1523 660 1521 c 1,19,-1
 640 1403 l 1,20,21
 625 1404 625 1404 610.5 1404.5 c 128,-1,22
 596 1405 596 1405 581 1405 c 0,23,24
 505 1405 505 1405 459 1364 c 128,-1,25
 413 1323 413 1323 399 1237 c 2,26,-1
 168 -151 l 2,27,28
 153 -244 153 -244 112 -307 c 128,-1,29
 71 -370 71 -370 5 -403 c 128,-1,30
 -61 -436 -61 -436 -151 -436 c 0,0,1
285 972 m 1,31,-1
 304 1087 l 1,32,-1
 745 1087 l 1,33,-1
 726 972 l 1,34,-1
 285 972 l 1,31,-1
EndSplineSet
EndChar

StartChar: g
Encoding: 103 103 628
Width: 1190
GlyphClass: 2
Flags: W
AnchorPoint: "Anchor-1" 664 1087 basechar 0
AnchorPoint: "Anchor-0" 420 -436 basechar 0
LayerCount: 2
Fore
SplineSet
426 -436 m 0,0,1
 307 -436 307 -436 221 -402.5 c 128,-1,2
 135 -369 135 -369 85.5 -307 c 128,-1,3
 36 -245 36 -245 26 -161 c 1,4,-1
 150 -131 l 1,5,6
 160 -186 160 -186 192.5 -228 c 128,-1,7
 225 -270 225 -270 283.5 -294 c 128,-1,8
 342 -318 342 -318 429 -318 c 0,9,10
 585 -318 585 -318 689 -237 c 128,-1,11
 793 -156 793 -156 817 -5 c 2,12,-1
 853 216 l 1,13,-1
 847 214 l 1,14,15
 808 154 808 154 753 104.5 c 128,-1,16
 698 55 698 55 627.5 26 c 128,-1,17
 557 -3 557 -3 469 -3 c 0,18,19
 351 -3 351 -3 264 48.5 c 128,-1,20
 177 100 177 100 129.5 195.5 c 128,-1,21
 82 291 82 291 82 422 c 0,22,23
 82 547 82 547 120.5 668 c 128,-1,24
 159 789 159 789 231.5 887.5 c 128,-1,25
 304 986 304 986 406 1045 c 128,-1,26
 508 1104 508 1104 637 1104 c 0,27,28
 706 1104 706 1104 760 1086 c 128,-1,29
 814 1068 814 1068 854 1035.5 c 128,-1,30
 894 1003 894 1003 919 962 c 128,-1,31
 944 921 944 921 957 876 c 1,32,-1
 966 877 l 1,33,-1
 1000 1087 l 1,34,-1
 1130 1087 l 1,35,-1
 946 -18 l 2,36,37
 923 -162 923 -162 849 -254.5 c 128,-1,38
 775 -347 775 -347 665.5 -391.5 c 128,-1,39
 556 -436 556 -436 426 -436 c 0,0,1
490 117 m 0,40,41
 595 117 595 117 676 164.5 c 128,-1,42
 757 212 757 212 812 292 c 128,-1,43
 867 372 867 372 895.5 469.5 c 128,-1,44
 924 567 924 567 924 668 c 0,45,46
 924 813 924 813 854 899 c 128,-1,47
 784 985 784 985 650 985 c 0,48,49
 549 985 549 985 468 936.5 c 128,-1,50
 387 888 387 888 330 807.5 c 128,-1,51
 273 727 273 727 244 627.5 c 128,-1,52
 215 528 215 528 215 426 c 0,53,54
 215 281 215 281 287 199 c 128,-1,55
 359 117 359 117 490 117 c 0,40,41
EndSplineSet
Substitution2: "'smcp' Lowercase to Small Capitals in Latin lookup 68 subtable" g.sc
Substitution2: "'sups' Superscript in Latin lookup 39 subtable" g.sups
Substitution2: "'subs' Subscript in Latin lookup 38 subtable" g.subs
Substitution2: "'sinf' Scientific Inferiors in Latin lookup 18 subtable" g.subs
AlternateSubs2: "'aalt' Access All Alternates in Latin lookup 1 subtable" g.sc g.sups g.subs
EndChar

StartChar: uni0260
Encoding: 608 608 629
Width: 1190
GlyphClass: 2
Flags: W
AnchorPoint: "Anchor-1" 664 1087 basechar 0
AnchorPoint: "Anchor-0" 420 -436 basechar 0
LayerCount: 2
Fore
SplineSet
962 878 m 1,0,-1
 997 1087 l 1,1,-1
 1025 1251 l 2,2,3
 1044 1366 1044 1366 1118.5 1425 c 128,-1,4
 1193 1484 1193 1484 1319 1484 c 0,5,6
 1346 1484 1346 1484 1369.5 1483.5 c 128,-1,7
 1393 1483 1393 1483 1411 1482 c 1,8,-1
 1391 1367 l 1,9,10
 1374 1368 1374 1368 1351.5 1368 c 128,-1,11
 1329 1368 1329 1368 1315 1368 c 0,12,13
 1242 1368 1242 1368 1204.5 1341 c 128,-1,14
 1167 1314 1167 1314 1156 1251 c 2,15,-1
 1130 1087 l 1,16,-1
 1094 878 l 1,17,-1
 962 878 l 1,0,-1
426 -436 m 0,18,19
 307 -436 307 -436 221 -402.5 c 128,-1,20
 135 -369 135 -369 85.5 -307 c 128,-1,21
 36 -245 36 -245 26 -161 c 1,22,-1
 150 -131 l 1,23,24
 160 -186 160 -186 192.5 -228 c 128,-1,25
 225 -270 225 -270 283.5 -294 c 128,-1,26
 342 -318 342 -318 429 -318 c 0,27,28
 585 -318 585 -318 689 -237 c 128,-1,29
 793 -156 793 -156 817 -5 c 2,30,-1
 853 216 l 1,31,-1
 847 214 l 1,32,33
 808 154 808 154 753 104.5 c 128,-1,34
 698 55 698 55 627.5 26 c 128,-1,35
 557 -3 557 -3 469 -3 c 0,36,37
 351 -3 351 -3 264 48.5 c 128,-1,38
 177 100 177 100 129.5 195.5 c 128,-1,39
 82 291 82 291 82 422 c 0,40,41
 82 547 82 547 120.5 668 c 128,-1,42
 159 789 159 789 231.5 887.5 c 128,-1,43
 304 986 304 986 406 1045 c 128,-1,44
 508 1104 508 1104 637 1104 c 0,45,46
 706 1104 706 1104 760 1086 c 128,-1,47
 814 1068 814 1068 854 1035.5 c 128,-1,48
 894 1003 894 1003 919 962 c 128,-1,49
 944 921 944 921 957 876 c 1,50,-1
 966 877 l 1,51,-1
 1000 1087 l 1,52,-1
 1130 1087 l 1,53,-1
 946 -18 l 2,54,55
 923 -162 923 -162 849 -254.5 c 128,-1,56
 775 -347 775 -347 665.5 -391.5 c 128,-1,57
 556 -436 556 -436 426 -436 c 0,18,19
490 117 m 0,58,59
 595 117 595 117 676 164.5 c 128,-1,60
 757 212 757 212 812 292 c 128,-1,61
 867 372 867 372 895.5 469.5 c 128,-1,62
 924 567 924 567 924 668 c 0,63,64
 924 813 924 813 854 899 c 128,-1,65
 784 985 784 985 650 985 c 0,66,67
 549 985 549 985 468 936.5 c 128,-1,68
 387 888 387 888 330 807.5 c 128,-1,69
 273 727 273 727 244 627.5 c 128,-1,70
 215 528 215 528 215 426 c 0,71,72
 215 281 215 281 287 199 c 128,-1,73
 359 117 359 117 490 117 c 0,58,59
EndSplineSet
Substitution2: "'smcp' Lowercase to Small Capitals in Latin lookup 68 subtable" uni0260.sc
Substitution2: "'c2sc' Capitals to Small Capitals in Latin lookup 67 subtable" uni0260.sc
Substitution2: "'aalt' Access All Alternates in Latin lookup 0 subtable" uni0260.sc
EndChar

StartChar: g.sc
Encoding: 610 610 638
Width: 1122
GlyphClass: 2
Flags: W
AnchorPoint: "Anchor-1" 665 1087 basechar 0
AnchorPoint: "Anchor-0" 484 0 basechar 0
LayerCount: 2
Fore
SplineSet
499 -16 m 0,0,1
 370 -16 370 -16 277 38 c 128,-1,2
 184 92 184 92 133 191 c 128,-1,3
 82 290 82 290 82 425 c 0,4,5
 82 553 82 553 123 674.5 c 128,-1,6
 164 796 164 796 240.5 892.5 c 128,-1,7
 317 989 317 989 425 1046 c 128,-1,8
 533 1103 533 1103 666 1103 c 0,9,10
 789 1103 789 1103 878.5 1054 c 128,-1,11
 968 1005 968 1005 1016.5 922.5 c 128,-1,12
 1065 840 1065 840 1064 739 c 1,13,-1
 929 739 l 1,14,15
 925 806 925 806 893.5 861.5 c 128,-1,16
 862 917 862 917 804 949.5 c 128,-1,17
 746 982 746 982 662 982 c 0,18,19
 557 982 557 982 473.5 934.5 c 128,-1,20
 390 887 390 887 332 806.5 c 128,-1,21
 274 726 274 726 243.5 627.5 c 128,-1,22
 213 529 213 529 213 428 c 0,23,24
 213 277 213 277 291 191 c 128,-1,25
 369 105 369 105 505 105 c 0,26,27
 605 105 605 105 686.5 147 c 128,-1,28
 768 189 768 189 822.5 265 c 128,-1,29
 877 341 877 341 892 440 c 1,30,-1
 927 430 l 1,31,-1
 589 430 l 1,32,-1
 609 539 l 1,33,-1
 1038 539 l 1,34,-1
 1021 436 l 2,35,36
 998 301 998 301 925 199 c 128,-1,37
 852 97 852 97 742.5 40.5 c 128,-1,38
 633 -16 633 -16 499 -16 c 0,0,1
EndSplineSet
EndChar

StartChar: uni0260.sc
Encoding: 60947 60947 639
Width: 1188
GlyphClass: 2
Flags: W
AnchorPoint: "Anchor-1" 665 1087 basechar 0
AnchorPoint: "Anchor-0" 484 0 basechar 0
LayerCount: 2
Fore
SplineSet
966 739 m 1,0,-1
 971 979 l 2,1,2
 971 1058 971 1058 1000.5 1115 c 128,-1,3
 1030 1172 1030 1172 1087 1203 c 128,-1,4
 1144 1234 1144 1234 1225 1234 c 0,5,6
 1252 1234 1252 1234 1271.5 1233 c 128,-1,7
 1291 1232 1291 1232 1309 1231 c 1,8,-1
 1289 1117 l 1,9,10
 1272 1118 1272 1118 1253 1118 c 128,-1,11
 1234 1118 1234 1118 1221 1118 c 0,12,13
 1146 1118 1146 1118 1115 1078.5 c 128,-1,14
 1084 1039 1084 1039 1085 945 c 1,15,-1
 1064 739 l 1,16,-1
 966 739 l 1,0,-1
499 -16 m 0,17,18
 370 -16 370 -16 277 38 c 128,-1,19
 184 92 184 92 133 191 c 128,-1,20
 82 290 82 290 82 425 c 0,21,22
 82 553 82 553 123 674.5 c 128,-1,23
 164 796 164 796 240.5 892.5 c 128,-1,24
 317 989 317 989 425 1046 c 128,-1,25
 533 1103 533 1103 666 1103 c 0,26,27
 789 1103 789 1103 878.5 1054 c 128,-1,28
 968 1005 968 1005 1016.5 922.5 c 128,-1,29
 1065 840 1065 840 1064 739 c 1,30,-1
 929 739 l 1,31,32
 925 806 925 806 893.5 861.5 c 128,-1,33
 862 917 862 917 804 949.5 c 128,-1,34
 746 982 746 982 662 982 c 0,35,36
 557 982 557 982 473.5 934.5 c 128,-1,37
 390 887 390 887 332 806.5 c 128,-1,38
 274 726 274 726 243.5 627.5 c 128,-1,39
 213 529 213 529 213 428 c 0,40,41
 213 277 213 277 291 191 c 128,-1,42
 369 105 369 105 505 105 c 0,43,44
 605 105 605 105 686.5 147 c 128,-1,45
 768 189 768 189 822.5 265 c 128,-1,46
 877 341 877 341 892 440 c 1,47,-1
 927 430 l 1,48,-1
 589 430 l 1,49,-1
 609 539 l 1,50,-1
 1038 539 l 1,51,-1
 1021 436 l 2,52,53
 998 301 998 301 925 199 c 128,-1,54
 852 97 852 97 742.5 40.5 c 128,-1,55
 633 -16 633 -16 499 -16 c 0,17,18
EndSplineSet
EndChar

StartChar: h
Encoding: 104 104 640
Width: 1155
GlyphClass: 2
Flags: W
AnchorPoint: "Anchor-3" 128 0 basechar 0
AnchorPoint: "Anchor-1" 374 1490 basechar 0
AnchorPoint: "Anchor-0" 488 0 basechar 0
LayerCount: 2
Fore
SplineSet
303 669 m 2,0,-1
 192 0 l 1,1,-1
 60 0 l 1,2,-1
 307 1490 l 1,3,-1
 439 1490 l 1,4,-1
 329 832 l 1,5,-1
 298 832 l 1,6,7
 345 927 345 927 407.5 987 c 128,-1,8
 470 1047 470 1047 545 1075.5 c 128,-1,9
 620 1104 620 1104 704 1104 c 0,10,11
 815 1104 815 1104 896.5 1056.5 c 128,-1,12
 978 1009 978 1009 1015 918.5 c 128,-1,13
 1052 828 1052 828 1030 695 c 2,14,-1
 915 0 l 1,15,-1
 782 0 l 1,16,-1
 897 687 l 2,17,18
 920 827 920 827 856 904.5 c 128,-1,19
 792 982 792 982 662 982 c 0,20,21
 576 982 576 982 500 945.5 c 128,-1,22
 424 909 424 909 372 839.5 c 128,-1,23
 320 770 320 770 303 669 c 2,0,-1
EndSplineSet
Substitution2: "'smcp' Lowercase to Small Capitals in Latin lookup 68 subtable" h.sc
Substitution2: "'sups' Superscript in Latin lookup 39 subtable" h.sups
Substitution2: "'subs' Subscript in Latin lookup 38 subtable" h.subs
Substitution2: "'sinf' Scientific Inferiors in Latin lookup 18 subtable" h.subs
AlternateSubs2: "'aalt' Access All Alternates in Latin lookup 1 subtable" h.sups h.subs h.sc
EndChar

StartChar: uni0452
Encoding: 1106 1106 643
Width: 1155
GlyphClass: 2
Flags: W
AnchorPoint: "Anchor-3" 128 0 basechar 0
AnchorPoint: "Anchor-1" 374 1490 basechar 0
AnchorPoint: "Anchor-0" 488 0 basechar 0
LayerCount: 2
Fore
SplineSet
592 -420 m 0,0,1
 566 -420 566 -420 542 -419.5 c 128,-1,2
 518 -419 518 -419 500 -418 c 1,3,-1
 520 -303 l 1,4,5
 536 -304 536 -304 559 -304.5 c 128,-1,6
 582 -305 582 -305 596 -305 c 0,7,8
 670 -305 670 -305 706 -277 c 128,-1,9
 742 -249 742 -249 751 -186 c 2,10,-1
 782 0 l 1,11,-1
 915 0 l 1,12,-1
 883 -186 l 2,13,14
 864 -304 864 -304 789.5 -362 c 128,-1,15
 715 -420 715 -420 592 -420 c 0,0,1
303 669 m 2,16,-1
 192 0 l 1,17,-1
 60 0 l 1,18,-1
 307 1490 l 1,19,-1
 439 1490 l 1,20,-1
 329 832 l 1,21,-1
 298 832 l 1,22,23
 345 927 345 927 407.5 987 c 128,-1,24
 470 1047 470 1047 545 1075.5 c 128,-1,25
 620 1104 620 1104 704 1104 c 0,26,27
 815 1104 815 1104 896.5 1056.5 c 128,-1,28
 978 1009 978 1009 1015 918.5 c 128,-1,29
 1052 828 1052 828 1030 695 c 2,30,-1
 915 0 l 1,31,-1
 782 0 l 1,32,-1
 897 687 l 2,33,34
 920 827 920 827 856 904.5 c 128,-1,35
 792 982 792 982 662 982 c 0,36,37
 576 982 576 982 500 945.5 c 128,-1,38
 424 909 424 909 372 839.5 c 128,-1,39
 320 770 320 770 303 669 c 2,16,-1
87 1228 m 1,40,-1
 106 1338 l 1,41,-1
 719 1338 l 1,42,-1
 701 1228 l 1,43,-1
 87 1228 l 1,40,-1
EndSplineSet
EndChar

StartChar: uni0266
Encoding: 614 614 644
Width: 1155
GlyphClass: 2
Flags: W
AnchorPoint: "Anchor-1" 668 1087 basechar 0
AnchorPoint: "Anchor-0" 488 0 basechar 0
LayerCount: 2
Fore
SplineSet
206 878 m 1,0,-1
 240 1087 l 1,1,-1
 267 1251 l 2,2,3
 286 1366 286 1366 361.5 1425 c 128,-1,4
 437 1484 437 1484 562 1484 c 0,5,6
 590 1484 590 1484 613.5 1483.5 c 128,-1,7
 637 1483 637 1483 654 1482 c 1,8,-1
 635 1367 l 1,9,10
 618 1368 618 1368 594.5 1368 c 128,-1,11
 571 1368 571 1368 557 1368 c 0,12,13
 486 1368 486 1368 448 1341 c 128,-1,14
 410 1314 410 1314 400 1251 c 2,15,-1
 372 1087 l 1,16,-1
 338 878 l 1,17,-1
 206 878 l 1,0,-1
302 665 m 2,18,-1
 192 0 l 1,19,-1
 60 0 l 1,20,-1
 240 1087 l 1,21,-1
 369 1087 l 1,22,-1
 327 832 l 1,23,-1
 298 835 l 1,24,25
 368 977 368 977 474 1040.5 c 128,-1,26
 580 1104 580 1104 704 1104 c 0,27,28
 818 1104 818 1104 898.5 1055.5 c 128,-1,29
 979 1007 979 1007 1015.5 915.5 c 128,-1,30
 1052 824 1052 824 1029 691 c 2,31,-1
 915 0 l 1,32,-1
 782 0 l 1,33,-1
 897 691 l 2,34,35
 921 831 921 831 859.5 906.5 c 128,-1,36
 798 982 798 982 672 982 c 0,37,38
 583 982 583 982 505 944.5 c 128,-1,39
 427 907 427 907 373 836.5 c 128,-1,40
 319 766 319 766 302 665 c 2,18,-1
EndSplineSet
EndChar

StartChar: uni0267
Encoding: 615 615 645
Width: 1155
GlyphClass: 2
Flags: W
AnchorPoint: "Anchor-1" 668 1087 basechar 0
AnchorPoint: "Anchor-0" 488 0 basechar 0
LayerCount: 2
Fore
SplineSet
593 -420 m 0,0,1
 566 -420 566 -420 542 -419.5 c 128,-1,2
 518 -419 518 -419 501 -418 c 1,3,-1
 520 -303 l 1,4,5
 536 -304 536 -304 559.5 -304.5 c 128,-1,6
 583 -305 583 -305 596 -305 c 0,7,8
 670 -305 670 -305 706 -277 c 128,-1,9
 742 -249 742 -249 752 -186 c 2,10,-1
 782 0 l 1,11,-1
 915 0 l 1,12,-1
 884 -186 l 2,13,14
 864 -304 864 -304 789.5 -362 c 128,-1,15
 715 -420 715 -420 593 -420 c 0,0,1
302 665 m 2,16,-1
 192 0 l 1,17,-1
 60 0 l 1,18,-1
 240 1087 l 1,19,-1
 369 1087 l 1,20,-1
 327 832 l 1,21,-1
 298 835 l 1,22,23
 368 977 368 977 474 1040.5 c 128,-1,24
 580 1104 580 1104 704 1104 c 0,25,26
 818 1104 818 1104 898.5 1055.5 c 128,-1,27
 979 1007 979 1007 1015.5 915.5 c 128,-1,28
 1052 824 1052 824 1029 691 c 2,29,-1
 915 0 l 1,30,-1
 782 0 l 1,31,-1
 897 691 l 2,32,33
 921 831 921 831 859.5 906.5 c 128,-1,34
 798 982 798 982 672 982 c 0,35,36
 583 982 583 982 505 944.5 c 128,-1,37
 427 907 427 907 373 836.5 c 128,-1,38
 319 766 319 766 302 665 c 2,16,-1
206 878 m 1,39,-1
 240 1087 l 1,40,-1
 267 1251 l 2,41,42
 286 1366 286 1366 361.5 1425 c 128,-1,43
 437 1484 437 1484 562 1484 c 0,44,45
 590 1484 590 1484 613.5 1483.5 c 128,-1,46
 637 1483 637 1483 654 1482 c 1,47,-1
 635 1367 l 1,48,49
 618 1368 618 1368 594.5 1368 c 128,-1,50
 571 1368 571 1368 557 1368 c 0,51,52
 486 1368 486 1368 448 1341 c 128,-1,53
 410 1314 410 1314 400 1251 c 2,54,-1
 372 1087 l 1,55,-1
 338 878 l 1,56,-1
 206 878 l 1,39,-1
EndSplineSet
EndChar

StartChar: uni0195
Encoding: 405 405 646
Width: 1880
Flags: W
LayerCount: 2
Fore
SplineSet
60 0 m 1,0,-1
 307 1490 l 1,1,-1
 439 1490 l 1,2,-1
 349 941 l 1,3,-1
 361 941 l 1,4,5
 415 1030 415 1030 506.5 1081 c 128,-1,6
 598 1132 598 1132 724 1132 c 0,7,8
 837 1132 837 1132 915 1085.5 c 128,-1,9
 993 1039 993 1039 1026 948 c 128,-1,10
 1059 857 1059 857 1037 723 c 2,11,-1
 1006 537 l 1,12,-1
 873 537 l 1,13,-1
 903 715 l 2,14,15
 924 852 924 852 861 931.5 c 128,-1,16
 798 1011 798 1011 668 1011 c 0,17,18
 580 1011 580 1011 504 973.5 c 128,-1,19
 428 936 428 936 376 865.5 c 128,-1,20
 324 795 324 795 309 697 c 2,21,-1
 193 0 l 1,22,-1
 60 0 l 1,0,-1
1133 -19 m 0,23,24
 1028 -19 1028 -19 956.5 30 c 128,-1,25
 885 79 885 79 858 181 c 128,-1,26
 831 283 831 283 857 442 c 2,27,-1
 880 579 l 1,28,-1
 1013 579 l 1,29,-1
 991 442 l 2,30,31
 968 308 968 308 988 233 c 128,-1,32
 1008 158 1008 158 1055 129 c 128,-1,33
 1102 100 1102 100 1161 99 c 0,34,35
 1267 100 1267 100 1363.5 190.5 c 128,-1,36
 1460 281 1460 281 1539.5 477 c 128,-1,37
 1619 673 1619 673 1671 989 c 2,38,-1
 1692 1118 l 1,39,-1
 1826 1118 l 1,40,-1
 1804 983 l 2,41,42
 1746 635 1746 635 1646 413.5 c 128,-1,43
 1546 192 1546 192 1415.5 86.5 c 128,-1,44
 1285 -19 1285 -19 1133 -19 c 0,23,24
EndSplineSet
EndChar

StartChar: hturn
Encoding: 613 613 647
Width: 1155
GlyphClass: 2
Flags: W
AnchorPoint: "Anchor-3" 1028 1087 basechar 0
AnchorPoint: "Anchor-1" 673 1087 basechar 0
AnchorPoint: "Anchor-0" 668 1087 basechar 0
LayerCount: 2
Fore
SplineSet
853 418 m 2,0,-1
 963 1087 l 1,1,-1
 1095 1087 l 1,2,-1
 848 -403 l 1,3,-1
 716 -403 l 1,4,-1
 826 256 l 1,5,-1
 858 256 l 1,6,7
 811 161 811 161 748 100.5 c 128,-1,8
 685 40 685 40 610.5 11.5 c 128,-1,9
 536 -17 536 -17 452 -17 c 0,10,11
 341 -17 341 -17 259 30.5 c 128,-1,12
 177 78 177 78 140.5 169.5 c 128,-1,13
 104 261 104 261 125 392 c 2,14,-1
 241 1087 l 1,15,-1
 373 1087 l 1,16,-1
 259 402 l 2,17,18
 236 261 236 261 300 183 c 128,-1,19
 364 105 364 105 493 105 c 0,20,21
 579 105 579 105 655 141.5 c 128,-1,22
 731 178 731 178 783.5 248 c 128,-1,23
 836 318 836 318 853 418 c 2,0,-1
EndSplineSet
EndChar

StartChar: hturnlthook
Encoding: 686 686 648
Width: 1236
Flags: W
LayerCount: 2
Fore
SplineSet
794 -418 m 1,0,-1
 905 256 l 1,1,-1
 937 256 l 1,2,3
 868 115 868 115 760 49 c 128,-1,4
 652 -17 652 -17 525 -17 c 0,5,6
 414 -17 414 -17 334 31 c 128,-1,7
 254 79 254 79 219 170 c 128,-1,8
 184 261 184 261 206 392 c 2,9,-1
 277 826 l 2,10,11
 292 914 292 914 258.5 946 c 128,-1,12
 225 978 225 978 146 978 c 0,13,14
 136 978 136 978 125.5 977.5 c 128,-1,15
 115 977 115 977 104.5 976.5 c 128,-1,16
 94 976 94 976 85 975 c 1,17,-1
 104 1089 l 1,18,19
 123 1092 123 1092 144.5 1092.5 c 128,-1,20
 166 1093 166 1093 190 1093 c 0,21,22
 252 1093 252 1093 297.5 1077 c 128,-1,23
 343 1061 343 1061 372.5 1028 c 128,-1,24
 402 995 402 995 411.5 945.5 c 128,-1,25
 421 896 421 896 410 829 c 2,26,-1
 340 402 l 2,27,28
 317 263 317 263 379 184 c 128,-1,29
 441 105 441 105 571 105 c 0,30,31
 658 105 658 105 734 141.5 c 128,-1,32
 810 178 810 178 863 248 c 128,-1,33
 916 318 916 318 932 418 c 2,34,-1
 1043 1087 l 1,35,-1
 1175 1087 l 1,36,-1
 926 -418 l 1,37,-1
 794 -418 l 1,0,-1
EndSplineSet
EndChar

StartChar: hturnhook2
Encoding: 687 687 649
Width: 1235
Flags: W
LayerCount: 2
Fore
SplineSet
1046 -420 m 0,0,1
 922 -420 922 -420 867.5 -361.5 c 128,-1,2
 813 -303 813 -303 832 -186 c 2,3,-1
 905 256 l 1,4,-1
 937 256 l 1,5,6
 867 115 867 115 758.5 49 c 128,-1,7
 650 -17 650 -17 524 -17 c 0,8,9
 412 -17 412 -17 333 31 c 128,-1,10
 254 79 254 79 219 170 c 128,-1,11
 184 261 184 261 206 392 c 2,12,-1
 277 826 l 2,13,14
 292 914 292 914 258.5 946 c 128,-1,15
 225 978 225 978 146 978 c 0,16,17
 136 978 136 978 125.5 977.5 c 128,-1,18
 115 977 115 977 104.5 976.5 c 128,-1,19
 94 976 94 976 85 975 c 1,20,-1
 104 1089 l 1,21,22
 123 1092 123 1092 144.5 1092.5 c 128,-1,23
 166 1093 166 1093 190 1093 c 0,24,25
 252 1093 252 1093 297.5 1077 c 128,-1,26
 343 1061 343 1061 372.5 1028 c 128,-1,27
 402 995 402 995 411.5 945.5 c 128,-1,28
 421 896 421 896 410 829 c 2,29,-1
 339 402 l 2,30,31
 317 263 317 263 378.5 184 c 128,-1,32
 440 105 440 105 570 105 c 0,33,34
 656 105 656 105 732.5 141.5 c 128,-1,35
 809 178 809 178 862.5 248 c 128,-1,36
 916 318 916 318 932 418 c 2,37,-1
 1043 1087 l 1,38,-1
 1175 1087 l 1,39,-1
 964 -186 l 2,40,41
 954 -250 954 -250 981 -277.5 c 128,-1,42
 1008 -305 1008 -305 1080 -305 c 0,43,44
 1093 -305 1093 -305 1116.5 -304.5 c 128,-1,45
 1140 -304 1140 -304 1157 -303 c 1,46,-1
 1139 -418 l 1,47,48
 1127 -419 1127 -419 1112 -419.5 c 128,-1,49
 1097 -420 1097 -420 1080.5 -420 c 128,-1,50
 1064 -420 1064 -420 1046 -420 c 0,0,1
EndSplineSet
EndChar

StartChar: dotlessi
Encoding: 305 305 660
Width: 433
GlyphClass: 2
Flags: W
AnchorPoint: "Anchor-4" 193 0 basechar 0
AnchorPoint: "Anchor-1" 307 1087 basechar 0
AnchorPoint: "Anchor-0" 127 0 basechar 0
LayerCount: 2
Fore
SplineSet
61 0 m 1,0,-1
 240 1087 l 1,1,-1
 373 1087 l 1,2,-1
 193 0 l 1,3,-1
 61 0 l 1,0,-1
EndSplineSet
EndChar

StartChar: uni0237
Encoding: 567 567 682
Width: 434
GlyphClass: 2
Flags: W
AnchorPoint: "Anchor-1" 309 1087 basechar 0
AnchorPoint: "Anchor-0" 6 -452 basechar 0
LayerCount: 2
Fore
SplineSet
242 1087 m 1,0,-1
 374 1087 l 1,1,-1
 173 -130 l 2,2,3
 158 -217 158 -217 113 -282 c 128,-1,4
 68 -347 68 -347 -2.5 -382.5 c 128,-1,5
 -73 -418 -73 -418 -162 -418 c 2,6,-1
 -205 -418 l 1,7,-1
 -185 -297 l 1,8,-1
 -148 -297 l 2,9,10
 -73 -297 -73 -297 -22.5 -252 c 128,-1,11
 28 -207 28 -207 42 -121 c 2,12,-1
 242 1087 l 1,0,-1
EndSplineSet
EndChar

StartChar: i.sc
Encoding: 60950 60950 689
Width: 576
GlyphClass: 2
Flags: W
AnchorPoint: "Anchor-4" 423 0 basechar 0
AnchorPoint: "Anchor-1" 378 1087 basechar 0
AnchorPoint: "Anchor-0" 198 0 basechar 0
LayerCount: 2
Fore
SplineSet
-27 0 m 1,0,-1
 -9 114 l 1,1,-1
 150 114 l 1,2,-1
 293 974 l 1,3,-1
 133 974 l 1,4,-1
 153 1087 l 1,5,-1
 603 1087 l 1,6,-1
 584 974 l 1,7,-1
 425 974 l 1,8,-1
 283 114 l 1,9,-1
 441 114 l 1,10,-1
 423 0 l 1,11,-1
 -27 0 l 1,0,-1
EndSplineSet
EndChar

StartChar: jcrosstail.ccmp
Encoding: 57423 57423 691
Width: 582
GlyphClass: 2
Flags: W
AnchorPoint: "Anchor-4" 372 0 basechar 0
AnchorPoint: "Anchor-1" 486 1087 basechar 0
AnchorPoint: "Anchor-0" 204 -460 basechar 0
LayerCount: 2
Fore
SplineSet
32 -418 m 0,0,1
 -46 -418 -46 -418 -101 -384.5 c 128,-1,2
 -156 -351 -156 -351 -180.5 -294 c 128,-1,3
 -205 -237 -205 -237 -194 -167 c 0,4,5
 -182 -90 -182 -90 -134 -32.5 c 128,-1,6
 -86 25 -86 25 -16 57 c 128,-1,7
 54 89 54 89 132 89 c 2,8,-1
 573 89 l 1,9,-1
 553 -35 l 1,10,-1
 113 -35 l 2,11,12
 48 -35 48 -35 -0.5 -74 c 128,-1,13
 -49 -113 -49 -113 -58 -169 c 0,14,15
 -66 -224 -66 -224 -34.5 -261.5 c 128,-1,16
 -3 -299 -3 -299 51 -299 c 0,17,18
 121 -299 121 -299 164.5 -245.5 c 128,-1,19
 208 -192 208 -192 218 -133 c 2,20,-1
 256 98 l 1,21,-1
 386 98 l 1,22,-1
 350 -121 l 2,23,24
 341 -180 341 -180 314 -233.5 c 128,-1,25
 287 -287 287 -287 245.5 -329 c 128,-1,26
 204 -371 204 -371 150 -394.5 c 128,-1,27
 96 -418 96 -418 32 -418 c 0,0,1
240 0 m 1,28,-1
 420 1087 l 1,29,-1
 552 1087 l 1,30,-1
 372 0 l 1,31,-1
 240 0 l 1,28,-1
EndSplineSet
EndChar

StartChar: k
Encoding: 107 107 698
Width: 1029
GlyphClass: 2
Flags: W
AnchorPoint: "Anchor-1" 374 1490 basechar 0
AnchorPoint: "Anchor-0" 454 0 basechar 0
LayerCount: 2
Fore
SplineSet
249 411 m 1,0,-1
 277 579 l 1,1,-1
 298 579 l 1,2,-1
 893 1087 l 1,3,-1
 1062 1087 l 1,4,-1
 477 587 l 1,5,-1
 462 585 l 1,6,-1
 249 411 l 1,0,-1
60 0 m 1,7,-1
 307 1490 l 1,8,-1
 439 1490 l 1,9,-1
 192 0 l 1,10,-1
 60 0 l 1,7,-1
749 0 m 1,11,-1
 392 561 l 1,12,-1
 502 652 l 1,13,-1
 918 0 l 1,14,-1
 749 0 l 1,11,-1
EndSplineSet
Substitution2: "'sups' Superscript in Latin lookup 39 subtable" k.sups
Substitution2: "'subs' Subscript in Latin lookup 38 subtable" k.subs
Substitution2: "'sinf' Scientific Inferiors in Latin lookup 18 subtable" k.subs
AlternateSubs2: "'aalt' Access All Alternates in Latin lookup 1 subtable" k.sups k.subs
EndChar

StartChar: uni0199
Encoding: 409 409 699
Width: 1030
GlyphClass: 2
Flags: W
AnchorPoint: "Anchor-1" 307 1087 basechar 0
AnchorPoint: "Anchor-0" 455 0 basechar 0
LayerCount: 2
Fore
SplineSet
206 878 m 1,0,-1
 241 1087 l 1,1,-1
 268 1251 l 2,2,3
 287 1366 287 1366 362.5 1425 c 128,-1,4
 438 1484 438 1484 563 1484 c 0,5,6
 590 1484 590 1484 613.5 1483.5 c 128,-1,7
 637 1483 637 1483 655 1482 c 1,8,-1
 636 1367 l 1,9,10
 619 1368 619 1368 595.5 1368 c 128,-1,11
 572 1368 572 1368 558 1368 c 0,12,13
 486 1368 486 1368 448.5 1341 c 128,-1,14
 411 1314 411 1314 401 1251 c 2,15,-1
 373 1087 l 1,16,-1
 338 878 l 1,17,-1
 206 878 l 1,0,-1
250 411 m 1,18,-1
 278 579 l 1,19,-1
 299 579 l 1,20,-1
 894 1087 l 1,21,-1
 1063 1087 l 1,22,-1
 478 587 l 1,23,-1
 463 585 l 1,24,-1
 250 411 l 1,18,-1
61 0 m 1,25,-1
 241 1087 l 1,26,-1
 373 1087 l 1,27,-1
 193 0 l 1,28,-1
 61 0 l 1,25,-1
750 0 m 1,29,-1
 393 561 l 1,30,-1
 503 652 l 1,31,-1
 919 0 l 1,32,-1
 750 0 l 1,29,-1
EndSplineSet
EndChar

StartChar: kturn
Encoding: 670 670 705
Width: 1029
GlyphClass: 2
Flags: W
AnchorPoint: "Anchor-1" 605 1087 basechar 0
AnchorPoint: "Anchor-0" 576 1087 basechar 0
LayerCount: 2
Fore
SplineSet
780 676 m 1,0,-1
 752 508 l 1,1,-1
 731 508 l 1,2,-1
 137 0 l 1,3,-1
 -33 0 l 1,4,-1
 552 501 l 1,5,-1
 567 503 l 1,6,-1
 780 676 l 1,0,-1
969 1087 m 1,7,-1
 722 -403 l 1,8,-1
 590 -403 l 1,9,-1
 837 1087 l 1,10,-1
 969 1087 l 1,7,-1
280 1087 m 1,11,-1
 637 527 l 1,12,-1
 528 435 l 1,13,-1
 112 1087 l 1,14,-1
 280 1087 l 1,11,-1
EndSplineSet
EndChar

StartChar: k.base
Encoding: 60951 60951 706
Width: 1030
GlyphClass: 2
Flags: W
AnchorPoint: "Anchor-1" 307 1087 basechar 0
AnchorPoint: "Anchor-0" 454 0 basechar 0
LayerCount: 2
Fore
SplineSet
250 411 m 1,0,-1
 278 579 l 1,1,-1
 299 579 l 1,2,-1
 893 1087 l 1,3,-1
 1063 1087 l 1,4,-1
 478 587 l 1,5,-1
 463 585 l 1,6,-1
 250 411 l 1,0,-1
61 0 m 1,7,-1
 241 1087 l 1,8,-1
 373 1087 l 1,9,-1
 193 0 l 1,10,-1
 61 0 l 1,7,-1
750 0 m 1,11,-1
 393 561 l 1,12,-1
 502 652 l 1,13,-1
 918 0 l 1,14,-1
 750 0 l 1,11,-1
EndSplineSet
EndChar

StartChar: l
Encoding: 1114124 -1 707
Width: 433
GlyphClass: 2
Flags: W
AnchorPoint: "Anchor-1" 374 1490 basechar 0
AnchorPoint: "Anchor-0" 126 0 basechar 0
LayerCount: 2
Fore
SplineSet
439 1490 m 1,0,-1
 192 0 l 1,1,-1
 60 0 l 1,2,-1
 307 1490 l 1,3,-1
 439 1490 l 1,0,-1
EndSplineSet
Substitution2: "'smcp' Lowercase to Small Capitals in Latin lookup 68 subtable" l.sc
Substitution2: "'c2sc' Capitals to Small Capitals in Latin lookup 67 subtable" l.sc
Substitution2: "'cv05' Character Variants 05 in Latin lookup 59 subtable" l.ss02
Substitution2: "'ss04' Style Set 4 in Latin lookup 50 subtable" l.ss02
Substitution2: "'ss02' Style Set 2 in Latin lookup 48 subtable" l.ss02
Substitution2: "'salt' Stylistic Alternatives in Latin lookup 46 subtable" l.ss02
Substitution2: "'sups' Superscript in Latin lookup 39 subtable" l.sups
Substitution2: "'subs' Subscript in Latin lookup 38 subtable" l.subs
Substitution2: "'sinf' Scientific Inferiors in Latin lookup 18 subtable" l.subs
AlternateSubs2: "'aalt' Access All Alternates in Latin lookup 1 subtable" l.sc l.sups l.subs
EndChar

StartChar: lrthook
Encoding: 621 621 711
Width: 433
GlyphClass: 2
Flags: W
AnchorPoint: "Anchor-1" 374 1490 basechar 0
AnchorPoint: "Anchor-0" 126 0 basechar 0
LayerCount: 2
Fore
SplineSet
243 -420 m 0,0,1
 121 -420 121 -420 65.5 -362 c 128,-1,2
 10 -304 10 -304 30 -186 c 2,3,-1
 60 0 l 1,4,-1
 192 0 l 1,5,-1
 162 -186 l 2,6,7
 151 -249 151 -249 178 -277 c 128,-1,8
 205 -305 205 -305 278 -305 c 0,9,10
 291 -305 291 -305 314.5 -304.5 c 128,-1,11
 338 -304 338 -304 355 -303 c 1,12,-1
 336 -418 l 1,13,14
 318 -419 318 -419 294 -419.5 c 128,-1,15
 270 -420 270 -420 243 -420 c 0,0,1
439 1490 m 1,16,-1
 192 0 l 1,17,-1
 60 0 l 1,18,-1
 307 1490 l 1,19,-1
 439 1490 l 1,16,-1
EndSplineSet
EndChar

StartChar: uni026C
Encoding: 1114128 -1 712
Width: 763
Flags: W
LayerCount: 2
Fore
SplineSet
758 624 m 1,0,-1
 315 624 l 2,1,2
 237 624 237 624 177 655.5 c 128,-1,3
 117 687 117 687 88 745 c 128,-1,4
 59 803 59 803 70 879 c 0,5,6
 83 949 83 949 126 1006 c 128,-1,7
 169 1063 169 1063 235.5 1097 c 128,-1,8
 302 1131 302 1131 383 1131 c 0,9,10
 448 1131 448 1131 495 1110.5 c 128,-1,11
 542 1090 542 1090 571 1053 c 128,-1,12
 600 1016 600 1016 609 965 c 128,-1,13
 618 914 618 914 609 854 c 2,14,-1
 554 525 l 1,15,-1
 422 525 l 1,16,-1
 477 867 l 2,17,18
 488 926 488 926 461 970 c 128,-1,19
 434 1014 434 1014 362 1014 c 0,20,21
 326 1014 326 1014 293.5 995 c 128,-1,22
 261 976 261 976 238 945.5 c 128,-1,23
 215 915 215 915 209 877 c 0,24,25
 201 825 201 825 236 786.5 c 128,-1,26
 271 748 271 748 335 747 c 2,27,-1
 778 748 l 1,28,-1
 758 624 l 1,0,-1
714 1490 m 1,29,-1
 467 0 l 1,30,-1
 334 0 l 1,31,-1
 580 1490 l 1,32,-1
 714 1490 l 1,29,-1
EndSplineSet
Substitution2: "'cv05' Character Variants 05 in Latin lookup 59 subtable" uni026C.ss02
Substitution2: "'ss04' Style Set 4 in Latin lookup 50 subtable" uni026C.ss02
Substitution2: "'ss02' Style Set 2 in Latin lookup 48 subtable" uni026C.ss02
Substitution2: "'salt' Stylistic Alternatives in Latin lookup 46 subtable" uni026C.ss02
EndChar

StartChar: uni0234
Encoding: 564 564 713
Width: 753
GlyphClass: 2
Flags: W
AnchorPoint: "Anchor-1" 374 1490 basechar 0
AnchorPoint: "Anchor-0" 126 0 basechar 0
LayerCount: 2
Fore
SplineSet
286 -415 m 0,0,1
 185 -415 185 -415 127 -373 c 128,-1,2
 69 -331 69 -331 48.5 -264 c 128,-1,3
 28 -197 28 -197 40 -121 c 2,4,-1
 90 182 l 1,5,-1
 222 182 l 1,6,-1
 170 -133 l 2,7,8
 157 -213 157 -213 197 -256.5 c 128,-1,9
 237 -300 237 -300 304 -300 c 0,10,11
 367 -300 367 -300 414.5 -262 c 128,-1,12
 462 -224 462 -224 473 -164 c 0,13,14
 482 -107 482 -107 451 -70 c 128,-1,15
 420 -33 420 -33 360 -28 c 0,16,17
 319 -24 319 -24 279 -38 c 128,-1,18
 239 -52 239 -52 197.5 -84.5 c 128,-1,19
 156 -117 156 -117 108 -168 c 1,20,-1
 -132 -387 l 1,21,-1
 -206 -301 l 1,22,-1
 1 -110 l 1,23,24
 101 -7 101 -7 195.5 41 c 128,-1,25
 290 89 290 89 376 89 c 0,26,27
 494 89 494 89 560.5 19 c 128,-1,28
 627 -51 627 -51 609 -163 c 0,29,30
 590 -276 590 -276 501 -345.5 c 128,-1,31
 412 -415 412 -415 286 -415 c 0,0,1
439 1490 m 1,32,-1
 192 0 l 1,33,-1
 60 0 l 1,34,-1
 307 1490 l 1,35,-1
 439 1490 l 1,32,-1
EndSplineSet
EndChar

StartChar: l.ss02
Encoding: 57424 57424 722
AltUni2: 00006c.ffffffff.0
Width: 483
GlyphClass: 2
Flags: W
AnchorPoint: "Anchor-1" 373 1490 basechar 0
AnchorPoint: "Anchor-0" 193 0 basechar 0
LayerCount: 2
Fore
SplineSet
301 -3 m 0,0,1
 179 -7 179 -7 128.5 48 c 128,-1,2
 78 103 78 103 97 221 c 2,3,-1
 308 1490 l 1,4,-1
 440 1490 l 1,5,-1
 232 242 l 2,6,7
 220 166 220 166 242 139 c 128,-1,8
 264 112 264 112 330 115 c 0,9,10
 344 116 344 116 354 116.5 c 128,-1,11
 364 117 364 117 373 118 c 1,12,-1
 367 4 l 1,13,14
 354 1 354 1 336.5 -1 c 128,-1,15
 319 -3 319 -3 301 -3 c 0,0,1
EndSplineSet
EndChar

StartChar: uni026C.ss02
Encoding: 57428 57428 726
AltUni2: 00026c.ffffffff.0
Width: 771
GlyphClass: 2
Flags: W
AnchorPoint: "Anchor-1" 645 1490 basechar 0
AnchorPoint: "Anchor-0" 465 0 basechar 0
LayerCount: 2
Fore
SplineSet
343 625 m 2,0,1
 189 625 189 625 119.5 695.5 c 128,-1,2
 50 766 50 766 70 881 c 0,3,4
 82 954 82 954 122.5 1010.5 c 128,-1,5
 163 1067 163 1067 223 1099 c 128,-1,6
 283 1131 283 1131 352 1131 c 0,7,8
 427 1131 427 1131 468.5 1095.5 c 128,-1,9
 510 1060 510 1060 522.5 999 c 128,-1,10
 535 938 535 938 523 860 c 2,11,-1
 513 803 l 1,12,-1
 465 803 l 1,13,-1
 476 872 l 2,14,15
 486 931 486 931 456.5 973 c 128,-1,16
 427 1015 427 1015 359 1015 c 0,17,18
 303 1015 303 1015 259 975.5 c 128,-1,19
 215 936 215 936 205 879 c 0,20,21
 196 824 196 824 229 781 c 128,-1,22
 262 738 262 738 327 738 c 2,23,-1
 748 738 l 1,24,-1
 729 625 l 1,25,-1
 343 625 l 2,0,1
573 -3 m 0,26,27
 451 -7 451 -7 400 48 c 128,-1,28
 349 103 349 103 369 221 c 2,29,-1
 580 1490 l 1,30,-1
 712 1490 l 1,31,-1
 504 242 l 2,32,33
 492 166 492 166 514 139 c 128,-1,34
 536 112 536 112 602 115 c 0,35,36
 616 116 616 116 626 116.5 c 128,-1,37
 636 117 636 117 645 118 c 1,38,-1
 639 4 l 1,39,40
 626 1 626 1 608.5 -1 c 128,-1,41
 591 -3 591 -3 573 -3 c 0,26,27
EndSplineSet
EndChar

StartChar: l.sc
Encoding: 60952 60952 736
Width: 788
GlyphClass: 2
Flags: W
AnchorPoint: "Anchor-1" 277 1087 basechar 0
AnchorPoint: "Anchor-0" 352 0 basechar 0
LayerCount: 2
Fore
SplineSet
30 0 m 1,0,-1
 210 1087 l 1,1,-1
 343 1087 l 1,2,-1
 181 115 l 1,3,-1
 703 115 l 1,4,-1
 684 0 l 1,5,-1
 30 0 l 1,0,-1
EndSplineSet
EndChar

StartChar: m
Encoding: 109 109 737
Width: 1741
GlyphClass: 2
Flags: W
AnchorPoint: "Anchor-1" 960 1087 basechar 0
AnchorPoint: "Anchor-0" 781 0 basechar 0
LayerCount: 2
Fore
SplineSet
60 0 m 1,0,-1
 240 1087 l 1,1,-1
 370 1087 l 1,2,-1
 330 848 l 1,3,-1
 313 852 l 1,4,5
 352 939 352 939 412.5 995 c 128,-1,6
 473 1051 473 1051 543.5 1078.5 c 128,-1,7
 614 1106 614 1106 684 1106 c 0,8,9
 769 1106 769 1106 830 1070.5 c 128,-1,10
 891 1035 891 1035 924 975 c 128,-1,11
 957 915 957 915 958 837 c 1,12,-1
 934 847 l 1,13,14
 968 926 968 926 1027 984 c 128,-1,15
 1086 1042 1086 1042 1164 1074 c 128,-1,16
 1242 1106 1242 1106 1328 1106 c 0,17,18
 1430 1106 1430 1106 1503 1061 c 128,-1,19
 1576 1016 1576 1016 1608.5 929.5 c 128,-1,20
 1641 843 1641 843 1620 717 c 2,21,-1
 1501 0 l 1,22,-1
 1369 0 l 1,23,-1
 1489 725 l 2,24,25
 1504 816 1504 816 1481.5 873 c 128,-1,26
 1459 930 1459 930 1409 957 c 128,-1,27
 1359 984 1359 984 1291 984 c 0,28,29
 1207 984 1207 984 1137.5 948 c 128,-1,30
 1068 912 1068 912 1022.5 849 c 128,-1,31
 977 786 977 786 963 702 c 2,32,-1
 847 0 l 1,33,-1
 715 0 l 1,34,-1
 837 737 l 2,35,36
 856 855 856 855 801 919.5 c 128,-1,37
 746 984 746 984 642 984 c 0,38,39
 565 984 565 984 494 948 c 128,-1,40
 423 912 423 912 372 844.5 c 128,-1,41
 321 777 321 777 306 685 c 2,42,-1
 192 0 l 1,43,-1
 60 0 l 1,0,-1
EndSplineSet
Substitution2: "'smcp' Lowercase to Small Capitals in Latin lookup 68 subtable" m.sc
Substitution2: "'c2sc' Capitals to Small Capitals in Latin lookup 67 subtable" m.sc
Substitution2: "'sups' Superscript in Latin lookup 39 subtable" m.sups
Substitution2: "'subs' Subscript in Latin lookup 38 subtable" m.subs
Substitution2: "'sinf' Scientific Inferiors in Latin lookup 18 subtable" m.subs
AlternateSubs2: "'aalt' Access All Alternates in Latin lookup 1 subtable" m.sups m.subs m.sc
EndChar

StartChar: uni0271
Encoding: 625 625 738
Width: 1741
GlyphClass: 2
Flags: W
AnchorPoint: "Anchor-1" 960 1087 basechar 0
AnchorPoint: "Anchor-0" 781 0 basechar 0
LayerCount: 2
Fore
SplineSet
1179 -420 m 0,0,1
 1152 -420 1152 -420 1128 -419.5 c 128,-1,2
 1104 -419 1104 -419 1087 -418 c 1,3,-1
 1105 -303 l 1,4,5
 1122 -304 1122 -304 1145.5 -304.5 c 128,-1,6
 1169 -305 1169 -305 1182 -305 c 0,7,8
 1257 -305 1257 -305 1292.5 -277 c 128,-1,9
 1328 -249 1328 -249 1338 -186 c 2,10,-1
 1369 0 l 1,11,-1
 1501 0 l 1,12,-1
 1470 -186 l 2,13,14
 1451 -304 1451 -304 1376.5 -362 c 128,-1,15
 1302 -420 1302 -420 1179 -420 c 0,0,1
60 0 m 1,16,-1
 240 1087 l 1,17,-1
 370 1087 l 1,18,-1
 330 848 l 1,19,-1
 313 852 l 1,20,21
 352 939 352 939 412.5 995 c 128,-1,22
 473 1051 473 1051 543.5 1078.5 c 128,-1,23
 614 1106 614 1106 684 1106 c 0,24,25
 769 1106 769 1106 830 1070.5 c 128,-1,26
 891 1035 891 1035 924 975 c 128,-1,27
 957 915 957 915 958 837 c 1,28,-1
 934 847 l 1,29,30
 968 926 968 926 1027 984 c 128,-1,31
 1086 1042 1086 1042 1164 1074 c 128,-1,32
 1242 1106 1242 1106 1328 1106 c 0,33,34
 1430 1106 1430 1106 1503 1061 c 128,-1,35
 1576 1016 1576 1016 1608.5 929.5 c 128,-1,36
 1641 843 1641 843 1620 717 c 2,37,-1
 1501 0 l 1,38,-1
 1369 0 l 1,39,-1
 1489 725 l 2,40,41
 1504 816 1504 816 1481.5 873 c 128,-1,42
 1459 930 1459 930 1409 957 c 128,-1,43
 1359 984 1359 984 1291 984 c 0,44,45
 1207 984 1207 984 1137.5 948 c 128,-1,46
 1068 912 1068 912 1022.5 849 c 128,-1,47
 977 786 977 786 963 702 c 2,48,-1
 847 0 l 1,49,-1
 715 0 l 1,50,-1
 837 737 l 2,51,52
 856 855 856 855 801 919.5 c 128,-1,53
 746 984 746 984 642 984 c 0,54,55
 565 984 565 984 494 948 c 128,-1,56
 423 912 423 912 372 844.5 c 128,-1,57
 321 777 321 777 306 685 c 2,58,-1
 192 0 l 1,59,-1
 60 0 l 1,16,-1
EndSplineSet
EndChar

StartChar: mturn
Encoding: 623 623 739
Width: 1741
GlyphClass: 2
Flags: W
AnchorPoint: "Anchor-1" 960 1087 basechar 0
AnchorPoint: "Anchor-0" 780 0 basechar 0
LayerCount: 2
Fore
SplineSet
1681 1087 m 1,0,-1
 1501 0 l 1,1,-1
 1372 0 l 1,2,-1
 1411 239 l 1,3,-1
 1429 236 l 1,4,5
 1389 150 1389 150 1329 93 c 128,-1,6
 1269 36 1269 36 1198.5 8.5 c 128,-1,7
 1128 -19 1128 -19 1058 -19 c 0,8,9
 972 -19 972 -19 911.5 16.5 c 128,-1,10
 851 52 851 52 818 113 c 128,-1,11
 785 174 785 174 783 250 c 1,12,-1
 807 242 l 1,13,14
 774 163 774 163 714.5 104.5 c 128,-1,15
 655 46 655 46 577.5 13.5 c 128,-1,16
 500 -19 500 -19 413 -19 c 0,17,18
 312 -19 312 -19 239 26 c 128,-1,19
 166 71 166 71 134 158 c 128,-1,20
 102 245 102 245 122 370 c 2,21,-1
 240 1087 l 1,22,-1
 373 1087 l 1,23,-1
 252 362 l 2,24,25
 238 272 238 272 260 215 c 128,-1,26
 282 158 282 158 332.5 130.5 c 128,-1,27
 383 103 383 103 451 103 c 0,28,29
 535 103 535 103 604 139 c 128,-1,30
 673 175 673 175 719 238.5 c 128,-1,31
 765 302 765 302 779 385 c 2,32,-1
 895 1087 l 1,33,-1
 1027 1087 l 1,34,-1
 905 351 l 2,35,36
 885 233 885 233 940 168 c 128,-1,37
 995 103 995 103 1099 103 c 0,38,39
 1176 103 1176 103 1247.5 139.5 c 128,-1,40
 1319 176 1319 176 1370 243 c 128,-1,41
 1421 310 1421 310 1436 404 c 2,42,-1
 1549 1087 l 1,43,-1
 1681 1087 l 1,0,-1
EndSplineSet
EndChar

StartChar: mturndescend
Encoding: 624 624 740
Width: 1741
GlyphClass: 2
Flags: W
AnchorPoint: "Anchor-1" 960 1087 basechar 0
AnchorPoint: "Anchor-0" 780 0 basechar 0
LayerCount: 2
Fore
SplineSet
1299 -418 m 1,0,-1
 1368 0 l 1,1,-1
 1497 0 l 1,2,-1
 1428 -418 l 1,3,-1
 1299 -418 l 1,0,-1
1681 1087 m 1,4,-1
 1501 0 l 1,5,-1
 1372 0 l 1,6,-1
 1411 239 l 1,7,-1
 1429 236 l 1,8,9
 1389 150 1389 150 1329 93 c 128,-1,10
 1269 36 1269 36 1198.5 8.5 c 128,-1,11
 1128 -19 1128 -19 1058 -19 c 0,12,13
 972 -19 972 -19 911.5 16.5 c 128,-1,14
 851 52 851 52 818 113 c 128,-1,15
 785 174 785 174 783 250 c 1,16,-1
 807 242 l 1,17,18
 774 163 774 163 714.5 104.5 c 128,-1,19
 655 46 655 46 577.5 13.5 c 128,-1,20
 500 -19 500 -19 413 -19 c 0,21,22
 312 -19 312 -19 239 26 c 128,-1,23
 166 71 166 71 134 158 c 128,-1,24
 102 245 102 245 122 370 c 2,25,-1
 240 1087 l 1,26,-1
 373 1087 l 1,27,-1
 252 362 l 2,28,29
 238 272 238 272 260 215 c 128,-1,30
 282 158 282 158 332.5 130.5 c 128,-1,31
 383 103 383 103 451 103 c 0,32,33
 535 103 535 103 604 139 c 128,-1,34
 673 175 673 175 719 238.5 c 128,-1,35
 765 302 765 302 779 385 c 2,36,-1
 895 1087 l 1,37,-1
 1027 1087 l 1,38,-1
 905 351 l 2,39,40
 885 233 885 233 940 168 c 128,-1,41
 995 103 995 103 1099 103 c 0,42,43
 1176 103 1176 103 1247.5 139.5 c 128,-1,44
 1319 176 1319 176 1370 243 c 128,-1,45
 1421 310 1421 310 1436 404 c 2,46,-1
 1549 1087 l 1,47,-1
 1681 1087 l 1,4,-1
EndSplineSet
EndChar

StartChar: n
Encoding: 110 110 744
Width: 1155
GlyphClass: 2
Flags: W
AnchorPoint: "Anchor-1" 668 1087 basechar 0
AnchorPoint: "Anchor-0" 488 0 basechar 0
LayerCount: 2
Fore
SplineSet
302 665 m 2,0,-1
 192 0 l 1,1,-1
 60 0 l 1,2,-1
 240 1087 l 1,3,-1
 369 1087 l 1,4,-1
 327 832 l 1,5,-1
 298 835 l 1,6,7
 368 977 368 977 474 1040.5 c 128,-1,8
 580 1104 580 1104 704 1104 c 0,9,10
 818 1104 818 1104 898.5 1055.5 c 128,-1,11
 979 1007 979 1007 1015.5 915.5 c 128,-1,12
 1052 824 1052 824 1029 691 c 2,13,-1
 915 0 l 1,14,-1
 782 0 l 1,15,-1
 897 691 l 2,16,17
 921 831 921 831 859.5 906.5 c 128,-1,18
 798 982 798 982 672 982 c 0,19,20
 583 982 583 982 505 944.5 c 128,-1,21
 427 907 427 907 373 836.5 c 128,-1,22
 319 766 319 766 302 665 c 2,0,-1
EndSplineSet
Substitution2: "'smcp' Lowercase to Small Capitals in Latin lookup 68 subtable" n.sc
Substitution2: "'c2sc' Capitals to Small Capitals in Latin lookup 67 subtable" n.sc
Substitution2: "'sups' Superscript in Latin lookup 39 subtable" n.sups
Substitution2: "'subs' Subscript in Latin lookup 38 subtable" n.subs
Substitution2: "'numr' Numerators in Latin lookup 19 subtable" n.numr
Substitution2: "'sinf' Scientific Inferiors in Latin lookup 18 subtable" n.subs
AlternateSubs2: "'aalt' Access All Alternates in Latin lookup 1 subtable" n.sc n.numr n.sups n.subs
EndChar

StartChar: nrthook
Encoding: 627 627 746
Width: 1155
GlyphClass: 2
Flags: W
AnchorPoint: "Anchor-1" 668 1087 basechar 0
AnchorPoint: "Anchor-0" 488 0 basechar 0
LayerCount: 2
Fore
SplineSet
965 -420 m 0,0,1
 843 -420 843 -420 788 -362 c 128,-1,2
 733 -304 733 -304 752 -186 c 2,3,-1
 782 0 l 1,4,-1
 915 0 l 1,5,-1
 884 -186 l 2,6,7
 873 -249 873 -249 900 -277 c 128,-1,8
 927 -305 927 -305 1000 -305 c 0,9,10
 1013 -305 1013 -305 1036.5 -304.5 c 128,-1,11
 1060 -304 1060 -304 1077 -303 c 1,12,-1
 1059 -418 l 1,13,14
 1040 -419 1040 -419 1016.5 -419.5 c 128,-1,15
 993 -420 993 -420 965 -420 c 0,0,1
302 665 m 2,16,-1
 192 0 l 1,17,-1
 60 0 l 1,18,-1
 240 1087 l 1,19,-1
 369 1087 l 1,20,-1
 327 832 l 1,21,-1
 298 835 l 1,22,23
 368 977 368 977 474 1040.5 c 128,-1,24
 580 1104 580 1104 704 1104 c 0,25,26
 818 1104 818 1104 898.5 1055.5 c 128,-1,27
 979 1007 979 1007 1015.5 915.5 c 128,-1,28
 1052 824 1052 824 1029 691 c 2,29,-1
 915 0 l 1,30,-1
 782 0 l 1,31,-1
 897 691 l 2,32,33
 921 831 921 831 859.5 906.5 c 128,-1,34
 798 982 798 982 672 982 c 0,35,36
 583 982 583 982 505 944.5 c 128,-1,37
 427 907 427 907 373 836.5 c 128,-1,38
 319 766 319 766 302 665 c 2,16,-1
EndSplineSet
EndChar

StartChar: eng
Encoding: 331 331 747
Width: 1155
GlyphClass: 2
Flags: W
AnchorPoint: "Anchor-1" 668 1087 basechar 0
AnchorPoint: "Anchor-0" 488 0 basechar 0
LayerCount: 2
Fore
SplineSet
497 -418 m 1,0,-1
 517 -297 l 1,1,2
 534 -299 534 -299 560.5 -299 c 128,-1,3
 587 -299 587 -299 600 -299 c 0,4,5
 672 -299 672 -299 707 -272 c 128,-1,6
 742 -245 742 -245 752 -181 c 2,7,-1
 782 0 l 1,8,-1
 915 0 l 1,9,-1
 884 -186 l 2,10,11
 864 -304 864 -304 789.5 -362 c 128,-1,12
 715 -420 715 -420 592 -420 c 0,13,14
 566 -420 566 -420 540.5 -419.5 c 128,-1,15
 515 -419 515 -419 497 -418 c 1,0,-1
302 665 m 2,16,-1
 192 0 l 1,17,-1
 60 0 l 1,18,-1
 240 1087 l 1,19,-1
 369 1087 l 1,20,-1
 327 832 l 1,21,-1
 298 835 l 1,22,23
 368 977 368 977 474 1040.5 c 128,-1,24
 580 1104 580 1104 704 1104 c 0,25,26
 818 1104 818 1104 898.5 1055.5 c 128,-1,27
 979 1007 979 1007 1015.5 915.5 c 128,-1,28
 1052 824 1052 824 1029 691 c 2,29,-1
 915 0 l 1,30,-1
 782 0 l 1,31,-1
 897 691 l 2,32,33
 921 831 921 831 859.5 906.5 c 128,-1,34
 798 982 798 982 672 982 c 0,35,36
 583 982 583 982 505 944.5 c 128,-1,37
 427 907 427 907 373 836.5 c 128,-1,38
 319 766 319 766 302 665 c 2,16,-1
EndSplineSet
EndChar

StartChar: uni0235
Encoding: 565 565 748
Width: 1475
GlyphClass: 2
Flags: W
AnchorPoint: "Anchor-1" 668 1087 basechar 0
AnchorPoint: "Anchor-0" 488 0 basechar 0
LayerCount: 2
Fore
SplineSet
1008 -415 m 0,0,1
 908 -415 908 -415 849.5 -373 c 128,-1,2
 791 -331 791 -331 771 -264 c 128,-1,3
 751 -197 751 -197 763 -121 c 2,4,-1
 812 182 l 1,5,-1
 945 182 l 1,6,-1
 893 -133 l 2,7,8
 880 -213 880 -213 920 -256.5 c 128,-1,9
 960 -300 960 -300 1027 -300 c 0,10,11
 1090 -300 1090 -300 1137.5 -262 c 128,-1,12
 1185 -224 1185 -224 1195 -164 c 0,13,14
 1205 -107 1205 -107 1173.5 -70 c 128,-1,15
 1142 -33 1142 -33 1083 -28 c 0,16,17
 1041 -24 1041 -24 1001 -38 c 128,-1,18
 961 -52 961 -52 919.5 -84.5 c 128,-1,19
 878 -117 878 -117 831 -168 c 1,20,-1
 590 -387 l 1,21,-1
 517 -301 l 1,22,-1
 724 -110 l 1,23,24
 823 -7 823 -7 917.5 41 c 128,-1,25
 1012 89 1012 89 1099 89 c 0,26,27
 1216 89 1216 89 1283 19 c 128,-1,28
 1350 -51 1350 -51 1332 -163 c 0,29,30
 1313 -276 1313 -276 1224 -345.5 c 128,-1,31
 1135 -415 1135 -415 1008 -415 c 0,0,1
302 665 m 2,32,-1
 192 0 l 1,33,-1
 60 0 l 1,34,-1
 240 1087 l 1,35,-1
 369 1087 l 1,36,-1
 327 832 l 1,37,-1
 298 835 l 1,38,39
 368 977 368 977 474 1040.5 c 128,-1,40
 580 1104 580 1104 704 1104 c 0,41,42
 818 1104 818 1104 898.5 1055.5 c 128,-1,43
 979 1007 979 1007 1015.5 915.5 c 128,-1,44
 1052 824 1052 824 1029 691 c 2,45,-1
 915 0 l 1,46,-1
 782 0 l 1,47,-1
 897 691 l 2,48,49
 921 831 921 831 859.5 906.5 c 128,-1,50
 798 982 798 982 672 982 c 0,51,52
 583 982 583 982 505 944.5 c 128,-1,53
 427 907 427 907 373 836.5 c 128,-1,54
 319 766 319 766 302 665 c 2,32,-1
EndSplineSet
EndChar

StartChar: nlfthook
Encoding: 626 626 749
Width: 1155
GlyphClass: 2
Flags: W
AnchorPoint: "Anchor-1" 668 1087 basechar 0
AnchorPoint: "Anchor-0" 488 0 basechar 0
LayerCount: 2
Fore
SplineSet
-129 -420 m 0,0,1
 -156 -420 -156 -420 -180 -419.5 c 128,-1,2
 -204 -419 -204 -419 -221 -418 c 1,3,-1
 -202 -303 l 1,4,5
 -186 -304 -186 -304 -162.5 -304.5 c 128,-1,6
 -139 -305 -139 -305 -126 -305 c 0,7,8
 -52 -305 -52 -305 -16 -277 c 128,-1,9
 20 -249 20 -249 30 -186 c 2,10,-1
 60 0 l 1,11,-1
 193 0 l 1,12,-1
 162 -186 l 2,13,14
 142 -304 142 -304 67.5 -362 c 128,-1,15
 -7 -420 -7 -420 -129 -420 c 0,0,1
302 665 m 2,16,-1
 192 0 l 1,17,-1
 60 0 l 1,18,-1
 240 1087 l 1,19,-1
 369 1087 l 1,20,-1
 327 832 l 1,21,-1
 298 835 l 1,22,23
 368 977 368 977 474 1040.5 c 128,-1,24
 580 1104 580 1104 704 1104 c 0,25,26
 818 1104 818 1104 898.5 1055.5 c 128,-1,27
 979 1007 979 1007 1015.5 915.5 c 128,-1,28
 1052 824 1052 824 1029 691 c 2,29,-1
 915 0 l 1,30,-1
 782 0 l 1,31,-1
 897 691 l 2,32,33
 921 831 921 831 859.5 906.5 c 128,-1,34
 798 982 798 982 672 982 c 0,35,36
 583 982 583 982 505 944.5 c 128,-1,37
 427 907 427 907 373 836.5 c 128,-1,38
 319 766 319 766 302 665 c 2,16,-1
EndSplineSet
EndChar

StartChar: n.sc
Encoding: 60953 60953 760
Width: 1240
GlyphClass: 2
Flags: W
AnchorPoint: "Anchor-1" 710 1087 basechar 0
AnchorPoint: "Anchor-0" 530 0 basechar 0
LayerCount: 2
Fore
SplineSet
61 0 m 1,0,-1
 241 1087 l 1,1,-1
 409 1087 l 1,2,-1
 766 411 l 2,3,4
 810 324 810 324 846.5 246 c 128,-1,5
 883 168 883 168 915 92 c 1,6,-1
 886 92 l 1,7,8
 894 144 894 144 902.5 196.5 c 128,-1,9
 911 249 911 249 919 302.5 c 128,-1,10
 927 356 927 356 937 411 c 2,11,-1
 1048 1087 l 1,12,-1
 1180 1087 l 1,13,-1
 1000 0 l 1,14,-1
 835 0 l 1,15,-1
 477 678 l 2,16,17
 433 764 433 764 397 841.5 c 128,-1,18
 361 919 361 919 327 998 c 1,19,-1
 355 998 l 1,20,21
 348 948 348 948 340 896 c 128,-1,22
 332 844 332 844 323.5 789.5 c 128,-1,23
 315 735 315 735 305 678 c 2,24,-1
 193 0 l 1,25,-1
 61 0 l 1,0,-1
EndSplineSet
EndChar

StartChar: o
Encoding: 111 111 761
Width: 1158
GlyphClass: 2
Flags: W
AnchorPoint: "Anchor-4" 1067 540 basechar 0
AnchorPoint: "Anchor-1" 670 1087 basechar 0
AnchorPoint: "Anchor-0" 490 0 basechar 0
LayerCount: 2
Fore
SplineSet
494 -23 m 0,0,1
 366 -23 366 -23 274 33.5 c 128,-1,2
 182 90 182 90 132 190.5 c 128,-1,3
 82 291 82 291 82 424 c 0,4,5
 82 552 82 552 123 673.5 c 128,-1,6
 164 795 164 795 241 892.5 c 128,-1,7
 318 990 318 990 425.5 1047.5 c 128,-1,8
 533 1105 533 1105 664 1105 c 0,9,10
 792 1105 792 1105 884 1049 c 128,-1,11
 976 993 976 993 1026 892.5 c 128,-1,12
 1076 792 1076 792 1076 658 c 0,13,14
 1076 528 1076 528 1034.5 406.5 c 128,-1,15
 993 285 993 285 916 188 c 128,-1,16
 839 91 839 91 732 34 c 128,-1,17
 625 -23 625 -23 494 -23 c 0,0,1
496 98 m 0,18,19
 602 98 602 98 684.5 147 c 128,-1,20
 767 196 767 196 825.5 277.5 c 128,-1,21
 884 359 884 359 914 458.5 c 128,-1,22
 944 558 944 558 944 657 c 0,23,24
 944 755 944 755 912 828.5 c 128,-1,25
 880 902 880 902 817 943.5 c 128,-1,26
 754 985 754 985 661 985 c 0,27,28
 558 985 558 985 475.5 936.5 c 128,-1,29
 393 888 393 888 334.5 807 c 128,-1,30
 276 726 276 726 245 626 c 128,-1,31
 214 526 214 526 214 424 c 0,32,33
 214 278 214 278 286 188 c 128,-1,34
 358 98 358 98 496 98 c 0,18,19
EndSplineSet
Substitution2: "Single Substitution lookup 44 subtable" ordmasculine
Substitution2: "'sups' Superscript in Latin lookup 39 subtable" o.sups
Substitution2: "'subs' Subscript in Latin lookup 38 subtable" o.subs
Substitution2: "'sinf' Scientific Inferiors in Latin lookup 18 subtable" o.subs
AlternateSubs2: "'aalt' Access All Alternates in Latin lookup 1 subtable" ordmasculine o.sups o.subs
EndChar

StartChar: ohorn
Encoding: 417 417 765
Width: 1156
GlyphClass: 2
Flags: W
AnchorPoint: "Anchor-4" 1067 540 basechar 0
AnchorPoint: "Anchor-1" 670 1087 basechar 0
AnchorPoint: "Anchor-0" 490 0 basechar 0
LayerCount: 2
Fore
SplineSet
654 1007 m 1,0,-1
 670 1105 l 1,1,2
 716 1104 716 1104 754 1101.5 c 128,-1,3
 792 1099 792 1099 830 1096.5 c 128,-1,4
 868 1094 868 1094 912.5 1092 c 128,-1,5
 957 1090 957 1090 1014 1090 c 0,6,7
 1051 1090 1051 1090 1058 1127 c 2,8,-1
 1089 1311 l 1,9,-1
 1211 1311 l 1,10,-1
 1182 1146 l 2,11,12
 1174 1095 1174 1095 1151 1061.5 c 128,-1,13
 1128 1028 1128 1028 1091 1011.5 c 128,-1,14
 1054 995 1054 995 1003 995 c 0,15,16
 917 995 917 995 829.5 1000 c 128,-1,17
 742 1005 742 1005 654 1007 c 1,0,-1
494 -23 m 0,18,19
 366 -23 366 -23 274 33.5 c 128,-1,20
 182 90 182 90 132 190.5 c 128,-1,21
 82 291 82 291 82 424 c 0,22,23
 82 552 82 552 123 673.5 c 128,-1,24
 164 795 164 795 241 892.5 c 128,-1,25
 318 990 318 990 425.5 1047.5 c 128,-1,26
 533 1105 533 1105 664 1105 c 0,27,28
 792 1105 792 1105 884 1049 c 128,-1,29
 976 993 976 993 1026 892.5 c 128,-1,30
 1076 792 1076 792 1076 658 c 0,31,32
 1076 528 1076 528 1034.5 406.5 c 128,-1,33
 993 285 993 285 916 188 c 128,-1,34
 839 91 839 91 732 34 c 128,-1,35
 625 -23 625 -23 494 -23 c 0,18,19
496 98 m 0,36,37
 602 98 602 98 684.5 147 c 128,-1,38
 767 196 767 196 825.5 277.5 c 128,-1,39
 884 359 884 359 914 458.5 c 128,-1,40
 944 558 944 558 944 657 c 0,41,42
 944 755 944 755 912 828.5 c 128,-1,43
 880 902 880 902 817 943.5 c 128,-1,44
 754 985 754 985 661 985 c 0,45,46
 558 985 558 985 475.5 936.5 c 128,-1,47
 393 888 393 888 334.5 807 c 128,-1,48
 276 726 276 726 245 626 c 128,-1,49
 214 526 214 526 214 424 c 0,50,51
 214 278 214 278 286 188 c 128,-1,52
 358 98 358 98 496 98 c 0,36,37
EndSplineSet
EndChar

StartChar: uni1EE1
Encoding: 7905 7905 795
Width: 1156
GlyphClass: 2
Flags: W
AnchorPoint: "Anchor-4" 1067 540 basechar 0
AnchorPoint: "Anchor-1" 737 1497 basechar 0
AnchorPoint: "Anchor-0" 490 0 basechar 0
LayerCount: 2
Fore
SplineSet
494 -23 m 0,0,1
 366 -23 366 -23 274 33.5 c 128,-1,2
 182 90 182 90 132 190.5 c 128,-1,3
 82 291 82 291 82 424 c 0,4,5
 82 552 82 552 123 673.5 c 128,-1,6
 164 795 164 795 241 892.5 c 128,-1,7
 318 990 318 990 425.5 1047.5 c 128,-1,8
 533 1105 533 1105 664 1105 c 0,9,10
 792 1105 792 1105 884 1049 c 128,-1,11
 976 993 976 993 1026 892.5 c 128,-1,12
 1076 792 1076 792 1076 658 c 0,13,14
 1076 528 1076 528 1034.5 406.5 c 128,-1,15
 993 285 993 285 916 188 c 128,-1,16
 839 91 839 91 732 34 c 128,-1,17
 625 -23 625 -23 494 -23 c 0,0,1
496 98 m 0,18,19
 602 98 602 98 684.5 147 c 128,-1,20
 767 196 767 196 825.5 277.5 c 128,-1,21
 884 359 884 359 914 458.5 c 128,-1,22
 944 558 944 558 944 657 c 0,23,24
 944 755 944 755 912 828.5 c 128,-1,25
 880 902 880 902 817 943.5 c 128,-1,26
 754 985 754 985 661 985 c 0,27,28
 558 985 558 985 475.5 936.5 c 128,-1,29
 393 888 393 888 334.5 807 c 128,-1,30
 276 726 276 726 245 626 c 128,-1,31
 214 526 214 526 214 424 c 0,32,33
 214 278 214 278 286 188 c 128,-1,34
 358 98 358 98 496 98 c 0,18,19
654 1007 m 1,35,-1
 670 1105 l 1,36,37
 716 1104 716 1104 754 1101.5 c 128,-1,38
 792 1099 792 1099 830 1096.5 c 128,-1,39
 868 1094 868 1094 912.5 1092 c 128,-1,40
 957 1090 957 1090 1014 1090 c 0,41,42
 1051 1090 1051 1090 1058 1127 c 2,43,-1
 1089 1311 l 1,44,-1
 1211 1311 l 1,45,-1
 1182 1146 l 2,46,47
 1174 1095 1174 1095 1151 1061.5 c 128,-1,48
 1128 1028 1128 1028 1091 1011.5 c 128,-1,49
 1054 995 1054 995 1003 995 c 0,50,51
 917 995 917 995 829.5 1000 c 128,-1,52
 742 1005 742 1005 654 1007 c 1,35,-1
835 1296 m 0,53,54
 796 1296 796 1296 764.5 1310.5 c 128,-1,55
 733 1325 733 1325 706.5 1344 c 128,-1,56
 680 1363 680 1363 655.5 1376.5 c 128,-1,57
 631 1390 631 1390 607 1390 c 0,58,59
 573 1390 573 1390 550 1364 c 128,-1,60
 527 1338 527 1338 519 1302 c 1,61,-1
 420 1302 l 1,62,63
 438 1384 438 1384 487 1437.5 c 128,-1,64
 536 1491 536 1491 610 1491 c 0,65,66
 651 1491 651 1491 681.5 1476.5 c 128,-1,67
 712 1462 712 1462 737 1443.5 c 128,-1,68
 762 1425 762 1425 785.5 1410 c 128,-1,69
 809 1395 809 1395 836 1395 c 0,70,71
 867 1395 867 1395 888 1416.5 c 128,-1,72
 909 1438 909 1438 924 1485 c 1,73,-1
 1021 1485 l 1,74,75
 1000 1398 1000 1398 951 1347 c 128,-1,76
 902 1296 902 1296 835 1296 c 0,53,54
EndSplineSet
Ligature2: "'ccmp' Glyph Composition/Decomposition in Latin lookup 6 subtable" ohorn tildecomb
EndChar

StartChar: obar
Encoding: 629 629 808
Width: 1158
GlyphClass: 2
Flags: W
AnchorPoint: "Anchor-4" 1067 540 basechar 0
AnchorPoint: "Anchor-1" 670 1087 basechar 0
AnchorPoint: "Anchor-0" 490 0 basechar 0
LayerCount: 2
Fore
SplineSet
994 600 m 1,0,-1
 974 487 l 1,1,-1
 164 487 l 1,2,-1
 184 600 l 1,3,-1
 994 600 l 1,0,-1
494 -23 m 0,4,5
 366 -23 366 -23 274 33.5 c 128,-1,6
 182 90 182 90 132 190.5 c 128,-1,7
 82 291 82 291 82 424 c 0,8,9
 82 552 82 552 123 673.5 c 128,-1,10
 164 795 164 795 241 892.5 c 128,-1,11
 318 990 318 990 425.5 1047.5 c 128,-1,12
 533 1105 533 1105 664 1105 c 0,13,14
 792 1105 792 1105 884 1049 c 128,-1,15
 976 993 976 993 1026 892.5 c 128,-1,16
 1076 792 1076 792 1076 658 c 0,17,18
 1076 528 1076 528 1034.5 406.5 c 128,-1,19
 993 285 993 285 916 188 c 128,-1,20
 839 91 839 91 732 34 c 128,-1,21
 625 -23 625 -23 494 -23 c 0,4,5
496 98 m 0,22,23
 602 98 602 98 684.5 147 c 128,-1,24
 767 196 767 196 825.5 277.5 c 128,-1,25
 884 359 884 359 914 458.5 c 128,-1,26
 944 558 944 558 944 657 c 0,27,28
 944 755 944 755 912 828.5 c 128,-1,29
 880 902 880 902 817 943.5 c 128,-1,30
 754 985 754 985 661 985 c 0,31,32
 558 985 558 985 475.5 936.5 c 128,-1,33
 393 888 393 888 334.5 807 c 128,-1,34
 276 726 276 726 245 626 c 128,-1,35
 214 526 214 526 214 424 c 0,36,37
 214 278 214 278 286 188 c 128,-1,38
 358 98 358 98 496 98 c 0,22,23
EndSplineSet
EndChar

StartChar: oe.sc
Encoding: 60954 60954 812
Width: 1463
GlyphClass: 2
Flags: W
AnchorPoint: "Anchor-4" 1311 0 basechar 0
AnchorPoint: "Anchor-3" 965 0 basechar 0
AnchorPoint: "Anchor-1" 1143 1087 basechar 0
AnchorPoint: "Anchor-0" 963 0 basechar 0
LayerCount: 2
Fore
SplineSet
614 0 m 1,0,-1
 794 1087 l 1,1,-1
 1487 1087 l 1,2,-1
 1468 972 l 1,3,-1
 907 972 l 1,4,-1
 848 607 l 1,5,-1
 1367 607 l 1,6,-1
 1347 494 l 1,7,-1
 828 494 l 1,8,-1
 765 115 l 1,9,-1
 1329 115 l 1,10,-1
 1311 0 l 1,11,-1
 614 0 l 1,0,-1
495 0 m 2,12,13
 346 0 346 0 246 67 c 128,-1,14
 146 134 146 134 105 256 c 128,-1,15
 64 378 64 378 92 544 c 0,16,17
 118 709 118 709 199 831 c 128,-1,18
 280 953 280 953 400.5 1019.5 c 128,-1,19
 521 1086 521 1086 671 1087 c 2,20,-1
 854 1087 l 1,21,-1
 836 973 l 1,22,-1
 656 973 l 2,23,24
 545 973 545 973 454.5 921.5 c 128,-1,25
 364 870 364 870 303.5 774 c 128,-1,26
 243 678 243 678 219 544 c 0,27,28
 198 411 198 411 225.5 314.5 c 128,-1,29
 253 218 253 218 327.5 166 c 128,-1,30
 402 114 402 114 518 114 c 2,31,-1
 692 114 l 1,32,-1
 672 0 l 1,33,-1
 495 0 l 2,12,13
EndSplineSet
EndChar

StartChar: p
Encoding: 112 112 814
Width: 1189
GlyphClass: 2
Flags: W
AnchorPoint: "Anchor-1" 729 1087 basechar 0
AnchorPoint: "Anchor-0" 56 -417 basechar 0
LayerCount: 2
Fore
SplineSet
-9 -418 m 1,0,-1
 240 1087 l 1,1,-1
 369 1087 l 1,2,-1
 335 881 l 1,3,-1
 339 881 l 1,4,5
 374 943 374 943 430 993.5 c 128,-1,6
 486 1044 486 1044 560 1074 c 128,-1,7
 634 1104 634 1104 722 1104 c 0,8,9
 842 1104 842 1104 928 1050 c 128,-1,10
 1014 996 1014 996 1061 898.5 c 128,-1,11
 1108 801 1108 801 1108 668 c 0,12,13
 1108 543 1108 543 1070 420 c 128,-1,14
 1032 297 1032 297 960 197.5 c 128,-1,15
 888 98 888 98 785 38.5 c 128,-1,16
 682 -21 682 -21 553 -21 c 0,17,18
 461 -21 461 -21 396.5 11.5 c 128,-1,19
 332 44 332 44 292 96 c 128,-1,20
 252 148 252 148 234 209 c 1,21,-1
 227 209 l 1,22,-1
 123 -418 l 1,23,-1
 -9 -418 l 1,0,-1
538 99 m 0,24,25
 642 99 642 99 723 148.5 c 128,-1,26
 804 198 804 198 860.5 280.5 c 128,-1,27
 917 363 917 363 946 463.5 c 128,-1,28
 975 564 975 564 975 666 c 0,29,30
 975 813 975 813 904 899 c 128,-1,31
 833 985 833 985 702 985 c 0,32,33
 597 985 597 985 516 935 c 128,-1,34
 435 885 435 885 379 802.5 c 128,-1,35
 323 720 323 720 294 620 c 128,-1,36
 265 520 265 520 265 419 c 0,37,38
 265 273 265 273 336 186 c 128,-1,39
 407 99 407 99 538 99 c 0,24,25
EndSplineSet
Substitution2: "'sups' Superscript in Latin lookup 39 subtable" p.sups
Substitution2: "'subs' Subscript in Latin lookup 38 subtable" p.subs
Substitution2: "'sinf' Scientific Inferiors in Latin lookup 18 subtable" p.subs
AlternateSubs2: "'aalt' Access All Alternates in Latin lookup 1 subtable" p.sups p.subs
EndChar

StartChar: uni048F
Encoding: 1167 1167 815
Width: 1204
GlyphClass: 2
Flags: W
AnchorPoint: "Anchor-1" 727 1087 basechar 0
AnchorPoint: "Anchor-0" 53 -417 basechar 0
LayerCount: 2
Fore
SplineSet
737 350 m 1,0,-1
 999 8 l 1,1,-1
 897 -77 l 1,2,-1
 636 266 l 1,3,-1
 737 350 l 1,0,-1
-12 -418 m 1,4,-1
 237 1087 l 1,5,-1
 366 1087 l 1,6,-1
 332 881 l 1,7,-1
 337 881 l 1,8,9
 372 943 372 943 428 993.5 c 128,-1,10
 484 1044 484 1044 557.5 1074 c 128,-1,11
 631 1104 631 1104 720 1104 c 0,12,13
 839 1104 839 1104 925 1050 c 128,-1,14
 1011 996 1011 996 1058 898.5 c 128,-1,15
 1105 801 1105 801 1105 668 c 0,16,17
 1105 543 1105 543 1067 420 c 128,-1,18
 1029 297 1029 297 957 197.5 c 128,-1,19
 885 98 885 98 782.5 38.5 c 128,-1,20
 680 -21 680 -21 550 -21 c 0,21,22
 458 -21 458 -21 393.5 11.5 c 128,-1,23
 329 44 329 44 289 96 c 128,-1,24
 249 148 249 148 232 209 c 1,25,-1
 224 209 l 1,26,-1
 120 -418 l 1,27,-1
 -12 -418 l 1,4,-1
535 99 m 0,28,29
 639 99 639 99 720 148.5 c 128,-1,30
 801 198 801 198 858 280.5 c 128,-1,31
 915 363 915 363 944 463.5 c 128,-1,32
 973 564 973 564 973 666 c 0,33,34
 973 813 973 813 901.5 899 c 128,-1,35
 830 985 830 985 699 985 c 0,36,37
 595 985 595 985 513.5 935 c 128,-1,38
 432 885 432 885 376 802.5 c 128,-1,39
 320 720 320 720 291.5 620 c 128,-1,40
 263 520 263 520 263 419 c 0,41,42
 263 273 263 273 333.5 186 c 128,-1,43
 404 99 404 99 535 99 c 0,28,29
EndSplineSet
EndChar

StartChar: uni01A5
Encoding: 421 421 816
Width: 1189
GlyphClass: 2
Flags: W
AnchorPoint: "Anchor-1" 729 1087 basechar 0
AnchorPoint: "Anchor-0" 56 -417 basechar 0
LayerCount: 2
Fore
SplineSet
206 878 m 1,0,-1
 240 1087 l 1,1,-1
 267 1251 l 2,2,3
 286 1366 286 1366 361.5 1425 c 128,-1,4
 437 1484 437 1484 562 1484 c 0,5,6
 590 1484 590 1484 613.5 1483.5 c 128,-1,7
 637 1483 637 1483 654 1482 c 1,8,-1
 635 1367 l 1,9,10
 618 1368 618 1368 594.5 1368 c 128,-1,11
 571 1368 571 1368 557 1368 c 0,12,13
 486 1368 486 1368 448 1341 c 128,-1,14
 410 1314 410 1314 400 1251 c 2,15,-1
 372 1087 l 1,16,-1
 338 878 l 1,17,-1
 206 878 l 1,0,-1
-9 -418 m 1,18,-1
 240 1087 l 1,19,-1
 369 1087 l 1,20,-1
 335 881 l 1,21,-1
 339 881 l 1,22,23
 374 943 374 943 430 993.5 c 128,-1,24
 486 1044 486 1044 560 1074 c 128,-1,25
 634 1104 634 1104 722 1104 c 0,26,27
 842 1104 842 1104 928 1050 c 128,-1,28
 1014 996 1014 996 1061 898.5 c 128,-1,29
 1108 801 1108 801 1108 668 c 0,30,31
 1108 543 1108 543 1070 420 c 128,-1,32
 1032 297 1032 297 960 197.5 c 128,-1,33
 888 98 888 98 785 38.5 c 128,-1,34
 682 -21 682 -21 553 -21 c 0,35,36
 461 -21 461 -21 396.5 11.5 c 128,-1,37
 332 44 332 44 292 96 c 128,-1,38
 252 148 252 148 234 209 c 1,39,-1
 227 209 l 1,40,-1
 123 -418 l 1,41,-1
 -9 -418 l 1,18,-1
538 99 m 0,42,43
 642 99 642 99 723 148.5 c 128,-1,44
 804 198 804 198 860.5 280.5 c 128,-1,45
 917 363 917 363 946 463.5 c 128,-1,46
 975 564 975 564 975 666 c 0,47,48
 975 813 975 813 904 899 c 128,-1,49
 833 985 833 985 702 985 c 0,50,51
 597 985 597 985 516 935 c 128,-1,52
 435 885 435 885 379 802.5 c 128,-1,53
 323 720 323 720 294 620 c 128,-1,54
 265 520 265 520 265 419 c 0,55,56
 265 273 265 273 336 186 c 128,-1,57
 407 99 407 99 538 99 c 0,42,43
EndSplineSet
EndChar

StartChar: q
Encoding: 113 113 820
Width: 1189
GlyphClass: 2
Flags: W
AnchorPoint: "Anchor-1" 686 1087 basechar 0
AnchorPoint: "Anchor-0" 814 -417 basechar 0
LayerCount: 2
Fore
SplineSet
880 -418 m 1,0,-1
 747 -418 l 1,1,-1
 851 202 l 1,2,-1
 843 202 l 1,3,4
 806 140 806 140 751 89.5 c 128,-1,5
 696 39 696 39 625 9 c 128,-1,6
 554 -21 554 -21 466 -21 c 0,7,8
 347 -21 347 -21 260.5 32.5 c 128,-1,9
 174 86 174 86 127.5 184 c 128,-1,10
 81 282 81 282 81 415 c 0,11,12
 81 542 81 542 119.5 665 c 128,-1,13
 158 788 158 788 230.5 887 c 128,-1,14
 303 986 303 986 405.5 1045 c 128,-1,15
 508 1104 508 1104 636 1104 c 0,16,17
 729 1104 729 1104 794.5 1072 c 128,-1,18
 860 1040 860 1040 901.5 987.5 c 128,-1,19
 943 935 943 935 960 875 c 1,20,-1
 965 875 l 1,21,-1
 1001 1087 l 1,22,-1
 1129 1087 l 1,23,-1
 880 -418 l 1,0,-1
487 99 m 0,24,25
 591 99 591 99 672.5 148.5 c 128,-1,26
 754 198 754 198 810 281 c 128,-1,27
 866 364 866 364 895.5 465 c 128,-1,28
 925 566 925 566 925 667 c 0,29,30
 925 812 925 812 854 898.5 c 128,-1,31
 783 985 783 985 651 985 c 0,32,33
 548 985 548 985 467 935.5 c 128,-1,34
 386 886 386 886 329.5 804 c 128,-1,35
 273 722 273 722 243.5 622 c 128,-1,36
 214 522 214 522 214 419 c 0,37,38
 214 272 214 272 285.5 185.5 c 128,-1,39
 357 99 357 99 487 99 c 0,24,25
EndSplineSet
Substitution2: "'sups' Superscript in Latin lookup 39 subtable" q.sups
Substitution2: "'subs' Subscript in Latin lookup 38 subtable" q.subs
Substitution2: "'sinf' Scientific Inferiors in Latin lookup 18 subtable" q.subs
AlternateSubs2: "'aalt' Access All Alternates in Latin lookup 1 subtable" q.sups q.subs
EndChar

StartChar: uni02A0
Encoding: 672 672 821
Width: 1189
GlyphClass: 2
Flags: W
AnchorPoint: "Anchor-1" 686 1087 basechar 0
AnchorPoint: "Anchor-0" 814 -417 basechar 0
LayerCount: 2
Fore
SplineSet
963 878 m 1,0,-1
 997 1087 l 1,1,-1
 1024 1251 l 2,2,3
 1043 1366 1043 1366 1118.5 1425 c 128,-1,4
 1194 1484 1194 1484 1319 1484 c 0,5,6
 1347 1484 1347 1484 1370.5 1483.5 c 128,-1,7
 1394 1483 1394 1483 1411 1482 c 1,8,-1
 1392 1367 l 1,9,10
 1375 1368 1375 1368 1351.5 1368 c 128,-1,11
 1328 1368 1328 1368 1314 1368 c 0,12,13
 1243 1368 1243 1368 1205 1341 c 128,-1,14
 1167 1314 1167 1314 1157 1251 c 2,15,-1
 1129 1087 l 1,16,-1
 1095 878 l 1,17,-1
 963 878 l 1,0,-1
880 -418 m 1,18,-1
 747 -418 l 1,19,-1
 851 202 l 1,20,-1
 843 202 l 1,21,22
 806 140 806 140 751 89.5 c 128,-1,23
 696 39 696 39 625 9 c 128,-1,24
 554 -21 554 -21 466 -21 c 0,25,26
 347 -21 347 -21 260.5 32.5 c 128,-1,27
 174 86 174 86 127.5 184 c 128,-1,28
 81 282 81 282 81 415 c 0,29,30
 81 542 81 542 119.5 665 c 128,-1,31
 158 788 158 788 230.5 887 c 128,-1,32
 303 986 303 986 405.5 1045 c 128,-1,33
 508 1104 508 1104 636 1104 c 0,34,35
 729 1104 729 1104 794.5 1072 c 128,-1,36
 860 1040 860 1040 901.5 987.5 c 128,-1,37
 943 935 943 935 960 875 c 1,38,-1
 965 875 l 1,39,-1
 1001 1087 l 1,40,-1
 1129 1087 l 1,41,-1
 880 -418 l 1,18,-1
487 99 m 0,42,43
 591 99 591 99 672.5 148.5 c 128,-1,44
 754 198 754 198 810 281 c 128,-1,45
 866 364 866 364 895.5 465 c 128,-1,46
 925 566 925 566 925 667 c 0,47,48
 925 812 925 812 854 898.5 c 128,-1,49
 783 985 783 985 651 985 c 0,50,51
 548 985 548 985 467 935.5 c 128,-1,52
 386 886 386 886 329.5 804 c 128,-1,53
 273 722 273 722 243.5 622 c 128,-1,54
 214 522 214 522 214 419 c 0,55,56
 214 272 214 272 285.5 185.5 c 128,-1,57
 357 99 357 99 487 99 c 0,42,43
EndSplineSet
EndChar

StartChar: qrthook
Encoding: 587 587 822
Width: 1191
GlyphClass: 2
Flags: W
AnchorPoint: "Anchor-4" 950 0 basechar 0
AnchorPoint: "Anchor-1" 672 1087 basechar 0
AnchorPoint: "Anchor-0" 492 0 basechar 0
LayerCount: 2
Fore
SplineSet
1001 -420 m 0,0,1
 877 -420 877 -420 823 -361.5 c 128,-1,2
 769 -303 769 -303 788 -186 c 2,3,-1
 856 220 l 1,4,-1
 986 220 l 1,5,-1
 919 -186 l 2,6,7
 909 -250 909 -250 936 -277.5 c 128,-1,8
 963 -305 963 -305 1035 -305 c 0,9,10
 1049 -305 1049 -305 1072 -304.5 c 128,-1,11
 1095 -304 1095 -304 1112 -303 c 1,12,-1
 1094 -418 l 1,13,14
 1076 -419 1076 -419 1052 -419.5 c 128,-1,15
 1028 -420 1028 -420 1001 -420 c 0,0,1
458 -21 m 0,16,17
 322 -21 322 -21 230 49.5 c 128,-1,18
 138 120 138 120 101 247 c 128,-1,19
 64 374 64 374 92 543 c 0,20,21
 119 711 119 711 198.5 837 c 128,-1,22
 278 963 278 963 394 1033.5 c 128,-1,23
 510 1104 510 1104 645 1104 c 0,24,25
 735 1104 735 1104 799.5 1072.5 c 128,-1,26
 864 1041 864 1041 903 990.5 c 128,-1,27
 942 940 942 940 958 881 c 1,28,-1
 964 881 l 1,29,-1
 999 1087 l 1,30,-1
 1130 1087 l 1,31,-1
 950 0 l 1,32,-1
 821 0 l 1,33,-1
 854 205 l 1,34,-1
 845 205 l 1,35,36
 808 144 808 144 751.5 92.5 c 128,-1,37
 695 41 695 41 621.5 10 c 128,-1,38
 548 -21 548 -21 458 -21 c 0,16,17
495 99 m 0,39,40
 602 99 602 99 688 155 c 128,-1,41
 774 211 774 211 832.5 311 c 128,-1,42
 891 411 891 411 913 544 c 0,43,44
 935 676 935 676 910 775 c 128,-1,45
 885 874 885 874 818 929.5 c 128,-1,46
 751 985 751 985 644 985 c 0,47,48
 539 985 539 985 452 929.5 c 128,-1,49
 365 874 365 874 306 774.5 c 128,-1,50
 247 675 247 675 225 544 c 0,51,52
 203 411 203 411 228.5 311 c 128,-1,53
 254 211 254 211 322 155 c 128,-1,54
 390 99 390 99 495 99 c 0,39,40
EndSplineSet
EndChar

StartChar: r
Encoding: 114 114 823
Width: 678
GlyphClass: 2
Flags: W
AnchorPoint: "Anchor-1" 488 1087 basechar 0
AnchorPoint: "Anchor-0" 126 0 basechar 0
LayerCount: 2
Fore
SplineSet
61 0 m 1,0,-1
 241 1087 l 1,1,-1
 368 1087 l 1,2,-1
 339 912 l 1,3,-1
 346 912 l 1,4,5
 393 998 393 998 479.5 1049.5 c 128,-1,6
 566 1101 566 1101 670 1101 c 0,7,8
 688 1101 688 1101 704.5 1100 c 128,-1,9
 721 1099 721 1099 732 1099 c 1,10,-1
 710 966 l 1,11,12
 701 968 701 968 680 970.5 c 128,-1,13
 659 973 659 973 633 973 c 0,14,15
 554 973 554 973 484.5 938.5 c 128,-1,16
 415 904 415 904 368.5 840 c 128,-1,17
 322 776 322 776 307 688 c 2,18,-1
 193 0 l 1,19,-1
 61 0 l 1,0,-1
EndSplineSet
Substitution2: "'smcp' Lowercase to Small Capitals in Latin lookup 68 subtable" r.sc
Substitution2: "'c2sc' Capitals to Small Capitals in Latin lookup 67 subtable" r.sc
Substitution2: "'sups' Superscript in Latin lookup 39 subtable" r.sups
Substitution2: "'subs' Subscript in Latin lookup 38 subtable" r.subs
Substitution2: "'sinf' Scientific Inferiors in Latin lookup 18 subtable" r.subs
AlternateSubs2: "'aalt' Access All Alternates in Latin lookup 1 subtable" r.sc r.sups r.subs
EndChar

StartChar: rrthook
Encoding: 57437 57437 824
Width: 678
GlyphClass: 2
Flags: W
AnchorPoint: "Anchor-1" 488 1087 basechar 0
AnchorPoint: "Anchor-0" 126 0 basechar 0
LayerCount: 2
Fore
SplineSet
243 -420 m 0,0,1
 121 -420 121 -420 66 -362 c 128,-1,2
 11 -304 11 -304 30 -186 c 2,3,-1
 60 0 l 1,4,-1
 193 0 l 1,5,-1
 162 -186 l 2,6,7
 151 -249 151 -249 178 -277 c 128,-1,8
 205 -305 205 -305 278 -305 c 0,9,10
 291 -305 291 -305 314.5 -304.5 c 128,-1,11
 338 -304 338 -304 355 -303 c 1,12,-1
 337 -418 l 1,13,14
 318 -419 318 -419 294.5 -419.5 c 128,-1,15
 271 -420 271 -420 243 -420 c 0,0,1
61 0 m 1,16,-1
 241 1087 l 1,17,-1
 368 1087 l 1,18,-1
 339 912 l 1,19,-1
 346 912 l 1,20,21
 393 998 393 998 479.5 1049.5 c 128,-1,22
 566 1101 566 1101 670 1101 c 0,23,24
 688 1101 688 1101 704.5 1100 c 128,-1,25
 721 1099 721 1099 732 1099 c 1,26,-1
 710 966 l 1,27,28
 701 968 701 968 680 970.5 c 128,-1,29
 659 973 659 973 633 973 c 0,30,31
 554 973 554 973 484.5 938.5 c 128,-1,32
 415 904 415 904 368.5 840 c 128,-1,33
 322 776 322 776 307 688 c 2,34,-1
 193 0 l 1,35,-1
 61 0 l 1,16,-1
EndSplineSet
EndChar

StartChar: rturn
Encoding: 633 633 826
Width: 678
GlyphClass: 2
Flags: W
AnchorPoint: "Anchor-1" 551 1087 basechar 0
AnchorPoint: "Anchor-0" 276 0 basechar 0
LayerCount: 2
Fore
SplineSet
618 1087 m 1,0,-1
 438 0 l 1,1,-1
 311 0 l 1,2,-1
 340 175 l 1,3,-1
 334 175 l 1,4,5
 286 90 286 90 200 38 c 128,-1,6
 114 -14 114 -14 8 -14 c 0,7,8
 -9 -14 -9 -14 -25 -12.5 c 128,-1,9
 -41 -11 -41 -11 -53 -10 c 1,10,-1
 -31 121 l 1,11,12
 -22 120 -22 120 -1 117 c 128,-1,13
 20 114 20 114 46 114 c 0,14,15
 126 114 126 114 194.5 149 c 128,-1,16
 263 184 263 184 310.5 248 c 128,-1,17
 358 312 358 312 372 399 c 2,18,-1
 486 1087 l 1,19,-1
 618 1087 l 1,0,-1
EndSplineSet
EndChar

StartChar: rturnrthook
Encoding: 635 635 827
Width: 678
GlyphClass: 2
Flags: W
AnchorPoint: "Anchor-1" 551 1087 basechar 0
AnchorPoint: "Anchor-0" 276 0 basechar 0
LayerCount: 2
Fore
SplineSet
486 -420 m 0,0,1
 363 -420 363 -420 310.5 -362 c 128,-1,2
 258 -304 258 -304 277 -186 c 2,3,-1
 308 0 l 1,4,-1
 435 0 l 1,5,-1
 404 -186 l 2,6,7
 395 -249 395 -249 420.5 -277 c 128,-1,8
 446 -305 446 -305 520 -305 c 0,9,10
 534 -305 534 -305 557.5 -304.5 c 128,-1,11
 581 -304 581 -304 598 -303 c 1,12,-1
 579 -418 l 1,13,14
 567 -419 567 -419 552 -419.5 c 128,-1,15
 537 -420 537 -420 520.5 -420 c 128,-1,16
 504 -420 504 -420 486 -420 c 0,0,1
618 1087 m 1,17,-1
 438 0 l 1,18,-1
 311 0 l 1,19,-1
 340 175 l 1,20,-1
 334 175 l 1,21,22
 286 90 286 90 200 38 c 128,-1,23
 114 -14 114 -14 8 -14 c 0,24,25
 -9 -14 -9 -14 -25 -12.5 c 128,-1,26
 -41 -11 -41 -11 -53 -10 c 1,27,-1
 -31 121 l 1,28,29
 -22 120 -22 120 -1 117 c 128,-1,30
 20 114 20 114 46 114 c 0,31,32
 126 114 126 114 194.5 149 c 128,-1,33
 263 184 263 184 310.5 248 c 128,-1,34
 358 312 358 312 372 399 c 2,35,-1
 486 1087 l 1,36,-1
 618 1087 l 1,17,-1
EndSplineSet
EndChar

StartChar: rfishhookrev
Encoding: 639 639 828
Width: 660
Flags: W
LayerCount: 2
Fore
SplineSet
287 0 m 1,0,-1
 409 737 l 2,1,2
 425 833 425 833 399.5 886.5 c 128,-1,3
 374 940 374 940 319 962 c 128,-1,4
 264 984 264 984 192 984 c 0,5,6
 165 984 165 984 145 983 c 128,-1,7
 125 982 125 982 111 981 c 1,8,-1
 132 1106 l 1,9,10
 139 1107 139 1107 150.5 1108 c 128,-1,11
 162 1109 162 1109 179.5 1109.5 c 128,-1,12
 197 1110 197 1110 219 1110 c 0,13,14
 292 1110 292 1110 357.5 1090 c 128,-1,15
 423 1070 423 1070 470.5 1027 c 128,-1,16
 518 984 518 984 538 911.5 c 128,-1,17
 558 839 558 839 540 735 c 2,18,-1
 419 0 l 1,19,-1
 287 0 l 1,0,-1
EndSplineSet
EndChar

StartChar: uni027E
Encoding: 638 638 829
Width: 657
Flags: W
LayerCount: 2
Fore
SplineSet
60 0 m 1,0,-1
 182 737 l 2,1,2
 205 875 205 875 272.5 957 c 128,-1,3
 340 1039 340 1039 433 1074.5 c 128,-1,4
 526 1110 526 1110 625 1110 c 0,5,6
 647 1110 647 1110 664 1109.5 c 128,-1,7
 681 1109 681 1109 692.5 1108 c 128,-1,8
 704 1107 704 1107 711 1106 c 1,9,-1
 690 981 l 1,10,11
 677 982 677 982 659 983 c 128,-1,12
 641 984 641 984 614 984 c 0,13,14
 540 984 540 984 478 961.5 c 128,-1,15
 416 939 416 939 373.5 885.5 c 128,-1,16
 331 832 331 832 314 737 c 2,17,-1
 192 0 l 1,18,-1
 60 0 l 1,0,-1
EndSplineSet
EndChar

StartChar: rdescend
Encoding: 57438 57438 830
Width: 679
GlyphClass: 2
Flags: W
AnchorPoint: "Anchor-1" 489 1087 basechar 0
AnchorPoint: "Anchor-0" 127 0 basechar 0
LayerCount: 2
Fore
SplineSet
-8 -418 m 1,0,-1
 61 0 l 1,1,-1
 191 0 l 1,2,-1
 121 -418 l 1,3,-1
 -8 -418 l 1,0,-1
62 0 m 1,4,-1
 242 1087 l 1,5,-1
 369 1087 l 1,6,-1
 340 912 l 1,7,-1
 347 912 l 1,8,9
 393 998 393 998 480 1049.5 c 128,-1,10
 567 1101 567 1101 671 1101 c 0,11,12
 689 1101 689 1101 705 1100 c 128,-1,13
 721 1099 721 1099 733 1099 c 1,14,-1
 711 966 l 1,15,16
 702 968 702 968 681 970.5 c 128,-1,17
 660 973 660 973 634 973 c 0,18,19
 555 973 555 973 485.5 938.5 c 128,-1,20
 416 904 416 904 369.5 840 c 128,-1,21
 323 776 323 776 308 688 c 2,22,-1
 194 0 l 1,23,-1
 62 0 l 1,4,-1
EndSplineSet
EndChar

StartChar: r.sc
Encoding: 60955 60955 840
Width: 983
GlyphClass: 2
Flags: W
AnchorPoint: "Anchor-1" 591 1087 basechar 0
AnchorPoint: "Anchor-0" 425 0 basechar 0
LayerCount: 2
Fore
SplineSet
61 0 m 1,0,-1
 241 1087 l 1,1,-1
 628 1087 l 2,2,3
 741 1087 741 1087 815.5 1046.5 c 128,-1,4
 890 1006 890 1006 922.5 931 c 128,-1,5
 955 856 955 856 937 755 c 0,6,7
 921 654 921 654 863.5 580 c 128,-1,8
 806 506 806 506 717 465.5 c 128,-1,9
 628 425 628 425 515 425 c 2,10,-1
 206 425 l 1,11,-1
 225 539 l 1,12,-1
 526 539 l 2,13,14
 639 539 639 539 714.5 596.5 c 128,-1,15
 790 654 790 654 806 756 c 0,16,17
 823 857 823 857 770 915 c 128,-1,18
 717 973 717 973 602 973 c 2,19,-1
 354 973 l 1,20,-1
 192 0 l 1,21,-1
 61 0 l 1,0,-1
700 0 m 1,22,-1
 517 492 l 1,23,-1
 656 492 l 1,24,-1
 842 0 l 1,25,-1
 700 0 l 1,22,-1
EndSplineSet
EndChar

StartChar: rinv.sc
Encoding: 60956 60956 841
Width: 1082
Flags: W
LayerCount: 2
Fore
SplineSet
61 0 m 1,0,-1
 241 1087 l 1,1,-1
 372 1087 l 1,2,-1
 212 118 l 1,3,-1
 497 118 l 2,4,5
 637 118 637 118 716.5 174 c 128,-1,6
 796 230 796 230 814 335 c 0,7,8
 831 438 831 438 769 493.5 c 128,-1,9
 707 549 707 549 567 549 c 2,10,-1
 226 549 l 1,11,-1
 244 662 l 1,12,-1
 595 662 l 2,13,14
 788 662 788 662 879 574 c 128,-1,15
 970 486 970 486 945 335 c 0,16,17
 929 232 929 232 869 157 c 128,-1,18
 809 82 809 82 712.5 41 c 128,-1,19
 616 0 616 0 488 0 c 2,20,-1
 61 0 l 1,0,-1
582 596 m 1,21,-1
 970 1087 l 1,22,-1
 1122 1087 l 1,23,-1
 729 596 l 1,24,-1
 582 596 l 1,21,-1
EndSplineSet
EndChar

StartChar: s
Encoding: 115 115 842
Width: 1006
GlyphClass: 2
Flags: W
AnchorPoint: "Anchor-3" 418 0 basechar 0
AnchorPoint: "Anchor-1" 597 1087 basechar 0
AnchorPoint: "Anchor-0" 416 0 basechar 0
LayerCount: 2
Fore
SplineSet
419 -22 m 0,0,1
 311 -22 311 -22 231 10.5 c 128,-1,2
 151 43 151 43 105.5 106 c 128,-1,3
 60 169 60 169 56 260 c 0,4,5
 56 269 56 269 56 276.5 c 128,-1,6
 56 284 56 284 56 294 c 1,7,-1
 185 304 l 1,8,9
 184 199 184 199 245 146.5 c 128,-1,10
 306 94 306 94 420 94 c 0,11,12
 505 94 505 94 576 123.5 c 128,-1,13
 647 153 647 153 691 204 c 128,-1,14
 735 255 735 255 738 320 c 0,15,16
 740 376 740 376 701.5 410.5 c 128,-1,17
 663 445 663 445 585 464 c 2,18,-1
 414 507 l 2,19,20
 286 538 286 538 223 604.5 c 128,-1,21
 160 671 160 671 167 772 c 0,22,23
 172 871 172 871 231.5 946.5 c 128,-1,24
 291 1022 291 1022 386.5 1063.5 c 128,-1,25
 482 1105 482 1105 595 1105 c 0,26,27
 747 1105 747 1105 833.5 1035 c 128,-1,28
 920 965 920 965 933 842 c 0,29,30
 933 833 933 833 934 823.5 c 128,-1,31
 935 814 935 814 934 803 c 1,32,-1
 809 792 l 1,33,34
 808 883 808 883 755 936.5 c 128,-1,35
 702 990 702 990 593 990 c 0,36,37
 514 990 514 990 448 961.5 c 128,-1,38
 382 933 382 933 342 883 c 128,-1,39
 302 833 302 833 299 771 c 0,40,41
 296 713 296 713 336.5 678 c 128,-1,42
 377 643 377 643 463 621 c 2,43,-1
 629 580 l 2,44,45
 756 549 756 549 817 485 c 128,-1,46
 878 421 878 421 872 322 c 0,47,48
 868 244 868 244 831 181 c 128,-1,49
 794 118 794 118 731.5 72.5 c 128,-1,50
 669 27 669 27 589 2.5 c 128,-1,51
 509 -22 509 -22 419 -22 c 0,0,1
EndSplineSet
Substitution2: "'sups' Superscript in Latin lookup 39 subtable" s.sups
Substitution2: "'subs' Subscript in Latin lookup 38 subtable" s.subs
Substitution2: "'sinf' Scientific Inferiors in Latin lookup 18 subtable" s.subs
AlternateSubs2: "'aalt' Access All Alternates in Latin lookup 1 subtable" s.sups s.subs
EndChar

